antonpieck.sfdir
StartChar: exclam
Encoding: 0 33 3
Width: 672
GlyphClass: 1
Flags: W
LayerCount: 2
Fore
SplineSet
592 1760 m 2,0,1
 631 1768 631 1768 636 1732 c 0,2,3
 636 1713 636 1713 524 1700 c 1,4,5
 384 1671 384 1671 388 1586 c 1,6,-1
 388 500 l 1,7,-1
 388 496 l 2,8,9
 388 436 388 436 316 408 c 1,10,-1
 296 404 l 1,11,12
 204 418 204 418 204 496 c 2,13,-1
 204 1620 l 2,14,15
 204 1686 204 1686 36 1700 c 1,16,-1
 12 1700 l 1,17,-1
 0 1712 l 1,18,-1
 0 1720 l 2,19,20
 -2 1748 -2 1748 56 1744 c 2,21,-1
 276 1720 l 1,22,-1
 304 1720 l 1,23,-1
 592 1760 l 2,0,1
296 336 m 1,24,25
 410 336 410 336 460 200 c 1,26,-1
 464 168 l 1,27,28
 464 42 464 42 320 0 c 1,29,-1
 292 0 l 2,30,31
 180 0 180 0 132 132 c 1,32,-1
 128 168 l 1,33,34
 128 280 128 280 256 328 c 1,35,-1
 296 336 l 1,24,25
EndSplineSet
Validated: 33
EndChar
StartChar: quotedbl
Encoding: 1 34 4
Width: 672
GlyphClass: 1
Flags: W
LayerCount: 2
Fore
SplineSet
197 1108 m 1,0,-1
 167 1108 l 1,1,-1
 105 1467 l 2,2,3
 101 1490 101 1490 101 1500 c 0,4,5
 101 1537 101 1537 121.5 1557 c 128,-1,6
 142 1577 142 1577 181 1577 c 256,7,8
 220 1577 220 1577 241.5 1557.5 c 128,-1,9
 263 1538 263 1538 263 1501 c 0,10,11
 263 1493 263 1493 259 1467 c 2,12,-1
 197 1108 l 1,0,-1
509 1108 m 1,13,-1
 479 1108 l 1,14,-1
 417 1467 l 2,15,16
 413 1490 413 1490 413 1500 c 0,17,18
 413 1537 413 1537 433.5 1557 c 128,-1,19
 454 1577 454 1577 493 1577 c 256,20,21
 532 1577 532 1577 553.5 1557.5 c 128,-1,22
 575 1538 575 1538 575 1501 c 0,23,24
 575 1493 575 1493 571 1467 c 2,25,-1
 509 1108 l 1,13,-1
EndSplineSet
Validated: 1
EndChar
StartChar: dollar
Encoding: 2 36 6
Width: 1402
GlyphClass: 1
Flags: W
LayerCount: 2
Fore
SplineSet
1204 1796 m 1,0,-1
 1227 1801 l 1,1,2
 1255 1798 1255 1798 1256 1768 c 1,3,4
 1148 1369 1148 1369 1148 948 c 0,5,6
 1148 438 1148 438 1308 32 c 1,7,8
 1306 -8 1306 -8 1252 2 c 1,9,-1
 1243 11 l 1,10,11
 1200 132 1200 132 1188 132 c 2,12,-1
 1176 132 l 1,13,14
 998 72 998 72 856 72 c 0,15,16
 449 72 449 72 188 436 c 1,17,18
 100 568 100 568 56 844 c 1,19,-1
 56 972 l 1,20,21
 84 1117 84 1117 120 1216 c 1,22,23
 248 1501 248 1501 620 1660 c 1,24,25
 765 1704 765 1704 824 1704 c 2,26,-1
 912 1704 l 2,27,28
 982 1704 982 1704 1120 1652 c 1,29,-1
 1132 1652 l 2,30,31
 1167 1652 1167 1652 1188 1776 c 1,32,-1
 1204 1796 l 1,0,-1
307 976 m 1,33,-1
 1079 976 l 1,34,35
 1080 1132 1080 1132 1112 1432 c 1,36,-1
 1112 1452 l 1,37,38
 1091 1573 1091 1573 1019 1588.5 c 128,-1,39
 947 1604 947 1604 832 1604 c 0,40,41
 623 1604 623 1604 472 1432 c 1,42,43
 325 1229 325 1229 307 976 c 1,33,-1
972 824 m 1,44,-1
 312 824 l 1,45,-1
 303 824 l 1,46,47
 313 669 313 669 416 472 c 1,48,49
 612 176 612 176 856 176 c 2,50,-1
 936 176 l 1,51,52
 1106 202 1106 202 1127 243 c 128,-1,53
 1148 284 1148 284 1148 304 c 2,54,-1
 1148 312 l 1,55,56
 1084 616 1084 616 1084 816 c 2,57,-1
 1084 828 l 1,58,-1
 972 824 l 1,44,-1
EndSplineSet
Validated: 1
EndChar
StartChar: ampersand
Encoding: 3 38 8
Width: 2165
GlyphClass: 1
Flags: W
LayerCount: 2
Fore
SplineSet
1180 1800 m 1,0,1
 1452 1775 1452 1775 1452 1624 c 0,2,3
 1452 1532 1452 1532 1292 1456 c 1,4,-1
 1288 1456 l 2,5,6
 1278 1456 1278 1456 1264 1556 c 1,7,8
 1214 1660 1214 1660 1064 1660 c 0,9,10
 896 1660 896 1660 804 1456 c 1,11,12
 788 1404 788 1404 788 1344 c 0,13,14
 788 1264 788 1264 804 1264 c 2,15,-1
 940 1272 l 1,16,17
 1204 1272 1204 1272 1204 1148 c 0,18,19
 1204 1044 1204 1044 944 1024 c 1,20,21
 763 1024 763 1024 684 1152 c 1,22,-1
 676 1152 l 1,23,24
 212 1020 212 1020 212 628 c 0,25,26
 212 329 212 329 564 180 c 1,27,28
 674 144 674 144 772 144 c 0,29,30
 1076 144 1076 144 1292 412 c 1,31,32
 1460 579 1460 579 1460 600 c 1,33,34
 1422 600 1422 600 1052 808 c 1,35,-1
 984 828 l 1,36,-1
 952 828 l 2,37,38
 855 828 855 828 832 724 c 1,39,40
 832 659 832 659 900 560 c 1,41,-1
 892 552 l 1,42,-1
 872 552 l 1,43,44
 706 567 706 567 676 648 c 1,45,-1
 672 680 l 1,46,47
 672 766 672 766 800 868 c 1,48,49
 914 948 914 948 1048 948 c 0,50,51
 1188 948 1188 948 1540 732 c 1,52,-1
 1556 732 l 1,53,54
 1750 968 1750 968 1892 968 c 2,55,-1
 1904 968 l 2,56,57
 2015 968 2015 968 2056 880 c 0,58,59
 2068 846 2068 846 2068 816 c 0,60,61
 2068 652 2068 652 1768 568 c 0,62,63
 1722 556 1722 556 1672 556 c 2,64,-1
 1560 556 l 1,65,66
 1421 384 1421 384 1272 240 c 1,67,68
 985 0 985 0 660 0 c 2,69,-1
 656 0 l 2,70,71
 266 0 266 0 52 324 c 1,72,73
 0 445 0 445 0 552 c 0,74,75
 0 906 0 906 464 1176 c 1,76,77
 564 1216 564 1216 648 1236 c 1,78,-1
 648 1240 l 1,79,-1
 640 1304 l 1,80,81
 640 1593 640 1593 968 1756 c 1,82,83
 1093 1800 1093 1800 1180 1800 c 1,0,1
840 1176 m 1,84,-1
 840 1168 l 2,85,86
 843 1151 843 1151 940 1120 c 1,87,-1
 984 1120 l 2,88,89
 1030 1120 1030 1120 1036 1140 c 1,90,91
 1036 1176 1036 1176 932 1176 c 2,92,-1
 840 1176 l 1,84,-1
1644 688 m 1,93,94
 1668 676 1668 676 1744 668 c 1,95,96
 1894 668 1894 668 1956 804 c 1,97,-1
 1956 832 l 1,98,99
 1933 872 1933 872 1896 872 c 2,100,-1
 1872 872 l 1,101,102
 1786 853 1786 853 1644 692 c 1,103,-1
 1644 688 l 1,93,94
EndSplineSet
Validated: 1
EndChar
StartChar: quotesingle
Encoding: 4 39 9
Width: 346
GlyphClass: 1
Flags: W
LayerCount: 2
Fore
SplineSet
197 1108 m 1,0,-1
 167 1108 l 1,1,-1
 105 1467 l 2,2,3
 101 1490 101 1490 101 1500 c 0,4,5
 101 1537 101 1537 121.5 1557 c 128,-1,6
 142 1577 142 1577 181 1577 c 256,7,8
 220 1577 220 1577 241.5 1557.5 c 128,-1,9
 263 1538 263 1538 263 1501 c 0,10,11
 263 1493 263 1493 259 1467 c 2,12,-1
 197 1108 l 1,0,-1
EndSplineSet
Validated: 1
EndChar
StartChar: parenleft
Encoding: 5 40 10
Width: 758
GlyphClass: 1
Flags: W
LayerCount: 2
Fore
SplineSet
252 601 m 0,0,1
 254 878 254 878 351.5 1131 c 128,-1,2
 449 1384 449 1384 620 1573 c 1,3,-1
 700 1573 l 1,4,5
 528 1331 528 1331 470 1135 c 0,6,7
 413 942 413 942 413 612 c 2,8,-1
 413 590 l 2,9,10
 413 260 413 260 470 68 c 0,11,12
 528 -128 528 -128 700 -370 c 1,13,-1
 620 -370 l 1,14,15
 449 -181 449 -181 351.5 71.5 c 128,-1,16
 254 324 254 324 252 601 c 0,0,1
EndSplineSet
Validated: 1
EndChar
StartChar: parenright
Encoding: 6 41 11
Width: 758
GlyphClass: 1
Flags: W
LayerCount: 2
Fore
SplineSet
138 -370 m 1,0,-1
 58 -370 l 1,1,2
 230 -128 230 -128 288 68 c 0,3,4
 345 260 345 260 345 590 c 2,5,-1
 345 612 l 2,6,7
 345 942 345 942 288 1135 c 0,8,9
 230 1331 230 1331 58 1573 c 1,10,-1
 138 1573 l 1,11,12
 309 1384 309 1384 406.5 1131 c 128,-1,13
 504 878 504 878 506 601 c 0,14,15
 504 324 504 324 406.5 71.5 c 128,-1,16
 309 -181 309 -181 138 -370 c 1,0,-1
EndSplineSet
Validated: 1
EndChar
StartChar: comma
Encoding: 7 44 14
Width: 557
GlyphClass: 1
Flags: W
LayerCount: 2
Fore
SplineSet
238 258 m 1,0,1
 282 258 282 258 326.5 192.5 c 128,-1,2
 371 127 371 127 371 41 c 0,3,4
 371 -68 371 -68 300 -185.5 c 128,-1,5
 229 -303 229 -303 161 -303 c 1,6,-1
 161 -260 l 1,7,8
 234 -217 234 -217 248 -70 c 1,9,10
 248 49 248 49 119 91 c 1,11,-1
 119 133 l 1,12,-1
 238 258 l 1,0,1
EndSplineSet
Validated: 1
EndChar
StartChar: hyphen
Encoding: 8 45 15
AltUni2: 0000ad.ffffffff.0 0000ad.ffffffff.0
Width: 670
GlyphClass: 1
Flags: W
LayerCount: 2
Fore
SplineSet
156 409 m 2,0,1
 116 409 116 409 116 437 c 2,2,-1
 116 520 l 2,3,4
 116 549 116 549 157 549 c 2,5,-1
 513 549 l 2,6,7
 554 549 554 549 554 520 c 2,8,-1
 554 437 l 2,9,10
 554 409 554 409 514 409 c 2,11,-1
 156 409 l 2,0,1
EndSplineSet
Validated: 1
EndChar
StartChar: period
Encoding: 9 46 16
Width: 557
GlyphClass: 1
Flags: W
LayerCount: 2
Fore
SplineSet
145 167 m 2,0,-1
 227 251 l 2,1,2
 242 265 242 265 256 265 c 0,3,4
 269 265 269 265 287 249 c 2,5,-1
 367 163 l 2,6,7
 379 147 379 147 379 134 c 0,8,9
 379 119 379 119 365 103 c 2,10,-1
 285 15 l 2,11,12
 265 -5 265 -5 256 -5 c 0,13,14
 240 -5 240 -5 227 9 c 2,15,-1
 139 110 l 2,16,17
 129 123 129 123 129 136 c 0,18,19
 129 151 129 151 145 167 c 2,0,-1
EndSplineSet
Validated: 1
EndChar
StartChar: slash
Encoding: 10 47 17
Width: 569
GlyphClass: 1
Flags: W
LayerCount: 2
Fore
SplineSet
93 -50 m 1,0,-1
 13 -50 l 1,1,-1
 554 1434 l 1,2,-1
 634 1434 l 1,3,-1
 93 -50 l 1,0,-1
EndSplineSet
Validated: 1
EndChar
StartChar: zero
Encoding: 11 48 18
Width: 1279
GlyphClass: 1
Flags: W
LayerCount: 2
Fore
SplineSet
642 1782 m 0,0,1
 778 1782 778 1782 907 1667 c 128,-1,2
 1036 1552 1036 1552 1109 1338.5 c 128,-1,3
 1182 1125 1182 1125 1182 892 c 256,4,5
 1182 659 1182 659 1111 448 c 128,-1,6
 1040 237 1040 237 911.5 119.5 c 128,-1,7
 783 2 783 2 642 2 c 256,8,9
 501 2 501 2 372.5 119.5 c 128,-1,10
 244 237 244 237 173 448 c 128,-1,11
 102 659 102 659 102 892 c 256,12,13
 102 1125 102 1125 174 1338.5 c 128,-1,14
 246 1552 246 1552 375.5 1667 c 128,-1,15
 505 1782 505 1782 642 1782 c 0,0,1
276 887 m 0,16,17
 278 671 278 671 327 474.5 c 128,-1,18
 376 278 376 278 464 170 c 0,19,20
 545 70 545 70 632 63 c 0,21,22
 640 62 640 62 648 63 c 0,23,24
 743 64 743 64 830 174 c 128,-1,25
 917 284 917 284 966 483 c 0,26,27
 996 609 996 609 1007 744 c 0,28,29
 1013 818 1013 818 1012 895 c 0,30,31
 1010 1113 1010 1113 960 1312 c 128,-1,32
 910 1511 910 1511 821 1617 c 0,33,34
 740 1715 740 1715 655 1721 c 0,35,36
 647 1722 647 1722 640 1721 c 0,37,38
 547 1720 547 1720 459.5 1612 c 128,-1,39
 372 1504 372 1504 324 1305 c 0,40,41
 292 1175 292 1175 281 1037 c 0,42,43
 275 963 275 963 276 887 c 0,16,17
EndSplineSet
Validated: 33
EndChar
StartChar: one
Encoding: 12 49 19
Width: 602
GlyphClass: 1
Flags: W
LayerCount: 2
Fore
SplineSet
515 1792 m 1,0,-1
 513 1782 l 2,1,2
 485 1647 485 1647 485 1420 c 2,3,-1
 485 443 l 1,4,5
 489 168 489 168 373 84 c 0,6,7
 269 4 269 4 229 4 c 1,8,9
 305 77 305 77 309 268 c 1,10,-1
 309 1436 l 2,11,12
 309 1509 309 1509 209 1488 c 2,13,-1
 106 1468 l 1,14,-1
 101 1517 l 1,15,-1
 133 1532 l 1,16,17
 336 1617 336 1617 493 1770 c 2,18,-1
 515 1792 l 1,0,-1
EndSplineSet
Validated: 33
EndChar
StartChar: two
Encoding: 13 50 20
Width: 1014
GlyphClass: 1
Flags: W
LayerCount: 2
Fore
SplineSet
86 1549 m 1,0,1
 294 1787 294 1787 583 1789 c 1,2,3
 583 1789 583 1789 615 1790 c 2,4,5
 807 1792 807 1792 993 1653 c 1,6,7
 1150 1508 1150 1508 1152 1271 c 0,8,9
 1155 999 1155 999 778 663 c 2,10,11
 778 663 778 663 338 271 c 1,12,-1
 314 243 l 1,13,-1
 300 225 l 1,14,-1
 318 235 l 1,15,16
 398 266 398 266 474 268 c 0,17,18
 597 269 597 269 915 172 c 1,19,20
 1043 142 1043 142 1099 142 c 0,21,22
 1241 144 1241 144 1293 304 c 1,23,24
 1293 304 1293 304 1297 324 c 1,25,-1
 1305 324 l 1,26,-1
 1309 308 l 1,27,28
 1311 172 1311 172 1172 45 c 1,29,30
 1125 -8 1125 -8 992 0 c 1,31,32
 992 0 992 0 656 78 c 1,33,-1
 514 104 l 1,34,-1
 443 108 l 1,35,-1
 391 107 l 2,36,37
 192 106 192 106 100 25 c 1,38,39
 100 25 100 25 64 0 c 1,40,41
 39 -2 39 -2 43 19 c 0,42,43
 48 54 48 54 234 230 c 1,44,45
 784 827 784 827 874 1044 c 0,46,47
 933 1193 933 1193 932 1305 c 0,48,49
 929 1589 929 1589 636 1678 c 1,50,51
 568 1689 568 1689 520 1689 c 0,52,53
 248 1686 248 1686 91 1433 c 1,54,55
 48 1333 48 1333 49 1236 c 0,56,57
 50 1030 50 1030 207 978 c 1,58,59
 207 978 207 978 247 974 c 1,60,-1
 259 974 l 2,61,62
 388 975 388 975 426 1072 c 1,63,64
 426 1072 426 1072 434 1104 c 1,65,-1
 434 1132 l 2,66,67
 433 1165 433 1165 401 1228 c 1,68,69
 401 1228 401 1228 405 1228 c 1,70,71
 493 1175 493 1175 494 1069 c 0,72,73
 495 946 495 946 344 891 c 1,74,75
 344 891 344 891 292 887 c 1,76,-1
 260 886 l 2,77,78
 193 886 193 886 107 957 c 1,79,80
 -2 1062 -2 1062 -4 1248 c 2,81,82
 -4 1248 -4 1248 -4 1292 c 1,83,84
 6 1425 6 1425 86 1549 c 1,0,1
EndSplineSet
Validated: 33
EndChar
StartChar: three
Encoding: 14 51 21
Width: 1014
GlyphClass: 1
Flags: W
LayerCount: 2
Fore
SplineSet
8 1800 m 1,0,-1
 228 1768 l 1,1,-1
 307 1764 l 1,2,-1
 472 1760 l 1,3,-1
 720 1760 l 2,4,5
 946 1760 946 1760 1192 1788 c 1,6,-1
 1196 1784 l 1,7,-1
 1196 1764 l 1,8,9
 1086 1610 1086 1610 960 1476 c 1,10,-1
 736 1204 l 1,11,12
 856 1236 856 1236 920 1236 c 2,13,-1
 944 1236 l 2,14,15
 1147 1236 1147 1236 1248 940 c 1,16,17
 1268 841 1268 841 1268 772 c 0,18,19
 1268 371 1268 371 852 104 c 0,20,21
 761 44 761 44 632 12 c 1,22,-1
 563 0 l 1,23,-1
 474 0 l 1,24,-1
 420 8 l 2,25,26
 354 19 354 19 256 80 c 1,27,28
 152 174 152 174 152 248 c 0,29,30
 152 272 152 272 171.5 277 c 128,-1,31
 191 282 191 282 228 196 c 1,32,33
 319 67 319 67 516 64 c 0,34,35
 619 64 619 64 740 128 c 0,36,37
 938 238 938 238 1036 492 c 0,38,39
 1076 605 1076 605 1076 692 c 2,40,-1
 1076 720 l 2,41,42
 1076 953 1076 953 932 1068 c 1,43,44
 858 1112 858 1112 776 1112 c 2,45,-1
 768 1112 l 2,46,47
 708 1112 708 1112 580 1088 c 1,48,-1
 576 1092 l 1,49,-1
 576 1096 l 1,50,51
 662 1214 662 1214 960 1560 c 1,52,-1
 1024 1640 l 1,53,-1
 1029 1648 l 1,54,-1
 276 1648 l 2,55,56
 216 1648 216 1648 216 1608 c 1,57,58
 205 1591 205 1591 196 1472 c 1,59,-1
 196 1436 l 1,60,-1
 200 1384 l 1,61,-1
 204 1256 l 1,62,-1
 200 1252 l 1,63,-1
 192 1252 l 2,64,65
 182 1252 182 1252 160 1424 c 0,66,67
 147 1529 147 1529 56 1720 c 1,68,69
 0 1778 0 1778 0 1796 c 1,70,-1
 4 1800 l 1,71,-1
 8 1800 l 1,0,-1
EndSplineSet
Validated: 33
EndChar
StartChar: four
Encoding: 15 52 22
Width: 1580
GlyphClass: 1
Flags: W
LayerCount: 2
Fore
SplineSet
1293 1792 m 1,0,-1
 1293 1544 l 1,1,-1
 1293 1208 l 1,2,-1
 1293 1000 l 1,3,-1
 1293 807 l 1,4,-1
 1293 420 l 1,5,-1
 1361 420 l 2,6,7
 1440.99951172 420 1440.99951172 420 1453 456 c 0,8,9
 1456 463.000488281 1456 463.000488281 1461 468 c 2,10,-1
 1465 472 l 2,11,12
 1466 473 1466 473 1469 473.5 c 128,-1,13
 1472 474 1472 474 1473 472 c 2,14,-1
 1477 452 l 1,15,-1
 1477 324 l 2,16,17
 1477 295.000488281 1477 295.000488281 1465 292 c 2,18,-1
 1461 292 l 1,19,20
 1441.00048828 323.999511719 1441.00048828 323.999511719 1381 324 c 2,21,-1
 1357 324 l 1,22,-1
 1289 324 l 1,23,-1
 1289 141 l 2,24,25
 1289 52.0004882812 1289 52.0004882812 1449 13 c 1,26,-1
 1449 5 l 1,27,-1
 1429 1 l 1,28,-1
 1133 1 l 1,29,-1
 1005 1 l 1,30,-1
 993 1 l 1,31,-1
 993 17 l 1,32,33
 1102.00048828 17 1102.00048828 17 1121 129 c 1,34,-1
 1121 324 l 1,35,-1
 857 324 l 1,36,-1
 296 324 l 1,37,-1
 101 324 l 1,38,39
 539 717 539 717 789 1024 c 1,40,41
 1176.99902344 1516.99902344 1176.99902344 1516.99902344 1293 1792 c 1,0,-1
1129 1343 m 1,42,-1
 825 920 l 1,43,44
 579.709090129 589.725101913 579.709090129 589.725101913 415.71875 408 c 1,45,-1
 575 408 l 1,46,-1
 880 408 l 1,47,-1
 1085 408 l 1,48,-1
 1129 408 l 1,49,-1
 1129 588 l 1,50,-1
 1129 760 l 1,51,-1
 1129 964 l 1,52,-1
 1129 1176 l 1,53,-1
 1129 1343 l 1,42,-1
EndSplineSet
Validated: 1
EndChar
StartChar: five
Encoding: 16 53 23
Width: 1343
GlyphClass: 1
Flags: W
LayerCount: 2
Fore
SplineSet
1234 1796 m 1,0,-1
 1238 1792 l 1,1,2
 1178 1579 1178 1579 1178 1476 c 1,3,4
 1173 1443 1173 1443 1166 1412 c 1,5,-1
 1162 1412 l 2,6,7
 1147 1412 1147 1412 1134 1568 c 1,8,9
 1124 1600 1124 1600 1102 1600 c 2,10,-1
 286 1592 l 1,11,-1
 278 1424 l 1,12,-1
 262 1088 l 1,13,-1
 270 1088 l 1,14,15
 483 1316 483 1316 742 1316 c 0,16,17
 941 1316 941 1316 1126 1108 c 1,18,19
 1262 938 1262 938 1262 696 c 0,20,21
 1262 371 1262 371 1074 164 c 1,22,23
 887 0 887 0 622 0 c 1,24,25
 516 10 516 10 406 76 c 1,26,27
 267 190 267 190 234 284 c 1,28,29
 162 423 162 423 162 564 c 0,30,31
 162 585 162 585 182 596 c 1,32,-1
 198 596 l 1,33,34
 214 590 214 590 214 568 c 2,35,-1
 214 532 l 1,36,37
 257 325 257 325 366 208 c 1,38,39
 501 76 501 76 658 76 c 2,40,-1
 674 76 l 2,41,42
 933 76 933 76 1022 392 c 0,43,44
 1042 477 1042 477 1042 580 c 2,45,-1
 1042 584 l 2,46,47
 1042 1066 1042 1066 766 1192 c 1,48,-1
 706 1207 l 1,49,-1
 655 1213 l 1,50,-1
 622 1212 l 1,51,52
 485 1195 485 1195 338 1068 c 1,53,54
 251 974 251 974 140 842 c 1,55,-1
 106 848 l 1,56,57
 154 1331 154 1331 154 1584 c 2,58,-1
 154 1604 l 1,59,-1
 154 1680 l 1,60,-1
 154 1728 l 2,61,62
 154 1759 154 1759 169 1761 c 1,63,-1
 202 1756 l 1,64,-1
 294 1749 l 1,65,-1
 570 1740 l 1,66,-1
 671 1740 l 1,67,-1
 790 1741 l 2,68,69
 1117 1744 1117 1744 1178 1776 c 1,70,-1
 1234 1796 l 1,0,-1
EndSplineSet
Validated: 1
EndChar
StartChar: six
Encoding: 17 54 24
Width: 1466
GlyphClass: 1
Flags: W
LayerCount: 2
Fore
SplineSet
814 1800 m 2,0,-1
 834 1800 l 2,1,2
 1126 1800 1126 1800 1214 1592 c 1,3,-1
 1222 1560 l 1,4,5
 1108 1716 1108 1716 910 1716 c 2,6,-1
 886 1716 l 2,7,8
 722 1716 722 1716 566 1576 c 1,9,10
 383 1368 383 1368 358 1164 c 1,11,12
 330 1044 330 1044 330 948 c 1,13,-1
 338 948 l 1,14,15
 399 1138 399 1138 582 1256 c 0,16,17
 701 1336 701 1336 870 1336 c 2,18,-1
 878 1336 l 2,19,20
 1001 1336 1001 1336 1162 1228 c 1,21,22
 1370 1043 1370 1043 1370 744 c 1,23,-1
 1366 720 l 1,24,-1
 1366 704 l 2,25,26
 1366 341 1366 341 1102 112 c 1,27,28
 958 4 958 4 810 4 c 0,29,30
 553 4 553 4 338 196 c 1,31,32
 102 465 102 465 102 828 c 0,33,34
 102 1428 102 1428 490 1700 c 1,35,36
 658 1800 658 1800 814 1800 c 2,0,-1
322 764 m 0,37,38
 322 456 322 456 534 200 c 1,39,40
 651 80 651 80 782 80 c 0,41,42
 1045 80 1045 80 1142 480 c 0,43,44
 1154 525 1154 525 1162 712 c 1,45,46
 1162 1252 1162 1252 786 1252 c 0,47,48
 519 1252 519 1252 370 968 c 1,49,50
 322 860 322 860 322 764 c 0,37,38
EndSplineSet
Validated: 1
EndChar
StartChar: seven
Encoding: 18 55 25
Width: 1737
GlyphClass: 1
Flags: W
LayerCount: 2
Fore
SplineSet
130 1792 m 1,0,-1
 154 1791 l 1,1,-1
 286 1788 l 1,2,-1
 1626 1788 l 1,3,-1
 1655 1788 l 1,4,5
 1650 1752 1650 1752 1426 1524 c 1,6,7
 1092 1159 1092 1159 970 956 c 0,8,9
 755 587 755 587 718 268 c 1,10,11
 702 190 702 190 690 4 c 1,12,-1
 670 0 l 1,13,-1
 370 0 l 2,14,15
 350 0 350 0 350 8 c 0,16,17
 422 267 422 267 690 712 c 1,18,19
 873 987 873 987 1058 1208 c 1,20,21
 1243 1421 1243 1421 1382 1560 c 1,22,-1
 1392 1572 l 1,23,-1
 321 1572 l 1,24,25
 285 1534 285 1534 286 1412 c 2,26,-1
 286 1384 l 2,27,28
 286 1360 286 1360 266 1360 c 256,29,30
 246 1360 246 1360 238 1492 c 1,31,32
 227 1601 227 1601 102 1780 c 1,33,-1
 102 1792 l 1,34,-1
 110 1792 l 1,35,-1
 130 1792 l 1,0,-1
EndSplineSet
Validated: 33
EndChar
StartChar: eight
Encoding: 19 56 26
Width: 1445
GlyphClass: 1
Flags: W
LayerCount: 2
Fore
SplineSet
702 1796 m 1,0,1
 1123 1796 1123 1796 1218 1516 c 0,2,3
 1238 1452 1238 1452 1238 1392 c 0,4,5
 1238 1109 1238 1109 854 972 c 1,6,-1
 854 960 l 1,7,8
 1342 809 1342 809 1342 448 c 0,9,10
 1342 136 1342 136 978 32 c 0,11,12
 854 0 854 0 702 0 c 0,13,14
 563 0 563 0 378 68 c 1,15,16
 102 184 102 184 102 428 c 0,17,18
 102 764 102 764 510 928 c 1,19,-1
 510 932 l 1,20,21
 210 1115 210 1115 210 1380 c 0,22,23
 210 1687 210 1687 562 1780 c 1,24,-1
 702 1796 l 1,0,1
354 1444 m 0,25,26
 354 1190 354 1190 630 1068 c 1,27,28
 686 1026 686 1026 778 1000 c 1,29,30
 921 1038 921 1038 998 1136 c 0,31,32
 1098 1263 1098 1263 1098 1376 c 2,33,-1
 1098 1444 l 2,34,35
 1098 1592 1098 1592 918 1692 c 1,36,37
 804 1728 804 1728 702 1728 c 1,38,39
 561 1709 561 1709 490 1668 c 0,40,41
 354 1586 354 1586 354 1444 c 0,25,26
286 512 m 0,42,43
 286 76 286 76 742 76 c 1,44,-1
 754 80 l 1,45,-1
 758 76 l 1,46,-1
 762 76 l 2,47,48
 1002 76 1002 76 1134 204 c 1,49,50
 1194 283 1194 283 1194 388 c 2,51,-1
 1194 412 l 2,52,53
 1194 664 1194 664 858 780 c 1,54,55
 856 786 856 786 586 896 c 1,56,57
 464 872 464 872 374 760 c 1,58,59
 286 620 286 620 286 512 c 0,42,43
EndSplineSet
Validated: 1
EndChar
StartChar: nine
Encoding: 20 57 27
Width: 1466
GlyphClass: 1
Flags: W
LayerCount: 2
Fore
SplineSet
983 100 m 1,0,1
 815 0 815 0 659 0 c 2,2,3
 659 0 659 0 639 0 c 2,4,5
 347 0 347 0 259 207 c 1,6,7
 259 207 259 207 251 239 c 1,8,9
 365 84 365 84 563 84 c 2,10,11
 563 84 563 84 587 84 c 2,12,13
 751 84 751 84 907 224 c 1,14,15
 1090 432 1090 432 1114 636 c 1,16,17
 1142 757 1142 757 1142 852 c 1,18,19
 1142 852 1142 852 1134 852 c 1,20,21
 1074 662 1074 662 891 544 c 0,22,23
 772 464 772 464 603 464 c 2,24,25
 603 464 603 464 595 464 c 2,26,27
 472 464 472 464 311 572 c 1,28,29
 102 756 102 756 102 1055 c 1,30,31
 102 1055 102 1055 106 1079 c 1,32,-1
 106 1095 l 2,33,34
 106 1458 106 1458 369 1688 c 1,35,36
 513 1796 513 1796 661 1796 c 0,37,38
 918 1796 918 1796 1133 1604 c 1,39,40
 1370 1336 1370 1336 1370 973 c 0,41,42
 1371 372 1371 372 983 100 c 1,0,1
1102 832 m 1,43,44
 1150 940 1150 940 1150 1036 c 0,45,46
 1150 1344 1150 1344 937 1600 c 1,47,48
 821 1720 821 1720 689 1720 c 0,49,50
 426 1720 426 1720 330 1320 c 0,51,52
 318 1275 318 1275 310 1088 c 1,53,54
 311 548 311 548 687 548 c 0,55,56
 954 548 954 548 1102 832 c 1,43,44
EndSplineSet
Validated: 33
EndChar
StartChar: colon
Encoding: 21 58 28
Width: 557
GlyphClass: 1
Flags: W
LayerCount: 2
Fore
SplineSet
145 167 m 2,0,-1
 227 251 l 2,1,2
 242 265 242 265 256 265 c 0,3,4
 269 265 269 265 287 249 c 2,5,-1
 367 163 l 2,6,7
 379 147 379 147 379 134 c 0,8,9
 379 119 379 119 365 103 c 2,10,-1
 285 15 l 2,11,12
 265 -5 265 -5 256 -5 c 0,13,14
 240 -5 240 -5 227 9 c 2,15,-1
 139 110 l 2,16,17
 129 123 129 123 129 136 c 0,18,19
 129 151 129 151 145 167 c 2,0,-1
145 860 m 2,20,-1
 227 944 l 2,21,22
 242 958 242 958 256 958 c 0,23,24
 269 958 269 958 287 942 c 2,25,-1
 367 856 l 2,26,27
 379 840 379 840 379 827 c 0,28,29
 379 812 379 812 365 796 c 2,30,-1
 285 708 l 2,31,32
 265 688 265 688 256 688 c 0,33,34
 240 688 240 688 227 702 c 2,35,-1
 139 803 l 2,36,37
 129 816 129 816 129 829 c 0,38,39
 129 844 129 844 145 860 c 2,20,-1
EndSplineSet
Validated: 1
EndChar
StartChar: semicolon
Encoding: 22 59 29
AltUni2: 00037e.ffffffff.0 00037e.ffffffff.0
Width: 557
GlyphClass: 1
Flags: W
LayerCount: 2
Fore
SplineSet
145 859 m 2,0,-1
 227 943 l 2,1,2
 242 957 242 957 256 957 c 0,3,4
 269 957 269 957 287 941 c 2,5,-1
 367 855 l 2,6,7
 379 839 379 839 379 826 c 0,8,9
 379 811 379 811 365 795 c 2,10,-1
 285 707 l 2,11,12
 265 687 265 687 256 687 c 0,13,14
 240 687 240 687 227 701 c 2,15,-1
 139 802 l 2,16,17
 129 815 129 815 129 828 c 0,18,19
 129 843 129 843 145 859 c 2,0,-1
238 258 m 1,20,21
 282 258 282 258 326.5 192.5 c 128,-1,22
 371 127 371 127 371 41 c 0,23,24
 371 -68 371 -68 300 -185.5 c 128,-1,25
 229 -303 229 -303 161 -303 c 1,26,-1
 161 -260 l 1,27,28
 234 -217 234 -217 248 -70 c 1,29,30
 248 49 248 49 119 91 c 1,31,-1
 119 133 l 1,32,-1
 238 258 l 1,20,21
EndSplineSet
Validated: 1
EndChar
StartChar: less
Encoding: 23 60 30
Width: 1014
GlyphClass: 1
Flags: W
LayerCount: 2
Fore
SplineSet
927 1074 m 1,0,-1
 302 715 l 1,1,-1
 927 360 l 1,2,-1
 927 193 l 1,3,-1
 87 674 l 1,4,-1
 87 757 l 1,5,-1
 927 1241 l 1,6,-1
 927 1074 l 1,0,-1
EndSplineSet
Validated: 1
EndChar
StartChar: greater
Encoding: 24 62 32
Width: 1014
GlyphClass: 1
Flags: W
LayerCount: 2
Fore
SplineSet
87 1241 m 1,0,-1
 927 757 l 1,1,-1
 927 674 l 1,2,-1
 87 193 l 1,3,-1
 87 360 l 1,4,-1
 712 715 l 1,5,-1
 87 1074 l 1,6,-1
 87 1241 l 1,0,-1
EndSplineSet
Validated: 1
EndChar
StartChar: question
Encoding: 25 63 33
Width: 748
GlyphClass: 1
Flags: W
LayerCount: 2
Fore
SplineSet
200 1800 m 1,0,1
 344 1800 344 1800 492 1580 c 1,2,3
 568 1435 568 1435 568 1276 c 0,4,5
 568 1200 568 1200 448 928 c 1,6,7
 283 649 283 649 216 500 c 1,8,9
 201 456 201 456 188 376 c 1,10,11
 157 348 157 348 128 348 c 0,12,13
 44 348 44 348 44 552 c 1,14,15
 65 753 65 753 328 1188 c 1,16,17
 408 1339 408 1339 408 1384 c 2,18,-1
 408 1436 l 2,19,20
 408 1503 408 1503 332 1564 c 1,21,22
 300 1584 300 1584 276 1584 c 2,23,-1
 236 1584 l 1,24,25
 160 1574 160 1574 48 1496 c 1,26,-1
 36 1496 l 1,27,-1
 32 1516 l 1,28,29
 32 1644 32 1644 112 1764 c 1,30,31
 151 1795 151 1795 200 1800 c 1,0,1
136 268 m 1,32,33
 224 268 224 268 264 160 c 1,34,-1
 268 136 l 1,35,36
 268 49 268 49 164 8 c 1,37,-1
 136 0 l 1,38,39
 42 0 42 0 4 108 c 1,40,-1
 0 140 l 1,41,42
 0 224 0 224 104 264 c 1,43,-1
 136 268 l 1,32,33
EndSplineSet
Validated: 1
EndChar
StartChar: at
Encoding: 26 64 34
Width: 1796
GlyphClass: 1
Flags: W
LayerCount: 2
Fore
SplineSet
904 1792 m 2,0,-1
 992 1792 l 2,1,2
 1243 1792 1243 1792 1440 1628 c 1,3,4
 1652 1422 1652 1422 1652 1168 c 2,5,-1
 1652 1084 l 2,6,7
 1652 834 1652 834 1452 600 c 1,8,9
 1338 432 1338 432 1154 489 c 1,10,-1
 1108 496 l 1,11,-1
 912 472 l 1,12,-1
 900 476 l 1,13,-1
 900 496 l 1,14,15
 1032 515 1032 515 1032 544 c 2,16,-1
 1032 556 l 2,17,18
 1032 583 1032 583 944 768 c 1,19,-1
 832 760 l 1,20,21
 560 808 560 808 524 808 c 0,22,23
 507 808 507 808 440 604 c 1,24,25
 440 508 440 508 556 508 c 2,26,-1
 568 508 l 1,27,-1
 576 500 l 1,28,-1
 576 496 l 2,29,30
 576 488 576 488 544 476 c 1,31,-1
 540 480 l 1,32,-1
 512 480 l 1,33,-1
 412 496 l 1,34,35
 279 476 279 476 236 476 c 2,36,-1
 228 476 l 1,37,-1
 208 480 l 1,38,-1
 208 488 l 2,39,40
 208 497 208 497 296 520 c 1,41,42
 369 553 369 553 408 652 c 2,43,-1
 468 812 l 1,44,-1
 464 812 l 1,45,-1
 420 792 l 1,46,-1
 416 796 l 1,47,-1
 416 804 l 1,48,-1
 488 856 l 1,49,50
 676 1309 676 1309 676 1332 c 0,51,52
 676 1340 676 1340 652 1344 c 1,53,-1
 652 1356 l 1,54,55
 716 1356 716 1356 792 1468 c 1,56,-1
 836 1496 l 1,57,-1
 848 1493 l 1,58,-1
 845 1480 l 1,59,60
 812 1439 812 1439 812 1412 c 2,61,-1
 812 1404 l 1,62,63
 824 1356 824 1356 1036 872 c 1,64,-1
 1040 860 l 1,65,-1
 1044 856 l 1,66,67
 1044 844 1044 844 1052 844 c 2,68,-1
 1064 844 l 1,69,-1
 1168 884 l 1,70,-1
 1172 880 l 1,71,72
 1172 854 1172 854 1068 804 c 1,73,-1
 1068 800 l 1,74,75
 1165 572 1165 572 1188 544 c 1,76,-1
 1237 529 l 1,77,78
 1354 518 1354 518 1520 788 c 1,79,80
 1596 943 1596 943 1596 1064 c 2,81,-1
 1596 1156 l 2,82,83
 1596 1444 1596 1444 1316 1648 c 1,84,85
 1141 1732 1141 1732 1024 1732 c 2,86,-1
 962 1734 l 1,87,-1
 908 1732 l 1,88,89
 756 1732 756 1732 528 1620 c 0,90,91
 290 1499 290 1499 152 1140 c 0,92,93
 104 1004 104 1004 104 828 c 0,94,95
 104 298 104 298 584 100 c 1,96,97
 724 56 724 56 816 56 c 2,98,-1
 928 56 l 2,99,100
 1203 56 1203 56 1484 296 c 1,101,102
 1603 416 1603 416 1664 564 c 1,103,-1
 1688 584 l 1,104,-1
 1700 584 l 2,105,106
 1708 584 1708 584 1716 560 c 1,107,108
 1591 249 1591 249 1280 88 c 1,109,110
 1068 4 1068 4 960 4 c 1,111,-1
 936 0 l 1,112,-1
 808 0 l 2,113,114
 660 0 660 0 440 100 c 1,115,116
 0 358 0 358 0 864 c 0,117,118
 0 1245 0 1245 256 1512 c 1,119,120
 537 1792 537 1792 904 1792 c 2,0,-1
708 1288 m 1,121,-1
 544 864 l 1,122,-1
 544 860 l 1,123,-1
 644 864 l 1,124,-1
 860 828 l 1,125,-1
 896 828 l 1,126,-1
 916 832 l 1,127,-1
 916 836 l 1,128,129
 736 1265 736 1265 716 1288 c 1,130,-1
 708 1288 l 1,121,-1
EndSplineSet
Validated: 33
EndChar
StartChar: D
Encoding: 30 68 38
Width: 1856
GlyphClass: 1
Flags: W
LayerCount: 2
Fore
SplineSet
112 1794 m 1,0,-1
 430 1758 l 1,1,2
 490 1758 490 1758 538 1762 c 2,3,-1
 875 1790 l 1,4,5
 1055 1782 1055 1782 1197 1738 c 0,6,7
 1332 1696 1332 1696 1406 1637 c 1,8,9
 1497 1572 1497 1572 1594 1459 c 1,10,11
 1767 1225 1767 1225 1767 927 c 2,12,-1
 1767 859 l 2,13,14
 1767 766 1767 766 1691 536 c 1,15,16
 1541 230 1541 230 1277 109 c 1,17,18
 1098 12 1098 12 807 12 c 1,19,-1
 510 32 l 1,20,-1
 506 32 l 1,21,-1
 502 32 l 1,22,-1
 64 0 l 1,23,-1
 52 0 l 1,24,-1
 36 0 l 2,25,26
 4 0 4 0 0 32 c 1,27,-1
 0 36 l 2,28,29
 0 60 0 60 36 60 c 2,30,-1
 40 60 l 1,31,-1
 80 60 l 1,32,-1
 96 60 l 2,33,34
 245 60 245 60 289 141 c 1,35,-1
 305 210 l 1,36,-1
 305 1544 l 1,37,38
 309 1639 309 1639 257 1684 c 128,-1,39
 205 1729 205 1729 60 1729 c 1,40,41
 2 1798 2 1798 112 1794 c 1,0,-1
534 1685 m 1,42,-1
 534 121 l 2,43,44
 534 101 534 101 606.5 97 c 128,-1,45
 679 93 679 93 711 91 c 128,-1,46
 743 89 743 89 771 89 c 2,47,-1
 803 89 l 2,48,49
 1155 89 1155 89 1381 383 c 0,50,51
 1419 437 1419 437 1470 536 c 1,52,53
 1526 695 1526 695 1526 742 c 1,54,-1
 1538 871 l 1,55,-1
 1538 891 l 2,56,57
 1538 1066 1538 1066 1438 1274 c 0,58,59
 1376 1400 1376 1400 1225 1544 c 1,60,-1
 1064 1645 l 1,61,62
 920 1709 920 1709 775 1709 c 1,63,64
 542 1693 542 1693 534 1685 c 1,42,-1
EndSplineSet
Validated: 33
EndChar
StartChar: E
Encoding: 31 69 39
Width: 1669
GlyphClass: 1
Flags: W
LayerCount: 2
Fore
SplineSet
136 1788 m 2,0,-1
 196 1788 l 1,1,2
 307 1773 307 1773 377 1777 c 1,3,-1
 1428 1776 l 2,4,5
 1460 1776 1460 1776 1460 1704 c 0,6,7
 1460 1656 1460 1656 1412 1584 c 1,8,9
 1403 1551 1403 1551 1248 1392 c 1,10,11
 1184 1279 1184 1279 1184 1232 c 2,12,-1
 1184 1168 l 1,13,-1
 1188 1148 l 1,14,-1
 1176 1140 l 1,15,16
 1149 1140 1149 1140 1136 1256 c 1,17,-1
 1136 1292 l 1,18,-1
 1132 1296 l 1,19,20
 1141 1397 1141 1397 1220 1528 c 0,21,22
 1248 1570 1248 1570 1248 1612 c 0,23,24
 1248 1691 1248 1691 1100 1700 c 1,25,-1
 472 1700 l 1,26,-1
 472 969 l 1,27,28
 575 968 575 968 980 872 c 1,29,-1
 1088 860 l 1,30,-1
 1100 860 l 2,31,32
 1219 860 1219 860 1272 872 c 1,33,-1
 1276 868 l 1,34,-1
 1276 856 l 1,35,36
 1238 828 1238 828 1072 800 c 1,37,-1
 980 788 l 1,38,-1
 924 788 l 2,39,40
 784 788 784 788 592 844 c 1,41,-1
 476 866 l 1,42,-1
 476 100 l 1,43,-1
 477 92 l 1,44,-1
 1244 92 l 1,45,46
 1356 101 1356 101 1356 160 c 2,47,-1
 1356 180 l 2,48,49
 1356 220 1356 220 1284 340 c 1,50,51
 1240 438 1240 438 1240 512 c 1,52,53
 1253 636 1253 636 1288 636 c 1,54,-1
 1292 632 l 1,55,-1
 1292 600 l 2,56,57
 1292 429 1292 429 1464 280 c 1,58,59
 1574 151 1574 151 1572 48 c 0,60,61
 1572 16 1572 16 1540 16 c 2,62,-1
 360 16 l 1,63,-1
 196 0 l 1,64,65
 7 0 7 0 0 20 c 1,66,-1
 0 36 l 2,67,68
 0 60 0 60 108 60 c 1,69,70
 180 84 180 84 224 160 c 1,71,72
 244 204 244 204 244 236 c 2,73,-1
 244 896 l 1,74,-1
 230 893 l 1,75,-1
 212 888 l 1,76,-1
 156 872 l 1,77,-1
 144 876 l 1,78,-1
 144 892 l 2,79,80
 144 899 144 899 244 944 c 1,81,-1
 244 1604 l 1,82,83
 237 1703 237 1703 136 1732 c 1,84,85
 24 1741 24 1741 24 1752 c 0,86,87
 24 1776 24 1776 99 1786 c 0,88,89
 112 1787 112 1787 136 1788 c 2,0,-1
EndSplineSet
Validated: 33
EndChar
StartChar: G
Encoding: 33 71 41
Width: 1970
GlyphClass: 1
Flags: W
LayerCount: 2
Fore
SplineSet
784 1798 m 2,0,-1
 844 1798 l 2,1,2
 1055 1798 1055 1798 1316 1645 c 1,3,4
 1360 1629 1360 1629 1388 1629 c 2,5,-1
 1416 1629 l 2,6,7
 1509 1629 1509 1629 1632 1778 c 1,8,-1
 1652 1782 l 1,9,10
 1676 1782 1676 1782 1676 1762 c 0,11,12
 1676 1698 1676 1698 1500 1497 c 1,13,14
 1398 1352 1398 1352 1392 1288 c 1,15,16
 1352 1189 1352 1189 1328 1047 c 1,17,18
 1328 955 1328 955 1296 955 c 0,19,20
 1273 955 1273 955 1264 1007 c 1,21,-1
 1312 1349 l 1,22,23
 1312 1623 1312 1623 1000 1706 c 1,24,-1
 960 1710 l 1,25,-1
 876 1710 l 2,26,27
 723 1710 723 1710 496 1533 c 1,28,29
 298 1305 298 1305 256 1052 c 0,30,31
 240 972 240 972 240 911 c 2,32,-1
 240 875 l 2,33,34
 240 517 240 517 432 257 c 1,35,36
 578 96 578 96 780 96 c 2,37,-1
 856 96 l 2,38,39
 1176 96 1176 96 1276 297 c 1,40,41
 1288 343 1288 343 1288 393 c 2,42,-1
 1288 682 l 2,43,44
 1288 734 1288 734 992 759 c 1,45,46
 893 755 893 755 848 742 c 1,47,48
 832 746 832 746 832 767 c 0,49,50
 832 807 832 807 916 811 c 1,51,52
 964 819 964 819 1072 819 c 2,53,-1
 1176 819 l 1,54,-1
 1600 803 l 1,55,-1
 1612 803 l 2,56,57
 1744 803 1744 803 1928 843 c 1,58,59
 1945 838 1945 838 1952 823 c 1,60,61
 1952 756 1952 756 1696 730 c 1,62,63
 1524 707 1524 707 1524 646 c 2,64,-1
 1520 538 l 1,65,-1
 1520 301 l 2,66,67
 1520 265 1520 265 1460 241 c 1,68,69
 1177 26 1177 26 1012 16 c 1,70,71
 946 0 946 0 896 0 c 2,72,-1
 804 0 l 2,73,74
 683 0 683 0 468 72 c 1,75,76
 350 130 350 130 208 281 c 1,77,78
 65 454 65 454 44 590 c 1,79,80
 0 769 0 769 0 887 c 0,81,82
 0 1155 0 1155 132 1385 c 1,83,84
 277 1625 277 1625 560 1750 c 1,85,86
 709 1798 709 1798 784 1798 c 2,0,-1
EndSplineSet
Validated: 1
EndChar
StartChar: H
Encoding: 34 72 42
Width: 2299
GlyphClass: 1
Flags: W
LayerCount: 2
Fore
SplineSet
2100 1800 m 2,0,1
 2210 1806 2210 1806 2200 1764 c 1,2,3
 2215 1739 2215 1739 2073 1715.5 c 128,-1,4
 1931 1692 1931 1692 1898.5 1641.5 c 128,-1,5
 1866 1591 1866 1591 1868 1556 c 2,6,-1
 1868 1015 l 1,7,-1
 1872 1016 l 1,8,-1
 2024 1072 l 1,9,-1
 2031 1072 l 1,10,11
 2006 973 2006 973 1872 889 c 1,12,-1
 1872 244 l 1,13,14
 1884 120 1884 120 1972 93 c 128,-1,15
 2060 66 2060 66 2100 64 c 0,16,17
 2185 62 2185 62 2182 40 c 1,18,19
 2192 4 2192 4 2115 4 c 2,20,-1
 2062 5 l 1,21,-1
 1996 14 l 1,22,-1
 1925 26 l 1,23,-1
 1852 41 l 1,24,-1
 1780 48 l 1,25,26
 1705 48 1705 48 1408 0 c 1,27,-1
 1380 0 l 2,28,29
 1331 3 1331 3 1332 28 c 0,30,31
 1333 48 1333 48 1364 48 c 2,32,-1
 1428 56 l 1,33,-1
 1494 74 l 1,34,35
 1626 127 1626 127 1630 212 c 1,36,-1
 1630 822 l 1,37,38
 1445 812 1445 812 1114 852 c 128,-1,39
 783 892 783 892 540 871 c 1,40,-1
 540 284 l 1,41,42
 548 167 548 167 591.5 134.5 c 128,-1,43
 635 102 635 102 711 89 c 2,44,-1
 799 75 l 1,45,-1
 844 71 l 1,46,-1
 863 61 l 1,47,48
 894 8 894 8 796 10 c 2,49,-1
 735 13 l 1,50,-1
 680 22 l 1,51,-1
 638 31 l 2,52,53
 479 63 479 63 432 55 c 2,54,-1
 334 41 l 1,55,-1
 236 19 l 1,56,-1
 136 5 l 1,57,-1
 36 0 l 2,58,59
 -5 -4 -5 -4 0 32 c 1,60,61
 -3 57 -3 57 96 68 c 0,62,63
 168 75 168 75 216 104 c 0,64,65
 304 155 304 155 304 260 c 2,66,-1
 304 823 l 1,67,-1
 91 766 l 1,68,69
 173 894 173 894 300 941 c 1,70,-1
 300 1564 l 2,71,72
 300 1659 300 1659 252 1680 c 1,73,74
 171 1728 171 1728 44 1724 c 1,75,76
 26 1729 26 1729 24 1740 c 0,77,78
 2 1791 2 1791 113 1781 c 1,79,-1
 158 1779 l 1,80,-1
 195 1776 l 1,81,-1
 236 1770 l 1,82,-1
 296 1759 l 1,83,-1
 354 1752 l 1,84,-1
 403 1749 l 1,85,86
 475 1739 475 1739 610 1773 c 0,87,88
 716 1800 716 1800 814 1801 c 1,89,90
 881 1809 881 1809 868 1756 c 0,91,92
 868 1747 868 1747 836 1740 c 1,93,94
 783 1737 783 1737 720 1724 c 1,95,96
 540 1659 540 1659 540 1576 c 2,97,-1
 540 1012 l 1,98,99
 890 1034 890 1034 1135.5 1002.5 c 128,-1,100
 1381 971 1381 971 1629 977 c 1,101,-1
 1629 1557 l 1,102,103
 1624 1667 1624 1667 1528 1700 c 1,104,-1
 1489 1710 l 1,105,-1
 1452 1716 l 1,106,-1
 1415 1719 l 1,107,-1
 1396 1720 l 1,108,-1
 1362 1722 l 1,109,-1
 1348 1731 l 1,110,111
 1333 1770 1333 1770 1383 1782 c 1,112,-1
 1470 1780 l 1,113,-1
 1545 1773 l 1,114,-1
 1613 1762 l 1,115,-1
 1671 1753 l 1,116,-1
 1733 1750 l 2,117,118
 1811 1743 1811 1743 1942 1770 c 1,119,-1
 2008 1788 l 1,120,-1
 2055 1797 l 1,121,-1
 2100 1800 l 2,0,1
EndSplineSet
Validated: 33
EndChar
StartChar: J
Encoding: 36 74 44
Width: 953
GlyphClass: 1
Flags: W
LayerCount: 2
Fore
SplineSet
785 1798 m 1,0,1
 856 1800 856 1800 864 1774 c 0,2,3
 871 1747 871 1747 709 1726 c 1,4,5
 527 1676 527 1676 525 1570 c 2,6,-1
 525 82 l 1,7,-1
 525 -45 l 1,8,-1
 525 -134 l 1,9,-1
 525 -195 l 2,10,11
 525 -350 525 -350 307 -421 c 1,12,-1
 250 -430 l 1,13,-1
 158 -430 l 1,14,15
 72 -419 72 -419 0 -345 c 1,16,-1
 -1 -330 l 1,17,-1
 29 -310 l 1,18,-1
 51 -310 l 1,19,-1
 147 -340 l 1,20,-1
 153 -340 l 2,21,22
 263 -340 263 -340 283 -155 c 1,23,-1
 283 -84 l 1,24,-1
 283 643 l 1,25,-1
 283 645 l 1,26,-1
 283 648 l 1,27,-1
 283 1164 l 1,28,-1
 283 1183 l 1,29,-1
 283 1204 l 1,30,-1
 283 1620 l 2,31,32
 283 1704 283 1704 125 1720 c 2,33,-1
 40 1730 l 1,34,-1
 22 1734 l 1,35,-1
 6 1746 l 1,36,-1
 6 1756 l 2,37,38
 6 1786 6 1786 79 1786 c 1,39,40
 191 1761 191 1761 390 1751 c 1,41,-1
 785 1798 l 1,0,1
EndSplineSet
Validated: 33
Substitution2: "Flourishes-1" J.002
EndChar
StartChar: K
Encoding: 37 75 45
Width: 2022
GlyphClass: 1
Flags: W
LayerCount: 2
Fore
SplineSet
672 1800 m 1,0,-1
 784 1800 l 2,1,2
 804 1800 804 1800 812 1780 c 1,3,-1
 812 1764 l 2,4,5
 812 1753 812 1753 708 1744 c 1,6,7
 590 1702 590 1702 552 1636 c 0,8,9
 520 1580 520 1580 520 1544 c 2,10,-1
 520 768 l 1,11,-1
 532 768 l 1,12,-1
 720 984 l 1,13,-1
 928 1228 l 1,14,-1
 1152 1496 l 1,15,16
 1216 1555 1216 1555 1216 1660 c 2,17,-1
 1216 1672 l 1,18,19
 1173 1740 1173 1740 1124 1740 c 1,20,-1
 1008 1764 l 1,21,-1
 1008 1780 l 1,22,23
 1018 1800 1018 1800 1040 1800 c 2,24,-1
 1132 1800 l 1,25,26
 1277 1772 1277 1772 1324 1772 c 2,27,-1
 1344 1772 l 2,28,29
 1389 1772 1389 1772 1536 1800 c 1,30,-1
 1604 1800 l 1,31,-1
 1633 1787 l 1,32,33
 1653 1751 1653 1751 1584 1748 c 0,34,35
 1500 1748 1500 1748 1368 1648 c 1,36,37
 1295 1575 1295 1575 1112 1340 c 1,38,39
 1098 1334 1098 1334 952 1152 c 1,40,-1
 928 1116 l 1,41,-1
 1024 988 l 2,42,43
 1362 538 1362 538 1415 468.5 c 128,-1,44
 1468 399 1468 399 1535 306 c 128,-1,45
 1602 213 1602 213 1712 108 c 1,46,47
 1820 60 1820 60 1904 60 c 1,48,-1
 1928 32 l 1,49,50
 1928 4 1928 4 1860 4 c 2,51,-1
 1840 4 l 1,52,-1
 1500 44 l 1,53,54
 1399 44 1399 44 1208 8 c 1,55,-1
 1144 0 l 1,56,-1
 1072 0 l 2,57,58
 1062 0 1062 0 1060 16 c 0,59,60
 1060 52 1060 52 1156 52 c 1,61,62
 1162 60 1162 60 1244 76 c 1,63,64
 1303 109 1303 109 1316 132 c 1,65,-1
 1316 160 l 1,66,67
 1305 204 1305 204 1236.5 293 c 128,-1,68
 1168 382 1168 382 1115 451.5 c 128,-1,69
 1062 521 1062 521 976 624 c 1,70,-1
 880 752 l 1,71,-1
 776 888 l 2,72,73
 763 905 763 905 749 921 c 1,74,-1
 648 792 l 1,75,76
 582 720 582 720 520 642 c 1,77,-1
 520 250 l 2,78,79
 520 112 520 112 636 86 c 1,80,81
 665 74 665 74 780 62 c 1,82,-1
 784 46 l 1,83,-1
 784 42 l 2,84,85
 784 20 784 20 764 14 c 1,86,-1
 400 46 l 1,87,-1
 24 2 l 1,88,-1
 8 2 l 1,89,-1
 0 14 l 1,90,-1
 0 22 l 1,91,92
 -12 55 -12 55 112 70 c 1,93,94
 219 95 219 95 275 185 c 1,95,-1
 284 212 l 1,96,-1
 284 1500 l 2,97,98
 284 1688 284 1688 244 1688 c 1,99,100
 244 1708 244 1708 132 1736 c 1,101,102
 20 1744 20 1744 20 1756 c 2,103,-1
 20 1764 l 1,104,-1
 16 1764 l 1,105,106
 16 1776 16 1776 21 1791 c 1,107,108
 52 1796 52 1796 68 1796 c 0,109,110
 148 1796 148 1796 260 1776 c 0,111,112
 294 1772 294 1772 388 1768 c 1,113,114
 484 1772 484 1772 672 1800 c 1,0,-1
EndSplineSet
Validated: 33
EndChar
StartChar: M
Encoding: 39 77 47
Width: 2551
GlyphClass: 1
Flags: W
LayerCount: 2
Fore
SplineSet
2395 1794 m 0,0,1
 2450 1799 2450 1799 2444 1748 c 1,2,-1
 2444 1744 l 2,3,4
 2444 1718 2444 1718 2350 1715 c 1,5,6
 2159 1666 2159 1666 2163 1594 c 1,7,-1
 2159 213 l 1,8,-1
 2159 209 l 2,9,10
 2159 117 2159 117 2265 92 c 1,11,12
 2407 80 2407 80 2407 63 c 2,13,-1
 2407 54 l 2,14,15
 2407 13 2407 13 2338 13 c 1,16,-1
 2098 38 l 1,17,-1
 2037 38 l 1,18,-1
 1719 0 l 1,19,-1
 1715 0 l 2,20,21
 1672 0 1672 0 1662 38 c 1,22,23
 1662 72 1662 72 1800 83 c 1,24,25
 1920 115 1920 115 1930 196 c 1,26,27
 1935 1502 1935 1502 1932 1506 c 1,28,29
 1904 1486 1904 1486 1792 1314 c 1,30,31
 1393 730 1393 730 1238 488 c 1,32,-1
 1230 488 l 1,33,34
 1137 612 1137 612 493 1389 c 1,35,-1
 478 1408 l 1,36,-1
 478 221 l 2,37,38
 478 79 478 79 783 79 c 0,39,40
 805 79 805 79 820 50 c 1,41,42
 820 20 820 20 738 13 c 1,43,-1
 437 38 l 1,44,45
 338 30 338 30 201 0 c 1,46,-1
 123 0 l 2,47,48
 87 0 87 0 66 33 c 1,49,-1
 66 42 l 1,50,51
 79 67 79 67 111 67 c 2,52,-1
 156 67 l 2,53,54
 265 67 265 67 355 163 c 1,55,56
 376 195 376 195 378 254 c 2,57,-1
 379 1494 l 1,58,59
 367 1631 367 1631 163 1665 c 1,60,61
 77 1674 77 1674 57 1677 c 0,62,63
 0 1686 0 1686 0 1736 c 2,64,-1
 0 1744 l 2,65,66
 0 1781 0 1781 45 1781 c 0,67,68
 81 1781 81 1781 305 1744 c 1,69,-1
 318 1744 l 1,70,-1
 517 1765 l 1,71,72
 557 1757 557 1757 664 1610 c 1,73,-1
 1330 823 l 1,74,-1
 1666 1306 l 1,75,76
 1931 1706 1931 1706 1967 1744 c 1,77,-1
 1992 1752 l 1,78,-1
 2008 1752 l 2,79,80
 2109 1752 2109 1752 2395 1794 c 0,0,1
EndSplineSet
Validated: 33
EndChar
StartChar: P
Encoding: 42 80 50
Width: 1674
GlyphClass: 1
Flags: W
LayerCount: 2
Fore
SplineSet
1040 1796 m 1,0,1
 1526 1796 1526 1796 1656 1332 c 1,2,-1
 1668 1253 l 1,3,-1
 1672 1180 l 1,4,5
 1672 869 1672 869 1404 700 c 1,6,7
 1206 608 1206 608 1016 608 c 2,8,-1
 916 608 l 1,9,10
 830 603 830 603 572 620 c 1,11,-1
 568 621 l 1,12,-1
 568 228 l 2,13,14
 568 122 568 122 696 84 c 0,15,16
 747 72 747 72 784 72 c 2,17,-1
 832 72 l 2,18,19
 853 72 853 72 868 52 c 1,20,21
 868 26 868 26 804 20 c 1,22,23
 742 20 742 20 500 48 c 1,24,25
 405 48 405 48 128 0 c 1,26,-1
 76 -1 l 2,27,28
 -6 -2 -6 -2 0 36 c 0,29,30
 0 49 0 49 32 56 c 1,31,-1
 56 57 l 1,32,33
 316 90 316 90 342 216 c 1,34,-1
 344 1576 l 2,35,36
 344 1653 344 1653 280 1676 c 1,37,38
 203 1728 203 1728 116 1728 c 2,39,-1
 64 1728 l 2,40,41
 38 1728 38 1728 28 1744 c 1,42,43
 39 1784 39 1784 112 1784 c 2,44,-1
 136 1784 l 1,45,-1
 336 1768 l 1,46,-1
 612 1768 l 1,47,-1
 1040 1796 l 1,0,1
572 1720 m 1,48,-1
 568 1720 l 1,49,-1
 568 924 l 1,50,-1
 568 684 l 2,51,52
 568 669 568 669 888 664 c 1,53,54
 1244 664 1244 664 1368 940 c 1,55,56
 1436 1057 1436 1057 1436 1192 c 2,57,-1
 1436 1228 l 2,58,59
 1436 1438 1436 1438 1244 1636 c 1,60,61
 1114 1732 1114 1732 980 1732 c 2,62,-1
 940 1732 l 1,63,-1
 572 1720 l 1,48,-1
EndSplineSet
Validated: 33
EndChar
StartChar: R
Encoding: 44 82 52
Width: 1801
GlyphClass: 1
Flags: W
LayerCount: 2
Fore
SplineSet
1040 1796 m 1,0,1
 1526 1796 1526 1796 1656 1332 c 1,2,-1
 1668 1253 l 1,3,-1
 1672 1180 l 1,4,5
 1672 869 1672 869 1404 700 c 1,6,7
 1206 608 1206 608 1016 608 c 2,8,-1
 916 608 l 1,9,-1
 928 596 l 1,10,11
 1410 143 1410 143 1452 120 c 0,12,13
 1550 60 1550 60 1632 60 c 2,14,-1
 1688 59 l 2,15,16
 1706 55 1706 55 1704 36 c 0,17,18
 1704 16 1704 16 1672 8 c 1,19,-1
 1416 32 l 1,20,21
 1226 0 1226 0 1168 0 c 2,22,-1
 1136 0 l 1,23,24
 1020 6 1020 6 1020 24 c 0,25,26
 1025 52 1025 52 1064 52 c 2,27,-1
 1148 52 l 1,28,29
 1280 68 1280 68 1280 124 c 0,30,31
 1280 188 1280 188 1068 368 c 1,32,33
 830 603 830 603 808 604 c 2,34,-1
 572 620 l 1,35,-1
 568 621 l 1,36,-1
 568 228 l 2,37,38
 568 122 568 122 696 84 c 0,39,40
 747 72 747 72 784 72 c 2,41,-1
 832 72 l 2,42,43
 853 72 853 72 868 52 c 1,44,45
 868 26 868 26 804 20 c 1,46,47
 742 20 742 20 500 48 c 1,48,49
 405 48 405 48 128 0 c 1,50,-1
 76 -1 l 2,51,52
 -6 -2 -6 -2 0 36 c 0,53,54
 0 49 0 49 32 56 c 1,55,-1
 56 57 l 1,56,57
 316 90 316 90 342 216 c 1,58,-1
 344 1576 l 2,59,60
 344 1653 344 1653 280 1676 c 1,61,62
 203 1728 203 1728 116 1728 c 2,63,-1
 64 1728 l 2,64,65
 38 1728 38 1728 28 1744 c 1,66,67
 39 1784 39 1784 112 1784 c 2,68,-1
 136 1784 l 1,69,-1
 336 1768 l 1,70,-1
 612 1768 l 1,71,-1
 1040 1796 l 1,0,1
572 1720 m 1,72,-1
 568 1720 l 1,73,-1
 568 924 l 1,74,-1
 568 684 l 2,75,76
 568 669 568 669 888 664 c 1,77,78
 1244 664 1244 664 1368 940 c 1,79,80
 1436 1057 1436 1057 1436 1192 c 2,81,-1
 1436 1228 l 2,82,83
 1436 1438 1436 1438 1244 1636 c 1,84,85
 1114 1732 1114 1732 980 1732 c 2,86,-1
 940 1732 l 1,87,-1
 572 1720 l 1,72,-1
EndSplineSet
Validated: 33
Substitution2: "Flourishes-2" R.003
Substitution2: "Flourishes-1" R.002
EndChar
StartChar: T
Encoding: 46 84 54
Width: 1695
GlyphClass: 1
Flags: W
LayerCount: 2
Fore
SplineSet
45 1800 m 2,0,-1
 48 1800 l 1,1,2
 127 1780 127 1780 160 1780 c 0,3,4
 225 1777 225 1777 400 1777 c 2,5,-1
 1429 1777 l 2,6,7
 1476 1777 1476 1777 1564 1793 c 1,8,9
 1595 1793 1595 1793 1605 1754 c 1,10,-1
 1605 1740 l 2,11,12
 1605 1718 1605 1718 1548 1614 c 0,13,14
 1505 1535 1505 1535 1447 1404 c 1,15,-1
 1413 1307 l 1,16,17
 1390 1221 1390 1221 1390 1156 c 2,18,-1
 1390 1111 l 1,19,-1
 1391 1105 l 1,20,-1
 1392 1094 l 1,21,-1
 1394 1083 l 1,22,-1
 1394 1081 l 2,23,24
 1396 1075 1396 1075 1389 1070 c 1,25,26
 1371 1070 1371 1070 1353 1129 c 0,27,28
 1350 1140 1350 1140 1349 1145 c 0,29,30
 1349 1270 1349 1270 1389 1415 c 1,31,32
 1408 1524 1408 1524 1408 1550 c 2,33,-1
 1408 1583 l 2,34,35
 1408 1622 1408 1622 1387 1665 c 0,36,37
 1357 1717 1357 1717 1301 1720 c 2,38,-1
 890 1720 l 1,39,-1
 890 204 l 2,40,41
 893 153 893 153 915 122 c 1,42,43
 963 78 963 78 1018 67 c 0,44,45
 1053 57 1053 57 1136 51 c 1,46,-1
 1140 46 l 1,47,48
 1140 11 1140 11 1083 11 c 1,49,-1
 1056 9 l 1,50,-1
 860 36 l 2,51,52
 850 37 850 37 822 39 c 2,53,-1
 795 39 l 2,54,55
 757 38 757 38 761 38 c 1,56,-1
 755 37 l 1,57,-1
 754 37 l 1,58,-1
 479 4 l 1,59,-1
 477 5 l 1,60,-1
 412 0 l 1,61,62
 354 0 354 0 354 20 c 256,63,64
 354 40 354 40 415 43 c 2,65,-1
 423 43 l 1,66,67
 519 53 519 53 522 59 c 1,68,69
 573 74 573 74 637 135 c 1,70,71
 675 186 675 186 691 228 c 1,72,-1
 695 246 l 1,73,-1
 696 1724 l 1,74,-1
 304 1724 l 1,75,76
 254 1720 254 1720 228 1690 c 0,77,78
 194 1651 194 1651 194 1582 c 2,79,-1
 194 1569 l 2,80,81
 194 1504 194 1504 237 1283 c 1,82,-1
 242 1227 l 1,83,-1
 242 1211 l 1,84,85
 236 1103 236 1103 204 1082 c 1,86,-1
 201 1079 l 1,87,-1
 199 1078 l 1,88,-1
 197 1078 l 1,89,-1
 196 1081 l 1,90,-1
 201 1115 l 1,91,-1
 201 1163 l 2,92,93
 201 1325 201 1325 53 1612 c 0,94,95
 18 1683 18 1683 2 1725 c 1,96,-1
 0 1749 l 1,97,98
 8 1800 8 1800 45 1800 c 2,0,-1
EndSplineSet
Validated: 1
EndChar
StartChar: U
Encoding: 47 85 55
Width: 2055
GlyphClass: 1
Flags: W
LayerCount: 2
Fore
SplineSet
788 1800 m 2,0,1
 863 1808 863 1808 852 1768 c 0,2,3
 846 1744 846 1744 812 1744 c 0,4,5
 528 1714 528 1714 508 1582 c 1,6,-1
 508 692 l 2,7,8
 508 266 508 266 880 112 c 0,9,10
 967 80 967 80 1068 80 c 2,11,-1
 1072 80 l 2,12,13
 1440 80 1440 80 1568 416 c 0,14,15
 1589 460 1589 460 1604 620 c 1,16,-1
 1604 1564 l 2,17,18
 1604 1669 1604 1669 1480 1712 c 1,19,-1
 1308 1740 l 1,20,-1
 1304 1744 l 1,21,-1
 1304 1748 l 1,22,23
 1292 1787 1292 1787 1376 1780 c 1,24,25
 1666 1724 1666 1724 1874 1783 c 1,26,27
 2005 1792 2005 1792 1996 1764 c 1,28,29
 2012 1735 2012 1735 1904 1732 c 1,30,31
 1688 1680 1688 1680 1688 1568 c 2,32,-1
 1688 660 l 2,33,34
 1688 217 1688 217 1368 68 c 0,35,36
 1217 0 1217 0 1056 0 c 0,37,38
 717 0 717 0 476 204 c 1,39,40
 272 406 272 406 272 720 c 2,41,-1
 272 1612 l 1,42,43
 257 1670 257 1670 208 1696 c 1,44,45
 107 1740 107 1740 16 1737 c 1,46,-1
 5 1739 l 1,47,-1
 0 1745 l 1,48,-1
 0 1756 l 2,49,50
 0 1784 0 1784 52 1784 c 2,51,-1
 136 1780 l 1,52,-1
 274 1758 l 1,53,-1
 372 1748 l 1,54,-1
 461 1755 l 1,55,-1
 603 1772 l 1,56,-1
 694 1791 l 1,57,-1
 788 1800 l 2,0,1
EndSplineSet
Validated: 33
EndChar
StartChar: X
Encoding: 50 88 58
Width: 1758
GlyphClass: 1
Flags: W
LayerCount: 2
Fore
SplineSet
773 859 m 1,0,-1
 226 1636 l 2,1,2
 176 1712 176 1712 46 1724 c 1,3,4
 0 1724 0 1724 0 1748 c 256,5,6
 0 1772 0 1772 69 1788 c 1,7,-1
 111 1788 l 1,8,-1
 235 1763 l 2,9,10
 345 1741 345 1741 510 1780 c 1,11,-1
 571 1789 l 1,12,-1
 628 1791 l 2,13,14
 647 1788 647 1788 642 1768 c 1,15,-1
 641 1768 l 1,16,17
 647 1744 647 1744 553 1732 c 1,18,19
 404 1688 404 1688 431 1636 c 1,20,-1
 881 998 l 1,21,-1
 1326 1610 l 1,22,23
 1349 1681 1349 1681 1230 1716 c 1,24,-1
 1197 1724 l 1,25,-1
 1147 1724 l 1,26,-1
 1124 1727 l 1,27,-1
 1118 1740 l 1,28,29
 1118 1780 1118 1780 1177 1780 c 2,30,-1
 1187 1780 l 2,31,32
 1240 1780 1240 1780 1347 1748 c 1,33,34
 1414 1744 1414 1744 1556 1786 c 1,35,36
 1609 1790 1609 1790 1603 1760 c 0,37,38
 1603 1742 1603 1742 1549 1713 c 1,39,40
 1466 1690 1466 1690 1378 1562 c 2,41,-1
 926 936 l 1,42,-1
 1473 148 l 1,43,44
 1541 65 1541 65 1653 60 c 0,45,46
 1699 60 1699 60 1699 36 c 256,47,48
 1699 12 1699 12 1630 -4 c 1,49,-1
 1588 -4 l 1,50,-1
 1388 36 l 1,51,52
 1355 36 1355 36 1136 -4 c 1,53,-1
 1080 -7 l 1,54,-1
 1071 -7 l 2,55,56
 1058 -8 1058 -8 1057 16 c 1,57,-1
 1058 16 l 1,58,59
 1058 52 1058 52 1146 52 c 1,60,61
 1295 96 1295 96 1268 148 c 1,62,-1
 818 797 l 1,63,-1
 340 175 l 1,64,65
 317 103 317 103 436 68 c 1,66,-1
 469 60 l 1,67,-1
 537 60 l 1,68,-1
 547 48 l 1,69,-1
 547 44 l 2,70,71
 547 4 547 4 488 4 c 2,72,-1
 478 4 l 2,73,74
 425 4 425 4 318 36 c 1,75,76
 252 40 252 40 110 -2 c 1,77,78
 24 -2 24 -2 24 23 c 1,79,80
 11 65 11 65 116 71 c 1,81,82
 188 84 188 84 287 223 c 1,83,-1
 773 859 l 1,0,-1
EndSplineSet
Validated: 33
EndChar
StartChar: Y
Encoding: 51 89 59
Width: 1781
GlyphClass: 1
Flags: W
LayerCount: 2
Fore
SplineSet
80 1792 m 2,0,-1
 120 1792 l 2,1,2
 204 1792 204 1792 333 1756 c 0,3,4
 383 1743 383 1743 444 1751 c 2,5,-1
 546 1767 l 1,6,-1
 646 1775 l 2,7,8
 824 1788 824 1788 832 1752 c 1,9,10
 832 1719 832 1719 680 1711 c 1,11,12
 534 1688 534 1688 560 1600 c 1,13,14
 562 1563 562 1563 872 896 c 1,15,-1
 977 678 l 1,16,-1
 1391 1566 l 1,17,-1
 1398 1599 l 1,18,19
 1392 1720 1392 1720 1160 1720 c 2,20,-1
 1132 1720 l 2,21,22
 1116 1720 1116 1720 1108 1736 c 1,23,24
 1108 1772 1108 1772 1188 1768 c 1,25,26
 1276 1768 1276 1768 1344 1751 c 1,27,-1
 1433 1737 l 1,28,29
 1524 1742 1524 1742 1637 1770 c 1,30,31
 1736 1782 1736 1782 1724 1752 c 1,32,-1
 1724 1744 l 2,33,34
 1724 1735 1724 1735 1640 1716 c 1,35,36
 1490 1633 1490 1633 1416 1460 c 1,37,-1
 1024 604 l 1,38,-1
 1024 204 l 2,39,40
 1024 93 1024 93 1236 60 c 1,41,-1
 1296 60 l 2,42,43
 1323 62 1323 62 1323 40 c 0,44,45
 1323 8 1323 8 1256 12 c 2,46,-1
 924 44 l 1,47,-1
 863 44 l 1,48,49
 769 36 769 36 610 4 c 1,50,-1
 548 0 l 1,51,-1
 524 0 l 1,52,53
 488 8 488 8 488 20 c 2,54,-1
 488 32 l 2,55,56
 488 49 488 49 603 65 c 0,57,58
 668 73 668 73 724 136 c 0,59,60
 780 200 780 200 780 340 c 2,61,-1
 780 552 l 1,62,-1
 492 1192 l 2,63,64
 313 1583 313 1583 276 1644 c 1,65,66
 217 1728 217 1728 88 1724 c 0,67,68
 11 1724 11 1724 0 1756 c 1,69,70
 7 1792 7 1792 80 1792 c 2,0,-1
EndSplineSet
Validated: 33
EndChar
StartChar: backslash
Encoding: 53 92 61
Width: 1686
GlyphClass: 1
Flags: W
LayerCount: 2
Fore
SplineSet
837 1016 m 1,0,1
 1028 709 1028 709 1294 368 c 1,2,3
 1307 329 1307 329 1560 58 c 1,4,5
 1835 -221 1835 -221 2068 -415 c 1,6,7
 2068 -434 2068 -434 2057 -434 c 1,8,9
 1872 -339 1872 -339 1434 45 c 1,10,11
 1310 144 1310 144 938 546 c 1,12,-1
 699 858 l 1,13,-1
 648 792 l 1,14,15
 582 720 582 720 520 642 c 1,16,-1
 520 250 l 2,17,18
 520 112 520 112 636 86 c 1,19,20
 665 74 665 74 780 62 c 1,21,-1
 784 46 l 1,22,-1
 784 42 l 2,23,24
 784 20 784 20 764 14 c 1,25,-1
 400 46 l 1,26,-1
 24 2 l 1,27,-1
 8 2 l 1,28,-1
 0 14 l 1,29,-1
 0 22 l 1,30,31
 -12 55 -12 55 112 70 c 1,32,33
 219 95 219 95 275 185 c 1,34,-1
 284 212 l 1,35,-1
 284 1500 l 2,36,37
 284 1688 284 1688 244 1688 c 1,38,39
 244 1708 244 1708 132 1736 c 1,40,41
 20 1744 20 1744 20 1756 c 2,42,-1
 20 1764 l 1,43,-1
 16 1764 l 1,44,45
 16 1776 16 1776 21 1791 c 1,46,47
 52 1796 52 1796 68 1796 c 0,48,49
 148 1796 148 1796 260 1776 c 0,50,51
 294 1772 294 1772 388 1768 c 1,52,53
 484 1772 484 1772 672 1800 c 1,54,-1
 784 1800 l 2,55,56
 804 1800 804 1800 812 1780 c 1,57,-1
 812 1764 l 2,58,59
 812 1753 812 1753 708 1744 c 1,60,61
 590 1702 590 1702 552 1636 c 0,62,63
 520 1580 520 1580 520 1544 c 2,64,-1
 520 768 l 1,65,-1
 532 768 l 1,66,-1
 720 984 l 1,67,-1
 928 1228 l 1,68,-1
 1152 1496 l 1,69,70
 1216 1555 1216 1555 1216 1660 c 2,71,-1
 1216 1672 l 1,72,73
 1173 1740 1173 1740 1124 1740 c 1,74,-1
 1008 1764 l 1,75,-1
 1008 1780 l 1,76,77
 1018 1800 1018 1800 1040 1800 c 2,78,-1
 1132 1800 l 1,79,80
 1277 1772 1277 1772 1324 1772 c 2,81,-1
 1344 1772 l 2,82,83
 1389 1772 1389 1772 1536 1800 c 1,84,-1
 1604 1800 l 1,85,-1
 1633 1787 l 1,86,87
 1653 1751 1653 1751 1584 1748 c 0,88,89
 1500 1748 1500 1748 1368 1648 c 1,90,91
 1295 1575 1295 1575 1112 1340 c 1,92,93
 1098 1334 1098 1334 952 1152 c 1,94,-1
 928 1116 l 1,95,-1
 837 1016 l 1,0,1
EndSplineSet
Validated: 33
EndChar
StartChar: underscore
Encoding: 54 95 62
Width: 1024
GlyphClass: 1
Flags: W
LayerCount: 2
Fore
SplineSet
0 -100 m 1,0,-1
 1024 -100 l 1,1,-1
 1024 -160 l 1,2,-1
 0 -160 l 1,3,-1
 0 -100 l 1,0,-1
EndSplineSet
Validated: 1
EndChar
StartChar: grave
Encoding: 55 96 63
Width: 1024
GlyphClass: 1
Flags: W
LayerCount: 2
Fore
SplineSet
673 1079 m 1,0,-1
 604 1079 l 1,1,-1
 274 1281 l 2,2,3
 243 1301 243 1301 227.5 1321 c 128,-1,4
 212 1341 212 1341 212 1363 c 0,5,6
 212 1394 212 1394 232.5 1414 c 128,-1,7
 253 1434 253 1434 286 1434 c 0,8,9
 306 1434 306 1434 326.5 1422 c 128,-1,10
 347 1410 347 1410 382 1375 c 2,11,-1
 673 1079 l 1,0,-1
EndSplineSet
Validated: 1
EndChar
StartChar: a
Encoding: 56 97 64
Width: 2144
GlyphClass: 1
Flags: W
LayerCount: 2
Fore
SplineSet
1145 1796 m 0,0,1
 1165 1793 1165 1793 1165 1784 c 2,2,-1
 1165 1780 l 2,3,4
 1165 1754 1165 1754 1125 1720 c 1,5,6
 1097 1680 1097 1680 1094 1648 c 1,7,8
 1115 1566 1115 1566 1196 1400 c 1,9,-1
 1534 660 l 1,10,11
 1578 660 1578 660 1735 732 c 1,12,13
 1751 726 1751 726 1751 720 c 0,14,15
 1729 661 1729 661 1574 592 c 1,16,-1
 1570 588 l 1,17,-1
 1570 580 l 1,18,19
 1747 169 1747 169 1782 136 c 1,20,21
 1842 68 1842 68 2003 68 c 1,22,23
 2003 63 2003 63 2034 60 c 1,24,-1
 2034 40 l 1,25,26
 2018 8 2018 8 1928 8 c 1,27,-1
 1656 44 l 1,28,29
 1337 4 1337 4 1290 4 c 0,30,31
 1263 6 1263 6 1263 28 c 0,32,33
 1263 58 1263 58 1397 64 c 1,34,35
 1499 89 1499 89 1499 140 c 2,36,-1
 1499 156 l 2,37,38
 1499 201 1499 201 1377 448 c 1,39,40
 1347 524 1347 524 1338 524 c 2,41,-1
 1224 512 l 1,42,43
 1119 512 1119 512 618 588 c 1,44,-1
 567 588 l 1,45,46
 516 490 516 490 433 264 c 1,47,-1
 429 228 l 1,48,-1
 429 208 l 2,49,50
 429 80 429 80 590 64 c 1,51,-1
 641 64 l 2,52,53
 665 62 665 62 665 52 c 0,54,55
 658 8 658 8 586 8 c 1,56,-1
 370 36 l 1,57,-1
 47 0 l 1,58,59
 0 0 0 0 0 24 c 0,60,61
 0 41 0 41 142 72 c 1,62,63
 289 141 289 141 346 284 c 2,64,-1
 468 588 l 1,65,-1
 468 596 l 1,66,-1
 460 596 l 1,67,-1
 397 572 l 1,68,-1
 393 572 l 1,69,-1
 382 584 l 1,70,71
 429 630 429 630 511 672 c 1,72,-1
 854 1500 l 1,73,-1
 854 1508 l 2,74,75
 854 1516 854 1516 807 1532 c 1,76,-1
 807 1552 l 1,77,78
 883 1565 883 1565 921 1596 c 0,79,80
 959 1630 959 1630 1039 1728 c 1,81,82
 1107 1796 1107 1796 1145 1796 c 0,0,1
917 1436 m 1,83,-1
 610 688 l 1,84,-1
 614 684 l 1,85,-1
 618 684 l 1,86,-1
 755 696 l 1,87,88
 842 696 842 696 1106 644 c 1,89,-1
 1188 636 l 1,90,91
 1290 636 1290 636 1290 648 c 1,92,-1
 928 1436 l 1,93,-1
 917 1436 l 1,83,-1
EndSplineSet
Validated: 1
Substitution2: "Flourishes-2" A.003
Substitution2: "Flourishes-1" A.002
EndChar
StartChar: b
Encoding: 57 98 65
Width: 1737
GlyphClass: 1
Flags: W
LayerCount: 2
Fore
SplineSet
940 1800 m 1,0,-1
 980 1800 l 2,1,2
 1243 1800 1243 1800 1424 1620 c 1,3,4
 1508 1522 1508 1522 1508 1412 c 2,5,-1
 1508 1408 l 2,6,7
 1508 1166 1508 1166 1211 1066 c 1,8,9
 1374 1010 1374 1010 1472 928 c 0,10,11
 1615 805 1615 805 1652 648 c 1,12,-1
 1664 568 l 1,13,-1
 1664 540 l 2,14,15
 1664 423 1664 423 1544 268 c 1,16,17
 1280 0 1280 0 888 0 c 2,18,-1
 864 0 l 1,19,-1
 796 4 l 1,20,-1
 432 28 l 1,21,-1
 368 28 l 1,22,23
 113 0 113 0 56 0 c 2,24,-1
 52 0 l 2,25,26
 0 0 0 0 0 32 c 2,27,-1
 0 36 l 2,28,29
 0 59 0 59 100 63 c 1,30,31
 243 84 243 84 264 168 c 1,32,-1
 268 220 l 1,33,-1
 268 1588 l 1,34,35
 263 1684 263 1684 127 1727 c 1,36,37
 21 1731 21 1731 29 1760 c 1,38,39
 25 1792 25 1792 100 1788 c 1,40,41
 305 1751 305 1751 384 1744 c 1,42,-1
 428 1744 l 2,43,44
 502 1744 502 1744 940 1800 c 1,0,-1
520 1665 m 1,45,-1
 520 1616 l 1,46,-1
 520 1112 l 1,47,-1
 916 1112 l 1,48,49
 1202 1126 1202 1126 1288 1332 c 1,50,51
 1298 1333 1298 1333 1304 1424 c 1,52,-1
 1304 1428 l 2,53,54
 1304 1632 1304 1632 1028 1712 c 1,55,-1
 912 1724 l 1,56,-1
 872 1724 l 1,57,58
 571 1691 571 1691 520 1665 c 1,45,-1
520 1032 m 1,59,-1
 520 98 l 1,60,-1
 740 80 l 1,61,-1
 812 76 l 1,62,63
 1270 76 1270 76 1384 392 c 1,64,65
 1416 495 1416 495 1416 580 c 0,66,67
 1416 884 1416 884 1056 1008 c 0,68,69
 998 1032 998 1032 856 1032 c 2,70,-1
 520 1032 l 1,59,-1
EndSplineSet
Validated: 33
EndChar
StartChar: c
Encoding: 58 99 66
Width: 1843
GlyphClass: 1
Flags: W
LayerCount: 2
Fore
SplineSet
1740 1772 m 1,1,2
 1740 1700 1740 1700 1528 1500 c 1,3,4
 1438 1394 1438 1394 1400 1248 c 1,5,6
 1372 1175 1372 1175 1304 916 c 1,7,-1
 1288 900 l 1,8,-1
 1284 900 l 1,9,10
 1264 910 1264 910 1264 932 c 2,11,-1
 1322 1300 l 1,12,-1
 1324 1372 l 2,13,14
 1324 1505 1324 1505 1252 1564 c 1,15,16
 1198 1623 1198 1623 1072 1672 c 0,17,18
 1026 1688 1026 1688 960 1688 c 2,19,-1
 940 1688 l 1,20,-1
 912 1688 l 2,21,22
 524 1688 524 1688 344 1332 c 0,23,24
 244 1131 244 1131 244 880 c 0,25,26
 244 443 244 443 632 168 c 1,27,28
 775 80 775 80 976 80 c 0,29,30
 1370 80 1370 80 1616 428 c 1,31,-1
 1632 440 l 1,32,-1
 1644 440 l 2,33,34
 1657 439 1657 439 1660 408 c 1,35,36
 1633 336 1633 336 1464 180 c 1,37,38
 1265 31 1265 31 1032 12 c 0,39,40
 1023 8 1023 8 908 4 c 1,41,-1
 876 4 l 1,42,-1
 844 4 l 2,43,44
 646 4 646 4 396 144 c 1,45,46
 164 299 164 299 56 568 c 1,47,48
 16 690 16 690 0 812 c 1,49,-1
 0 924 l 2,50,51
 0 1381 0 1381 504 1660 c 0,52,53
 660 1743 660 1743 844 1752 c 1,54,-1
 848 1752 l 2,55,56
 993 1752 993 1752 1108 1720 c 0,57,58
 1174 1699 1174 1699 1191 1688.5 c 128,-1,59
 1208 1678 1208 1678 1248 1656 c 0,60,61
 1333 1608 1333 1608 1396 1608 c 0,62,63
 1603 1608 1603 1608 1694 1793 c 1,64,0
 1736 1820 1736 1820 1740 1772 c 1,1,2
EndSplineSet
Validated: 1
EndChar
StartChar: f
Encoding: 61 102 69
Width: 1492
GlyphClass: 1
Flags: W
LayerCount: 2
Fore
SplineSet
139 1790 m 1,0,-1
 199 1790 l 1,1,2
 310 1775 310 1775 380 1779 c 1,3,-1
 1431 1778 l 2,4,5
 1462.99951172 1778 1462.99951172 1778 1463 1706 c 0,6,7
 1463 1658 1463 1658 1415 1586 c 1,8,9
 1406 1553 1406 1553 1251 1394 c 1,10,11
 1186.99951172 1280 1186.99951172 1280 1187 1233 c 2,12,-1
 1187 1169 l 1,13,-1
 1191 1149 l 1,14,-1
 1179 1141 l 1,15,16
 1152 1141 1152 1141 1139 1257 c 2,17,-1
 1135 1297 l 1,18,19
 1144 1399 1144 1399 1223 1530 c 0,20,21
 1251.00048828 1572 1251.00048828 1572 1251 1614 c 0,22,23
 1251 1693.00048828 1251 1693.00048828 1103 1702 c 1,24,-1
 475 1702 l 1,25,-1
 475 970 l 1,26,27
 578.000488281 968.999511719 578.000488281 968.999511719 983 873 c 1,28,-1
 1091 861 l 1,29,-1
 1103 861 l 2,30,31
 1221.99951172 861 1221.99951172 861 1275 873 c 1,32,-1
 1279 869 l 1,33,-1
 1279 857 l 1,34,35
 1241 829 1241 829 1075 801 c 1,36,-1
 983 789 l 1,37,-1
 927 789 l 2,38,39
 787.000488281 789 787.000488281 789 595 845 c 1,40,-1
 479 867 l 1,41,-1
 479 233 l 2,42,43
 479 110 479 110 567 85 c 1,44,45
 634.000488281 61 634.000488281 61 671 61 c 2,46,-1
 731 61 l 2,47,48
 753.000488281 61 753.000488281 61 763 41 c 1,49,-1
 763 37 l 1,50,51
 769 -23 769 -23 453 20 c 1,52,-1
 391.947265625 29.59375 l 1,53,-1
 325 28 l 1,54,55
 34 -21.9995117188 34 -21.9995117188 3 20 c 1,56,-1
 3 36 l 2,57,58
 3 60 3 60 111 60 c 1,59,60
 183 84 183 84 227 160 c 1,61,62
 246.999511719 203.999511719 246.999511719 203.999511719 247 236 c 2,63,-1
 247 897 l 1,64,-1
 233 894 l 1,65,-1
 215 889 l 1,66,-1
 159 873 l 1,67,-1
 147 877 l 1,68,-1
 147 893 l 2,69,70
 147 900.000488281 147 900.000488281 247 945 c 1,71,-1
 247 1606 l 1,72,73
 239.999511719 1705 239.999511719 1705 139 1734 c 1,74,75
 26.9995117188 1743 26.9995117188 1743 27 1754 c 0,76,77
 27 1778 27 1778 102 1788 c 0,78,79
 115 1789 115 1789 139 1790 c 1,0,-1
EndSplineSet
Validated: 33
EndChar
StartChar: i
Encoding: 64 105 72
Width: 941
GlyphClass: 1
Flags: W
LayerCount: 2
Fore
SplineSet
775 1815 m 1,0,-1
 824 1815 l 1,1,2
 860 1801 860 1801 860 1778 c 2,3,-1
 860 1774 l 2,4,5
 860 1762 860 1762 816 1750 c 1,6,-1
 767 1750 l 1,7,8
 673 1733 673 1733 610 1689 c 1,9,10
 541 1630 541 1630 537 1587 c 1,11,-1
 537 261 l 2,12,13
 537 136 537 136 626 110 c 1,14,15
 693 86 693 86 731 86 c 2,16,-1
 791 86 l 2,17,18
 814 86 814 86 824 65 c 1,19,-1
 824 61 l 2,20,21
 824 24 824 24 743 24 c 1,22,-1
 489 53 l 1,23,-1
 408 53 l 1,24,-1
 93 8 l 2,25,26
 80 3 80 3 61 0 c 0,27,28
 8 0 8 0 0 41 c 1,29,30
 0 65 0 65 129 77 c 1,31,32
 307 144 307 144 303 250 c 1,33,-1
 303 298 l 1,34,-1
 303 314 l 1,35,-1
 303 346 l 1,36,-1
 303 412 l 1,37,-1
 303 1073 l 1,38,-1
 303 1116 l 1,39,-1
 303 1166 l 1,40,-1
 303 1203 l 1,41,-1
 303 1285 l 1,42,-1
 303 1383 l 1,43,-1
 303 1411 l 1,44,-1
 303 1468 l 1,45,-1
 303 1489 l 1,46,-1
 303 1554 l 1,47,-1
 303 1619 l 2,48,49
 303 1720 303 1720 97 1738 c 1,50,-1
 57 1738 l 2,51,52
 32 1738 32 1738 32 1762 c 1,53,54
 47 1795 47 1795 73 1795 c 2,55,-1
 105 1795 l 1,56,-1
 416 1766 l 1,57,-1
 428 1766 l 1,58,-1
 775 1815 l 1,0,-1
EndSplineSet
Validated: 33
EndChar
StartChar: l
Encoding: 67 108 75
Width: 1648
GlyphClass: 1
Flags: W
LayerCount: 2
Fore
SplineSet
816 1780 m 1,0,1
 884 1785 884 1785 892 1744 c 0,2,3
 899 1700 899 1700 744 1704 c 0,4,5
 689 1704 689 1704 596 1636 c 1,6,7
 553 1595 553 1595 552 1544 c 2,8,-1
 552 100 l 1,9,-1
 552 88 l 1,10,-1
 1212 88 l 1,11,12
 1316 102 1316 102 1316 164 c 2,13,-1
 1316 188 l 2,14,15
 1316 206 1316 206 1244 340 c 0,16,17
 1204 422 1204 422 1204 508 c 0,18,19
 1204 591 1204 591 1256 648 c 1,20,21
 1269 644 1269 644 1272 632 c 2,22,-1
 1268 584 l 1,23,24
 1268 420 1268 420 1448 276 c 1,25,26
 1546 150 1546 150 1552 84 c 1,27,-1
 1552 72 l 2,28,29
 1551 17 1551 17 1532 12 c 1,30,-1
 436 12 l 1,31,-1
 256 0 l 1,32,-1
 168 0 l 1,33,34
 24 12 24 12 24 36 c 2,35,-1
 24 44 l 2,36,37
 22 62 22 62 61 68 c 1,38,-1
 80 68 l 2,39,40
 292 68 292 68 295 224 c 2,41,-1
 295 1544 l 2,42,43
 296 1674 296 1674 76 1700 c 1,44,-1
 32 1700 l 2,45,46
 0 1700 0 1700 0 1724 c 2,47,-1
 0 1728 l 2,48,49
 0 1764 0 1764 68 1764 c 1,50,-1
 368 1736 l 1,51,-1
 416 1736 l 1,52,-1
 804 1780 l 1,53,-1
 816 1780 l 1,0,1
EndSplineSet
Validated: 33
Substitution2: "Flourishes-2" L.002
EndChar
StartChar: n
Encoding: 69 110 77
Width: 2038
GlyphClass: 1
Flags: W
LayerCount: 2
Fore
SplineSet
1844 1800 m 1,0,-1
 1876 1800 l 1,1,2
 1956 1787 1956 1787 1956 1764 c 0,3,4
 1956 1749 1956 1749 1916 1740 c 1,5,-1
 1860 1740 l 1,6,7
 1703 1720 1703 1720 1645 1645 c 1,8,-1
 1624 1601 l 1,9,-1
 1621 1568 l 1,10,-1
 1620 284 l 1,11,-1
 1620 1 l 1,12,-1
 1615 1 l 2,13,14
 1604 0 1604 0 1508 132 c 1,15,16
 1472 168 1472 168 1324 364 c 1,17,18
 937 827 937 827 480 1404 c 1,19,-1
 460 1424 l 1,20,-1
 449 1438 l 1,21,-1
 448 1438 l 1,22,-1
 448 248 l 2,23,24
 448 133 448 133 544 96 c 1,25,26
 631 72 631 72 688 72 c 2,27,-1
 752 72 l 2,28,29
 776 72 776 72 784 48 c 1,30,31
 772 16 772 16 720 16 c 1,32,-1
 424 44 l 2,33,34
 386 44 386 44 160 0 c 1,35,36
 64 6 64 6 64 32 c 1,37,38
 76 60 76 60 100 60 c 2,39,-1
 104 60 l 1,40,-1
 144 56 l 1,41,42
 232 56 232 56 328 132 c 1,43,44
 364 183 364 183 364 200 c 2,45,-1
 364 1517 l 1,46,47
 255 1672 255 1672 160 1672 c 1,48,-1
 20 1692 l 1,49,-1
 0 1712 l 1,50,-1
 0 1752 l 2,51,52
 0 1760 0 1760 28 1768 c 1,53,-1
 300 1732 l 1,54,-1
 328 1732 l 1,55,-1
 504 1756 l 1,56,57
 532 1744 532 1744 644 1600 c 1,58,-1
 1540 508 l 1,59,-1
 1548 500 l 1,60,-1
 1548 1600 l 1,61,62
 1533 1664 1533 1664 1475 1696 c 0,63,64
 1430 1724 1430 1724 1343 1728 c 128,-1,65
 1256 1732 1256 1732 1256 1756 c 0,66,67
 1253 1783 1253 1783 1344 1780 c 1,68,-1
 1588 1756 l 1,69,-1
 1600 1756 l 2,70,71
 1686 1756 1686 1756 1844 1800 c 1,0,-1
EndSplineSet
Validated: 33
EndChar
StartChar: o
Encoding: 70 111 78
Width: 2004
GlyphClass: 1
Flags: W
LayerCount: 2
Fore
SplineSet
976 1796 m 0,0,1
 1237 1796 1237 1796 1436 1688 c 1,2,3
 1591 1613 1591 1613 1724 1472 c 1,4,5
 1948 1224 1948 1224 1948 916 c 2,6,-1
 1948 900 l 2,7,8
 1948 535 1948 535 1596 224 c 1,9,10
 1410 92 1410 92 1252 44 c 0,11,12
 1096 -5 1096 -5 980 0 c 1,13,14
 491 0 491 0 188 340 c 1,15,16
 0 584 0 584 0 824 c 2,17,-1
 0 872 l 2,18,19
 0 1292 0 1292 388 1604 c 1,20,21
 668 1796 668 1796 976 1796 c 0,0,1
244 1016 m 2,22,-1
 244 948 l 2,23,24
 244 641 244 641 508 320 c 1,25,26
 704 136 704 136 856 100 c 0,27,28
 961 72 961 72 1084 72 c 1,29,-1
 1114 73 l 1,30,-1
 1145 76 l 1,31,32
 1368 123 1368 123 1480 228 c 1,33,34
 1720 440 1720 440 1720 788 c 0,35,36
 1720 1330 1720 1330 1236 1628 c 1,37,38
 1054 1724 1054 1724 884 1724 c 2,39,-1
 868 1724 l 2,40,41
 452 1724 452 1724 280 1248 c 1,42,43
 244 1121 244 1121 244 1016 c 2,22,-1
EndSplineSet
Validated: 33
EndChar
StartChar: q
Encoding: 72 113 80
Width: 2004
GlyphClass: 1
Flags: W
LayerCount: 2
Fore
SplineSet
976 1796 m 0,0,1
 1237 1796 1237 1796 1436 1688 c 1,2,3
 1590.99951172 1613 1590.99951172 1613 1724 1472 c 1,4,5
 1947.99951172 1224.00048828 1947.99951172 1224.00048828 1948 916 c 2,6,-1
 1948 900 l 2,7,8
 1948 535.000488281 1948 535.000488281 1596 224 c 0,9,10
 1585.50103753 216.549241166 1585.50103753 216.549241166 1562.61523438 201.033203125 c 1,11,-1
 1643 198 l 1,12,-1
 1655 198 l 2,13,14
 1787 198 1787 198 1971 238 c 1,15,16
 1987.99951172 233.000488281 1987.99951172 233.000488281 1995 218 c 1,17,18
 1995 150.999511719 1995 150.999511719 1739 125 c 1,19,20
 1596.84558867 122.563223136 1596.84558867 122.563223136 1445.46679688 128.60546875 c 1,21,22
 1342.98727447 71.6414834386 1342.98727447 71.6414834386 1252 44 c 0,23,24
 1096 -5.00048828125 1096 -5.00048828125 980 0 c 1,25,26
 491 0 491 0 188 340 c 1,27,28
 0.00048828125 583.999023438 0.00048828125 583.999023438 0 824 c 2,29,-1
 0 872 l 2,30,31
 0 1292 0 1292 388 1604 c 1,32,33
 667.999023438 1796 667.999023438 1796 976 1796 c 0,0,1
868 1724 m 2,34,35
 452.000488281 1724 452.000488281 1724 280 1248 c 1,36,37
 244 1120.99951172 244 1120.99951172 244 1016 c 2,38,-1
 244 948 l 2,39,40
 244 641.000976562 244 641.000976562 508 320 c 1,41,42
 704.000488281 136.000976562 704.000488281 136.000976562 856 100 c 0,43,44
 961 71.9995117188 961 71.9995117188 1084 72 c 1,45,-1
 1114 73 l 1,46,-1
 1145 76 l 1,47,48
 1250.54719202 98.2459576642 1250.54719202 98.2459576642 1332.58398438 134.318359375 c 1,49,50
 1174.37497815 143.943349906 1174.37497815 143.943349906 1019 162 c 1,51,52
 881 171 881 171 836 158 c 1,53,54
 819.999511719 162.000488281 819.999511719 162.000488281 820 183 c 0,55,56
 820 223.000488281 820 223.000488281 904 227 c 1,57,58
 952 234.999511719 952 234.999511719 1060 235 c 1,59,-1
 1219 214 l 1,60,-1
 1453.20507812 205.162109375 l 1,61,62
 1468.77499568 217.4762326 1468.77499568 217.4762326 1480 228 c 0,63,64
 1720 439.999511719 1720 439.999511719 1720 788 c 0,65,66
 1720 1329.99951172 1720 1329.99951172 1236 1628 c 1,67,68
 1054.00048828 1724 1054.00048828 1724 884 1724 c 2,69,-1
 868 1724 l 2,34,35
EndSplineSet
Validated: 33
EndChar
StartChar: s
Encoding: 74 115 82
Width: 1474
GlyphClass: 1
Flags: W
LayerCount: 2
Fore
SplineSet
688 1792 m 2,0,-1
 716 1792 l 2,1,2
 837 1792 837 1792 1000 1696 c 1,3,-1
 1060 1684 l 1,4,5
 1129 1684 1129 1684 1248 1784 c 1,6,-1
 1252 1784 l 1,7,-1
 1264 1772 l 1,8,-1
 1264 1764 l 2,9,10
 1264 1755 1264 1755 1136 1648 c 0,11,12
 1064 1586 1064 1586 1064 1404 c 0,13,14
 1064 1309 1064 1309 1020 1260 c 1,15,-1
 1016 1260 l 1,16,-1
 1016 1268 l 1,17,-1
 1012 1268 l 1,18,-1
 1020 1428 l 1,19,20
 1020 1619 1020 1619 928 1656 c 1,21,22
 848 1712 848 1712 748 1712 c 2,23,-1
 732 1712 l 2,24,25
 554 1712 554 1712 488 1564 c 0,26,27
 472 1536 472 1536 472 1492 c 2,28,-1
 472 1468 l 2,29,30
 472 1335 472 1335 768 1176 c 1,31,32
 1142 937 1142 937 1244 848 c 1,33,34
 1365 719 1365 719 1388 628 c 1,35,-1
 1408 524 l 1,36,-1
 1404 512 l 1,37,38
 1404 223 1404 223 1060 68 c 1,39,40
 943 24 943 24 836 24 c 2,41,-1
 788 24 l 2,42,43
 566 24 566 24 352 184 c 1,44,45
 289 216 289 216 264 216 c 2,46,-1
 244 216 l 2,47,48
 153 216 153 216 28 0 c 1,49,-1
 16 0 l 1,50,-1
 0 16 l 1,51,52
 11 92 11 92 196 336 c 0,53,54
 249 412 249 412 288 532 c 0,55,56
 336 679 336 679 336 840 c 1,57,-1
 348 852 l 1,58,-1
 356 852 l 2,59,60
 370 852 370 852 376 808 c 1,61,-1
 376 716 l 1,62,-1
 352 440 l 1,63,64
 352 192 352 192 636 120 c 1,65,66
 664 108 664 108 736 108 c 2,67,-1
 740 108 l 2,68,69
 1092 108 1092 108 1196 368 c 1,70,-1
 1208 440 l 1,71,72
 1208 661 1208 661 900 828 c 1,73,74
 514 1078 514 1078 460 1120 c 0,75,76
 296 1260 296 1260 296 1404 c 2,77,-1
 296 1424 l 2,78,79
 296 1669 296 1669 580 1776 c 1,80,81
 643 1792 643 1792 688 1792 c 2,0,-1
EndSplineSet
Validated: 1
EndChar
StartChar: v
Encoding: 77 118 85
Width: 2055
GlyphClass: 1
Flags: W
LayerCount: 2
Fore
SplineSet
768 1791 m 2,0,1
 784 1792 784 1792 785 1768 c 1,2,-1
 784 1768 l 1,3,4
 784 1732 784 1732 676 1732 c 1,5,6
 536 1713 536 1713 527 1636 c 1,7,-1
 540 1594 l 1,8,-1
 736 1136 l 1,9,-1
 1076 368 l 1,10,-1
 1079 359 l 1,11,12
 1096 375 1096 375 1188 604 c 1,13,14
 1304 853 1304 853 1552 1424 c 1,15,16
 1608 1527 1608 1527 1608 1572 c 2,17,-1
 1608 1604 l 2,18,19
 1608 1684 1608 1684 1504 1716 c 1,20,-1
 1464 1724 l 1,21,-1
 1380 1724 l 1,22,-1
 1368 1736 l 1,23,-1
 1368 1740 l 2,24,25
 1368 1780 1368 1780 1440 1780 c 2,26,-1
 1452 1780 l 2,27,28
 1517 1780 1517 1780 1648 1748 c 1,29,30
 1729 1744 1729 1744 1903 1786 c 1,31,32
 1968 1790 1968 1790 1960 1760 c 1,33,34
 1960 1742 1960 1742 1868 1728 c 1,35,36
 1742 1662 1742 1662 1688 1540 c 2,37,-1
 1312 688 l 1,38,39
 1140 315 1140 315 1011 10 c 1,40,-1
 1004 0 l 1,41,42
 991 16 991 16 948 120 c 2,43,-1
 636 828 l 1,44,-1
 424 1304 l 1,45,46
 304 1584 304 1584 260 1656 c 1,47,48
 213 1724 213 1724 56 1724 c 0,49,50
 0 1724 0 1724 0 1748 c 256,51,52
 0 1772 0 1772 84 1788 c 1,53,-1
 136 1788 l 1,54,-1
 380 1748 l 1,55,56
 421 1748 421 1748 688 1788 c 1,57,-1
 757 1791 l 1,58,-1
 768 1791 l 2,0,1
EndSplineSet
Validated: 33
EndChar
StartChar: w
Encoding: 78 119 86
Width: 2945
GlyphClass: 1
Flags: W
LayerCount: 2
Fore
SplineSet
797 1774 m 0,1,2
 805 1735 805 1735 657 1723.5 c 128,-1,3
 509 1712 509 1712 526 1642 c 1,4,-1
 805 1012 l 1,5,-1
 1098 362 l 1,6,7
 1112 373 1112 373 1158 494 c 1,8,9
 1415 1054 1415 1054 1417 1083 c 1,10,-1
 1415 1092 l 1,11,12
 1228 1525 1228 1525 1167 1645 c 1,13,14
 1114 1726 1114 1726 992 1726 c 0,15,16
 890 1726 890 1726 890 1754 c 0,17,18
 890 1778 890 1778 976 1794 c 1,19,-1
 1028 1794 l 1,20,-1
 1276 1754 l 1,21,22
 1353 1754 1353 1754 1443 1786 c 1,23,-1
 1480 1790 l 1,24,25
 1549 1782 1549 1782 1675 1754 c 1,26,27
 1734 1754 1734 1754 1955 1790 c 1,28,29
 1992 1785 1992 1785 1992 1766 c 256,30,31
 1992 1747 1992 1747 1915 1738 c 1,32,33
 1797 1695 1797 1695 1719 1558 c 1,34,35
 1593 1274 1593 1274 1593 1256 c 1,36,-1
 1591 1248 l 1,37,38
 1977 373 1977 373 1988 369 c 1,39,40
 1987 349 1987 349 2065 534 c 1,41,42
 2163 737 2163 737 2189 794 c 128,-1,43
 2215 851 2215 851 2350 1167 c 1,44,-1
 2512 1525 l 1,45,46
 2524 1562 2524 1562 2524 1589 c 2,47,-1
 2524 1609 l 1,48,49
 2513 1677 2513 1677 2470 1699 c 128,-1,50
 2427 1721 2427 1721 2366 1730 c 1,51,-1
 2293 1730 l 1,52,-1
 2280 1742 l 1,53,-1
 2280 1746 l 2,54,55
 2280 1786 2280 1786 2354 1786 c 2,56,-1
 2366 1786 l 2,57,58
 2431 1786 2431 1786 2565 1754 c 1,59,60
 2643 1744 2643 1744 2801 1790 c 1,61,62
 2884 1799 2884 1799 2882 1766 c 0,63,64
 2882 1750 2882 1750 2784 1730 c 1,65,66
 2678 1680 2678 1680 2618 1570 c 1,67,-1
 2223 686 l 1,68,69
 2049 319 2049 319 1919 8 c 1,70,-1
 1910 0 l 1,71,72
 1900 0 1900 0 1850 121 c 0,73,74
 1532 846 1532 846 1467 967 c 1,75,-1
 1461 979 l 1,76,-1
 1313 643 l 1,77,78
 1191 387 1191 387 1114.5 217.5 c 128,-1,79
 1038 48 1038 48 1020 0 c 1,80,81
 1010 0 1010 0 959 121 c 0,82,83
 337 1524 337 1524 276 1645 c 1,84,85
 220 1725 220 1725 102 1726 c 0,86,87
 0 1726 0 1726 0 1754 c 0,88,89
 0 1778 0 1778 85 1794 c 1,90,-1
 138 1794 l 1,91,-1
 386 1754 l 1,92,93
 428 1754 428 1754 699 1794 c 1,94,-1
 772 1794 l 1,95,0
 797 1790 797 1790 797 1774 c 0,1,2
1412 1636 m 1,96,-1
 1412 1588 l 1,97,98
 1431 1491 1431 1491 1516 1357 c 1,99,-1
 1520 1357 l 1,100,101
 1608 1512 1608 1512 1608 1580 c 2,102,-1
 1608 1600 l 2,103,104
 1608 1686 1608 1686 1516 1708 c 1,105,-1
 1476 1708 l 2,106,107
 1431 1708 1431 1708 1412 1636 c 1,96,-1
EndSplineSet
Validated: 33
EndChar
StartChar: z
Encoding: 81 122 89
Width: 1682
GlyphClass: 1
Flags: W
LayerCount: 2
Fore
SplineSet
36 1800 m 2,0,-1
 1556 1800 l 2,1,2
 1590 1799 1590 1799 1585 1750 c 1,3,-1
 280 92 l 1,4,-1
 280 76 l 1,5,-1
 468 76 l 1,6,-1
 506 76 l 1,7,-1
 540 76 l 1,8,-1
 640 76 l 1,9,-1
 936 76 l 1,10,-1
 1152 76 l 1,11,-1
 1248 76 l 1,12,13
 1368 86 1368 86 1368 148 c 2,14,-1
 1368 156 l 2,15,16
 1368 200 1368 200 1296 320 c 1,17,18
 1252 412 1252 412 1252 484 c 2,19,-1
 1252 500 l 1,20,21
 1264 620 1264 620 1296 620 c 1,22,-1
 1296 616 l 1,23,-1
 1300 600 l 1,24,-1
 1300 588 l 2,25,26
 1300 480 1300 480 1348 412 c 1,27,28
 1348 392 1348 392 1500 228 c 1,29,30
 1572 130 1572 130 1580 56 c 1,31,32
 1580 0 1580 0 1544 0 c 2,33,-1
 12 0 l 1,34,-1
 0 12 l 1,35,-1
 0 64 l 1,36,-1
 1300 1708 l 1,37,-1
 1312 1724 l 1,38,-1
 1131 1724 l 1,39,-1
 1060 1724 l 1,40,-1
 965 1724 l 1,41,-1
 883 1724 l 1,42,-1
 704 1724 l 1,43,-1
 527 1724 l 1,44,-1
 483 1724 l 1,45,-1
 451 1724 l 1,46,-1
 336 1724 l 1,47,48
 212 1718 212 1718 212 1652 c 2,49,-1
 212 1644 l 2,50,51
 212 1596 212 1596 292 1468 c 1,52,53
 328 1378 328 1378 328 1308 c 2,54,-1
 328 1304 l 1,55,56
 311 1184 311 1184 296 1184 c 2,57,-1
 280 1184 l 1,58,-1
 280 1216 l 2,59,60
 280 1386 280 1386 116 1528 c 1,61,62
 0 1671 0 1671 0 1740 c 0,63,64
 0 1800 0 1800 36 1800 c 2,0,-1
EndSplineSet
Validated: 1
EndChar
StartChar: braceleft
Encoding: 82 123 90
Width: 1014
GlyphClass: 1
Flags: W
LayerCount: 2
Fore
SplineSet
240 698 m 1,0,1
 412 703 412 703 463 769 c 128,-1,2
 514 835 514 835 514 902 c 2,3,-1
 514 1370 l 2,4,5
 514 1444 514 1444 591 1511.5 c 128,-1,6
 668 1579 668 1579 776 1579 c 2,7,-1
 884 1579 l 1,8,-1
 884 1529 l 1,9,-1
 794 1529 l 2,10,11
 733 1529 733 1529 687 1495.5 c 128,-1,12
 641 1462 641 1462 640 1404 c 2,13,-1
 640 904 l 2,14,15
 640 821 640 821 579.5 745.5 c 128,-1,16
 519 670 519 670 437 669 c 1,17,-1
 437 667 l 1,18,19
 519 666 519 666 580 591 c 128,-1,20
 641 516 641 516 641 433 c 2,21,-1
 640 -67 l 2,22,23
 641 -125 641 -125 687 -158.5 c 128,-1,24
 733 -192 733 -192 794 -192 c 2,25,-1
 884 -192 l 1,26,-1
 884 -242 l 1,27,-1
 776 -242 l 2,28,29
 668 -242 668 -242 591.5 -174.5 c 128,-1,30
 515 -107 515 -107 514 -33 c 2,31,-1
 514 435 l 2,32,33
 514 501 514 501 463 567 c 128,-1,34
 412 633 412 633 240 638 c 1,35,-1
 240 698 l 1,0,1
EndSplineSet
Validated: 1
EndChar
StartChar: braceright
Encoding: 83 125 92
Width: 1014
GlyphClass: 1
Flags: W
LayerCount: 2
Fore
SplineSet
774 638 m 1,0,1
 602 633 602 633 551 567 c 128,-1,2
 500 501 500 501 500 435 c 2,3,-1
 500 -33 l 2,4,5
 499 -107 499 -107 422.5 -174.5 c 128,-1,6
 346 -242 346 -242 238 -242 c 2,7,-1
 130 -242 l 1,8,-1
 130 -192 l 1,9,-1
 220 -192 l 2,10,11
 281 -192 281 -192 327 -158.5 c 128,-1,12
 373 -125 373 -125 374 -67 c 2,13,-1
 373 433 l 2,14,15
 373 516 373 516 434 591 c 128,-1,16
 495 666 495 666 578 667 c 1,17,-1
 578 669 l 1,18,19
 495 670 495 670 434.5 745.5 c 128,-1,20
 374 821 374 821 374 904 c 2,21,-1
 374 1404 l 2,22,23
 373 1462 373 1462 327 1495.5 c 128,-1,24
 281 1529 281 1529 220 1529 c 2,25,-1
 130 1529 l 1,26,-1
 130 1579 l 1,27,-1
 238 1579 l 2,28,29
 346 1579 346 1579 423 1511.5 c 128,-1,30
 500 1444 500 1444 500 1370 c 2,31,-1
 500 902 l 2,32,33
 500 835 500 835 551 769 c 128,-1,34
 602 703 602 703 774 698 c 1,35,-1
 774 638 l 1,0,1
EndSplineSet
Validated: 1
EndChar
StartChar: asciitilde
Encoding: 84 126 93
Width: 1555
GlyphClass: 1
Flags: W
LayerCount: 2
Fore
SplineSet
1065 1099 m 2,0,-1
 1075 1099 l 2,1,2
 1306 1099 1306 1099 1425 881 c 1,3,4
 1462 773 1462 773 1462 708 c 1,5,6
 1440 524 1440 524 1440 456 c 1,7,-1
 1443 433 l 1,8,-1
 1435 433 l 1,9,-1
 1435 431 l 1,10,11
 1369 450 1369 450 1369 501 c 1,12,-1
 1360 501 l 1,13,14
 1265 374 1265 374 1101 331 c 1,15,-1
 1038 323 l 1,16,17
 965 323 965 323 719 411 c 0,18,19
 682 425 682 425 651 425 c 2,20,-1
 646 425 l 2,21,22
 607 425 607 425 553 408 c 1,23,-1
 548 411 l 1,24,25
 609 496 609 496 712 496 c 2,26,-1
 738 496 l 1,27,-1
 738 504 l 1,28,29
 612 694 612 694 526 785 c 1,30,31
 417 864 417 864 300 864 c 2,32,-1
 283 864 l 2,33,34
 149 864 149 864 98 785 c 0,35,36
 68 739 68 739 68 714 c 2,37,-1
 68 697 l 2,38,39
 68 626 68 626 156 603 c 1,40,41
 285 618 285 618 285 697 c 2,42,-1
 285 705 l 1,43,-1
 278 745 l 1,44,-1
 283 745 l 1,45,46
 373 697 373 697 373 620 c 0,47,48
 373 564 373 564 310 490 c 1,49,-1
 319 408 l 1,50,-1
 300 354 l 1,51,-1
 295 354 l 1,52,53
 232 450 232 450 185 450 c 1,54,55
 5 516 5 516 5 674 c 0,56,57
 5 748 5 748 112 855 c 1,58,-1
 112 864 l 1,59,60
 27 898 27 898 27 989 c 1,61,-1
 37 989 l 1,62,63
 63 952 63 952 268 952 c 0,64,65
 483 952 483 952 558 855 c 1,66,67
 638 770 638 770 760 564 c 1,68,-1
 765 558 l 1,69,-1
 775 558 l 1,70,71
 797 657 797 657 821 677 c 1,72,-1
 826 677 l 1,73,-1
 826 620 l 2,74,75
 826 513 826 513 1002 448 c 1,76,-1
 1084 439 l 1,77,78
 1216 439 1216 439 1287 518 c 1,79,-1
 1287 527 l 1,80,81
 1189 527 1189 527 1172 643 c 1,82,-1
 1177 654 l 1,83,-1
 1182 654 l 1,84,85
 1209 635 1209 635 1235 635 c 2,86,-1
 1245 635 l 2,87,88
 1350 635 1350 635 1374 785 c 1,89,-1
 1374 816 l 2,90,91
 1374 969 1374 969 1157 1037 c 1,92,-1
 1094 1045 l 1,93,-1
 1043 1045 l 1,94,95
 882 1020 882 1020 882 932 c 0,96,97
 882 875 882 875 936 864 c 1,98,-1
 982 864 l 2,99,100
 1019 864 1019 864 1028 912 c 1,101,-1
 1033 912 l 2,102,103
 1043 912 1043 912 1055 858 c 1,104,105
 1055 770 1055 770 931 745 c 1,106,107
 831 745 831 745 790 819 c 0,108,109
 770 861 770 861 770 895 c 2,110,-1
 770 935 l 1,111,112
 724 935 724 935 682 983 c 1,113,-1
 682 991 l 1,114,-1
 702 991 l 2,115,116
 809 991 809 991 955 1074 c 1,117,118
 1023 1099 1023 1099 1065 1099 c 2,0,-1
EndSplineSet
Validated: 1
EndChar
StartChar: sterling
Encoding: 85 163 94
Width: 1014
GlyphClass: 1
Flags: W
LayerCount: 2
Fore
SplineSet
748 1347 m 1,0,1
 676 1378 676 1378 588 1378 c 2,2,-1
 586 1378 l 2,3,4
 486 1378 486 1378 396 1277 c 0,5,6
 312 1184 312 1184 312 1036 c 0,7,8
 312 1021 312 1021 313 1006 c 0,9,10
 313 871 313 871 366 733 c 1,11,-1
 726 733 l 1,12,-1
 726 673 l 1,13,-1
 392 673 l 1,14,15
 406 643 406 643 423 613 c 0,16,17
 458 550 458 550 458 475 c 0,18,19
 458 314 458 314 296 100 c 1,20,-1
 698 100 l 2,21,22
 828 100 828 100 887 232 c 1,23,-1
 936 231 l 1,24,-1
 833 0 l 1,25,-1
 114 0 l 1,26,-1
 115 50 l 1,27,28
 302 288 302 288 302 468 c 0,29,30
 302 545 302 545 268 611 c 0,31,32
 251 643 251 643 237 673 c 1,33,-1
 76 673 l 1,34,-1
 76 733 l 1,35,-1
 211 733 l 1,36,37
 153 876 153 876 153 986 c 0,38,39
 153 1212 153 1212 276.5 1333 c 128,-1,40
 400 1454 400 1454 583 1454 c 2,41,-1
 587 1454 l 2,42,43
 662 1454 662 1454 772.5 1440 c 128,-1,44
 883 1426 883 1426 883 1406 c 2,45,-1
 883 1245 l 1,46,-1
 825 1245 l 1,47,48
 820 1306 820 1306 748 1347 c 1,0,1
EndSplineSet
Validated: 1
EndChar
StartChar: currency
Encoding: 86 164 95
Width: 1014
GlyphClass: 1
Flags: W
LayerCount: 2
Fore
SplineSet
350 560 m 0,0,1
 391 520 391 520 449 503 c 0,2,3
 478 495 478 495 507 495 c 256,4,5
 536 495 536 495 565 503 c 0,6,7
 623 520 623 520 664 560 c 0,8,9
 704 601 704 601 721 659 c 0,10,11
 730 688 730 688 730 717 c 256,12,13
 730 746 730 746 721 775 c 0,14,15
 704 833 704 833 664 874 c 0,16,17
 623 914 623 914 564 931 c 0,18,19
 535 939 535 939 506 939 c 256,20,21
 477 939 477 939 448 930 c 0,22,23
 390 913 390 913 350 874 c 0,24,25
 311 834 311 834 294 776 c 0,26,27
 284 746 284 746 284 716 c 0,28,29
 284 688 284 688 293 660 c 0,30,31
 309 601 309 601 350 560 c 0,0,1
240 903 m 1,32,-1
 122 1021 l 1,33,-1
 202 1102 l 1,34,-1
 320 984 l 1,35,36
 364 1014 364 1014 419 1030 c 0,37,38
 463 1044 463 1044 508 1044 c 0,39,40
 549 1044 549 1044 591 1032 c 0,41,42
 648 1015 648 1015 693 984 c 1,43,-1
 811 1102 l 1,44,-1
 891 1021 l 1,45,-1
 774 904 l 1,46,47
 805 858 805 858 822 802 c 0,48,49
 834 760 834 760 834 717 c 0,50,51
 834 675 834 675 822 632 c 0,52,53
 805 576 805 576 774 530 c 1,54,-1
 891 413 l 1,55,-1
 811 332 l 1,56,-1
 693 450 l 1,57,58
 648 418 648 418 592 402 c 0,59,60
 550 390 550 390 507 390 c 0,61,62
 465 390 465 390 422 402 c 0,63,64
 365 418 365 418 320 450 c 1,65,-1
 202 332 l 1,66,-1
 122 413 l 1,67,-1
 240 530 l 1,68,69
 208 576 208 576 192 633 c 0,70,71
 180 675 180 675 180 717 c 0,72,73
 180 761 180 761 193 804 c 0,74,75
 209 859 209 859 240 903 c 1,32,-1
EndSplineSet
Validated: 1
EndChar
StartChar: yen
Encoding: 87 165 96
Width: 1262
GlyphClass: 1
Flags: W
LayerCount: 2
Fore
SplineSet
547 225 m 2,0,-1
 545 467 l 2,1,2
 545 486 545 486 543.5 502 c 128,-1,3
 542 518 542 518 539 534 c 1,4,-1
 55 535 l 2,5,6
 41 535 41 535 34 541.5 c 128,-1,7
 27 548 27 548 27 561 c 256,8,9
 27 574 27 574 33.5 580 c 128,-1,10
 40 586 40 586 55 586 c 2,11,-1
 522 586 l 1,12,-1
 401 758 l 1,13,-1
 57 758 l 2,14,15
 40 758 40 758 33.5 763.5 c 128,-1,16
 27 769 27 769 27 782 c 0,17,18
 27 796 27 796 33 801.5 c 128,-1,19
 39 807 39 807 55 807 c 2,20,-1
 362 807 l 1,21,22
 319 864 319 864 254 962 c 0,23,24
 123 1159 123 1159 27 1159 c 0,25,26
 20 1159 20 1159 14 1164.5 c 128,-1,27
 8 1170 8 1170 8 1176 c 0,28,29
 8 1195 8 1195 18.5 1203.5 c 128,-1,30
 29 1212 29 1212 51 1212 c 0,31,32
 78 1212 78 1212 174 1204 c 128,-1,33
 270 1196 270 1196 338 1196 c 2,34,-1
 395 1196 l 1,35,-1
 426 1196 l 2,36,37
 459 1196 459 1196 467 1189.5 c 128,-1,38
 475 1183 475 1183 475 1163 c 0,39,40
 475 1155 475 1155 460 1149 c 128,-1,41
 445 1143 445 1143 422 1143 c 0,42,43
 416 1143 416 1143 403.5 1145 c 128,-1,44
 391 1147 391 1147 385 1147 c 0,45,46
 361 1147 361 1147 347.5 1137.5 c 128,-1,47
 334 1128 334 1128 334 1112 c 0,48,49
 334 1094 334 1094 350.5 1060 c 128,-1,50
 367 1026 367 1026 397 983 c 2,51,-1
 555 762 l 2,52,53
 568 743 568 743 588 709 c 0,54,55
 629 639 629 639 659 639 c 0,56,57
 668 639 668 639 675.5 644 c 128,-1,58
 683 649 683 649 690 659 c 2,59,-1
 967 1055 l 2,60,61
 975 1067 975 1067 980 1081.5 c 128,-1,62
 985 1096 985 1096 985 1106 c 0,63,64
 985 1124 985 1124 975 1133 c 128,-1,65
 965 1142 965 1142 938 1147 c 0,66,67
 923 1149 923 1149 897 1151 c 0,68,69
 850 1154 850 1154 850 1176 c 0,70,71
 850 1191 850 1191 858 1198.5 c 128,-1,72
 866 1206 866 1206 883 1206 c 0,73,74
 886 1206 886 1206 898 1205 c 0,75,76
 954 1198 954 1198 1006 1198 c 2,77,-1
 1145 1198 l 2,78,79
 1175 1198 1175 1198 1210 1199 c 128,-1,80
 1245 1200 1245 1200 1247 1200 c 0,81,82
 1258 1200 1258 1200 1265.5 1195.5 c 128,-1,83
 1273 1191 1273 1191 1274 1184 c 0,84,85
 1274 1156 1274 1156 1236 1150 c 0,86,87
 1218 1147 1218 1147 1209 1145 c 0,88,89
 1146 1130 1146 1130 1062 1028 c 0,90,91
 1055 1019 1055 1019 1050 1013 c 2,92,-1
 881 807 l 1,93,-1
 1204 807 l 2,94,95
 1219 807 1219 807 1228 801 c 128,-1,96
 1237 795 1237 795 1237 784 c 0,97,98
 1237 769 1237 769 1231 763.5 c 128,-1,99
 1225 758 1225 758 1208 758 c 2,100,-1
 842 758 l 1,101,102
 796 701 796 701 745.5 645.5 c 128,-1,103
 695 590 695 590 693 586 c 1,104,-1
 1204 586 l 2,105,106
 1222 586 1222 586 1229.5 580.5 c 128,-1,107
 1237 575 1237 575 1237 563 c 0,108,109
 1237 549 1237 549 1230 542 c 128,-1,110
 1223 535 1223 535 1208 535 c 2,111,-1
 678 535 l 1,112,113
 678 524 678 524 677 504.5 c 128,-1,114
 676 485 676 485 676 475 c 2,115,-1
 678 260 l 2,116,117
 678 146 678 146 683.5 110 c 128,-1,118
 689 74 689 74 704 66 c 0,119,120
 734 49 734 49 811.5 47 c 128,-1,121
 889 45 889 45 889 16 c 0,122,123
 889 4 889 4 879 -4 c 128,-1,124
 869 -12 869 -12 854 -12 c 0,125,126
 852 -12 852 -12 818.5 -8 c 128,-1,127
 785 -4 785 -4 754 -4 c 0,128,129
 663 -4 663 -4 545.5 -8 c 128,-1,130
 428 -12 428 -12 403 -12 c 0,131,132
 372 -12 372 -12 363 -8 c 128,-1,133
 354 -4 354 -4 354 8 c 256,134,135
 354 20 354 20 362 26.5 c 128,-1,136
 370 33 370 33 399 39 c 0,137,138
 408 41 408 41 424 44 c 0,139,140
 498 60 498 60 516 76 c 0,141,142
 533 89 533 89 540 123 c 128,-1,143
 547 157 547 157 547 225 c 2,0,-1
EndSplineSet
Validated: 1
EndChar
StartChar: section
Encoding: 88 167 97
Width: 1014
GlyphClass: 1
Flags: W
LayerCount: 2
Fore
SplineSet
545 321 m 1,0,1
 601 337 601 337 642 374 c 0,2,3
 715 439 715 439 715 540 c 0,4,5
 715 545 715 545 714 550 c 1,6,-1
 712 550 l 1,7,8
 711 564 711 564 708 577 c 0,9,10
 686 638 686 638 595 704 c 1,11,12
 536 733 536 733 469 733 c 0,13,14
 391 733 391 733 344 688.5 c 128,-1,15
 297 644 297 644 297 571 c 0,16,17
 297 448 297 448 545 321 c 1,0,1
466 -346 m 1,18,19
 579 -340 579 -340 651 -277 c 0,20,21
 723 -213 723 -213 723 -112 c 0,22,23
 723 13 723 13 407 164 c 1,24,25
 284 228 284 228 231.5 301 c 128,-1,26
 179 374 179 374 179 478 c 0,27,28
 179 626 179 626 268 715 c 0,29,30
 335 780 335 780 438 797 c 1,31,-1
 398 816 l 1,32,33
 275 880 275 880 222.5 953 c 128,-1,34
 170 1026 170 1026 170 1130 c 0,35,36
 170 1278 170 1278 259 1367 c 0,37,38
 341 1446 341 1446 475 1453 c 0,39,40
 483 1454 483 1454 492 1454 c 2,41,-1
 495 1454 l 2,42,43
 561 1454 561 1454 658 1437.5 c 128,-1,44
 755 1421 755 1421 755 1396 c 2,45,-1
 755 1202 l 1,46,-1
 704 1202 l 1,47,48
 699 1283 699 1283 624 1334 c 0,49,50
 554 1381 554 1381 475 1385 c 1,51,-1
 460 1385 l 2,52,53
 382 1385 382 1385 335 1340.5 c 128,-1,54
 288 1296 288 1296 288 1223 c 0,55,56
 288 1091 288 1091 575 954 c 0,57,58
 724 887 724 887 779.5 810.5 c 128,-1,59
 835 734 835 734 835 623 c 0,60,61
 835 452 835 452 734 341 c 1,62,63
 687 302 687 302 635 277 c 1,64,65
 743 221 743 221 789 159 c 0,66,67
 844 82 844 82 844 -28 c 0,68,69
 844 -199 844 -199 743 -311 c 1,70,71
 619 -413 619 -413 466 -416 c 1,72,-1
 466 -415 l 1,73,74
 460 -416 460 -416 453 -416 c 2,75,-1
 450 -416 l 2,76,77
 384 -416 384 -416 287 -399.5 c 128,-1,78
 190 -383 190 -383 190 -358 c 2,79,-1
 190 -164 l 1,80,-1
 241 -164 l 1,81,82
 246 -245 246 -245 321 -296 c 0,83,84
 389 -341 389 -341 466 -346 c 1,18,19
EndSplineSet
Validated: 1
EndChar
StartChar: dieresis
Encoding: 89 168 98
Width: 1024
GlyphClass: 1
Flags: W
LayerCount: 2
Fore
SplineSet
223 1289 m 2,0,-1
 294 1361 l 2,1,2
 307 1373 307 1373 319 1373 c 0,3,4
 330 1373 330 1373 346 1359 c 2,5,-1
 415 1286 l 2,6,7
 425 1272 425 1272 425 1261 c 0,8,9
 425 1248 425 1248 413 1234 c 2,10,-1
 344 1159 l 2,11,12
 327 1142 327 1142 319 1142 c 0,13,14
 305 1142 305 1142 294 1154 c 2,15,-1
 218 1240 l 2,16,17
 209 1252 209 1252 209 1263 c 0,18,19
 209 1276 209 1276 223 1289 c 2,0,-1
588 1289 m 2,20,-1
 659 1361 l 2,21,22
 672 1373 672 1373 684 1373 c 0,23,24
 695 1373 695 1373 711 1360 c 2,25,-1
 780 1286 l 2,26,27
 790 1272 790 1272 790 1261 c 0,28,29
 790 1248 790 1248 778 1235 c 2,30,-1
 709 1159 l 2,31,32
 692 1142 692 1142 684 1142 c 0,33,34
 670 1142 670 1142 659 1154 c 2,35,-1
 583 1241 l 2,36,37
 574 1252 574 1252 574 1263 c 0,38,39
 574 1276 574 1276 588 1289 c 2,20,-1
EndSplineSet
Validated: 1
EndChar
StartChar: copyright
Encoding: 90 169 99
Width: 1674
GlyphClass: 1
Flags: W
LayerCount: 2
Fore
SplineSet
840 1456 m 0,0,1
 985 1456 985 1456 1120 1399.5 c 128,-1,2
 1255 1343 1255 1343 1359 1239 c 0,3,4
 1461 1138 1461 1138 1517.5 1001 c 128,-1,5
 1574 864 1574 864 1574 718 c 0,6,7
 1574 571 1574 571 1517.5 436 c 128,-1,8
 1461 301 1461 301 1355 196 c 0,9,10
 1250 91 1250 91 1116 36.5 c 128,-1,11
 982 -18 982 -18 833 -18 c 0,12,13
 687 -18 687 -18 555 37.5 c 128,-1,14
 423 93 423 93 317 198 c 0,15,16
 211 302 211 302 155.5 435.5 c 128,-1,17
 100 569 100 569 100 718 c 0,18,19
 100 866 100 866 155.5 1001 c 128,-1,20
 211 1136 211 1136 315 1239 c 0,21,22
 417 1343 417 1343 553.5 1399.5 c 128,-1,23
 690 1456 690 1456 840 1456 c 0,0,1
357 1197 m 256,24,25
 262 1101 262 1101 211 977.5 c 128,-1,26
 160 854 160 854 160 718 c 0,27,28
 160 581 160 581 211 459 c 128,-1,29
 262 337 262 337 359 240 c 0,30,31
 457 144 457 144 578 93 c 128,-1,32
 699 42 699 42 834 42 c 0,33,34
 971 42 971 42 1093.5 92.5 c 128,-1,35
 1216 143 1216 143 1313 238 c 0,36,37
 1410 336 1410 336 1462 459.5 c 128,-1,38
 1514 583 1514 583 1514 718 c 0,39,40
 1514 852 1514 852 1462 977.5 c 128,-1,41
 1410 1103 1410 1103 1317 1197 c 0,42,43
 1221 1293 1221 1293 1097 1344.5 c 128,-1,44
 973 1396 973 1396 839 1396 c 0,45,46
 702 1396 702 1396 577 1344.5 c 128,-1,47
 452 1293 452 1293 357 1197 c 256,24,25
1308 1181 m 0,49,50
 1308 1141 1308 1141 1193 1030 c 1,51,52
 1144 971 1144 971 1123 890 c 1,53,54
 1108 850 1108 850 1071 706 c 1,55,-1
 1062 698 l 1,56,-1
 1060 698 l 1,57,58
 1049 703 1049 703 1049 715 c 2,59,-1
 1081 919 l 1,60,-1
 1082 959 l 2,61,62
 1082 1033 1082 1033 1042 1066 c 1,63,64
 1013 1098 1013 1098 944 1125 c 0,65,66
 919 1134 919 1134 883 1134 c 2,67,-1
 873 1134 l 1,68,-1
 857 1134 l 2,69,70
 646 1134 646 1134 548 937 c 0,71,72
 494 826 494 826 494 686 c 0,73,74
 494 444 494 444 705 292 c 1,75,76
 783 243 783 243 892 243 c 0,77,78
 1107 243 1107 243 1241 436 c 1,79,-1
 1249 443 l 1,80,-1
 1256 443 l 2,81,82
 1263 442 1263 442 1264 425 c 1,83,84
 1250 385 1250 385 1158 299 c 1,85,86
 1049 216 1049 216 923 205 c 0,87,88
 918 203 918 203 855 201 c 2,89,-1
 838 201 l 1,90,-1
 820 201 l 2,91,92
 713 201 713 201 577 279 c 1,93,94
 450 364 450 364 391 514 c 1,95,96
 370 581 370 581 361 649 c 1,97,-1
 361 711 l 2,98,99
 361 964 361 964 635 1119 c 0,100,101
 720 1165 720 1165 820 1170 c 1,102,-1
 823 1170 l 2,103,104
 901 1170 901 1170 964 1152 c 0,105,106
 1000 1140 1000 1140 1009 1134.5 c 128,-1,107
 1018 1129 1018 1129 1040 1117 c 0,108,109
 1086 1090 1086 1090 1121 1090 c 0,110,111
 1233 1090 1233 1090 1283 1192 c 1,112,48
 1306 1207 1306 1207 1308 1181 c 0,49,50
EndSplineSet
Validated: 1
EndChar
StartChar: guillemotleft
Encoding: 91 171 100
Width: 944
GlyphClass: 1
Flags: W
LayerCount: 2
Fore
SplineSet
174 479 m 1,0,-1
 516 782 l 1,1,-1
 530 782 l 1,2,-1
 530 745 l 1,3,-1
 325 479 l 1,4,-1
 530 213 l 1,5,-1
 530 176 l 1,6,-1
 516 176 l 1,7,-1
 174 479 l 1,0,-1
487 479 m 1,8,-1
 829 782 l 1,9,-1
 843 782 l 1,10,-1
 843 745 l 1,11,-1
 638 479 l 1,12,-1
 843 213 l 1,13,-1
 843 176 l 1,14,-1
 829 176 l 1,15,-1
 487 479 l 1,8,-1
EndSplineSet
Validated: 1
EndChar
StartChar: logicalnot
Encoding: 92 172 101
Width: 1014
GlyphClass: 1
Flags: W
LayerCount: 2
Fore
SplineSet
87 767 m 1,0,-1
 927 767 l 1,1,-1
 927 276 l 1,2,-1
 926 275 l 1,3,-1
 828 275 l 1,4,-1
 828 667 l 1,5,-1
 87 667 l 1,6,-1
 87 767 l 1,0,-1
EndSplineSet
Validated: 1
EndChar
StartChar: registered
Encoding: 94 174 102
Width: 1674
GlyphClass: 1
Flags: W
LayerCount: 2
Fore
SplineSet
840 1456 m 0,0,1
 985 1456 985 1456 1120 1399.5 c 128,-1,2
 1255 1343 1255 1343 1359 1239 c 0,3,4
 1461 1138 1461 1138 1517.5 1001 c 128,-1,5
 1574 864 1574 864 1574 718 c 0,6,7
 1574 571 1574 571 1517.5 436 c 128,-1,8
 1461 301 1461 301 1355 196 c 0,9,10
 1250 91 1250 91 1116 36.5 c 128,-1,11
 982 -18 982 -18 833 -18 c 0,12,13
 687 -18 687 -18 555 37.5 c 128,-1,14
 423 93 423 93 317 198 c 0,15,16
 211 302 211 302 155.5 435.5 c 128,-1,17
 100 569 100 569 100 718 c 0,18,19
 100 866 100 866 155.5 1001 c 128,-1,20
 211 1136 211 1136 315 1239 c 0,21,22
 417 1343 417 1343 553.5 1399.5 c 128,-1,23
 690 1456 690 1456 840 1456 c 0,0,1
357 1197 m 256,24,25
 262 1101 262 1101 211 977.5 c 128,-1,26
 160 854 160 854 160 718 c 0,27,28
 160 581 160 581 211 459 c 128,-1,29
 262 337 262 337 359 240 c 0,30,31
 457 144 457 144 578 93 c 128,-1,32
 699 42 699 42 834 42 c 0,33,34
 971 42 971 42 1093.5 92.5 c 128,-1,35
 1216 143 1216 143 1313 238 c 0,36,37
 1410 336 1410 336 1462 459.5 c 128,-1,38
 1514 583 1514 583 1514 718 c 0,39,40
 1514 852 1514 852 1462 977.5 c 128,-1,41
 1410 1103 1410 1103 1317 1197 c 0,42,43
 1221 1293 1221 1293 1097 1344.5 c 128,-1,44
 973 1396 973 1396 839 1396 c 0,45,46
 702 1396 702 1396 577 1344.5 c 128,-1,47
 452 1293 452 1293 357 1197 c 256,24,25
922 1188 m 1,48,49
 1168 1188 1168 1188 1233 953 c 1,50,-1
 1240 912 l 1,51,-1
 1242 875 l 1,52,53
 1242 718 1242 718 1106 632 c 1,54,55
 1006 585 1006 585 909 585 c 2,56,-1
 859 585 l 1,57,-1
 865 579 l 1,58,59
 1109 349 1109 349 1130 337 c 0,60,61
 1180 307 1180 307 1221 307 c 2,62,-1
 1250 306 l 2,63,64
 1259 304 1259 304 1258 295 c 0,65,66
 1258 285 1258 285 1242 281 c 1,67,-1
 1112 293 l 1,68,69
 1016 276 1016 276 986 276 c 2,70,-1
 970 276 l 1,71,72
 911 280 911 280 911 289 c 0,73,74
 914 303 914 303 934 303 c 2,75,-1
 976 303 l 1,76,77
 1043 311 1043 311 1043 339 c 0,78,79
 1043 372 1043 372 936 463 c 1,80,81
 815 583 815 583 804 583 c 2,82,-1
 684 591 l 1,83,-1
 682 592 l 1,84,-1
 682 392 l 2,85,86
 682 338 682 338 747 319 c 0,87,88
 773 313 773 313 792 313 c 2,89,-1
 816 313 l 2,90,91
 827 313 827 313 834 303 c 1,92,93
 834 290 834 290 802 287 c 0,94,95
 771 287 771 287 648 301 c 1,96,97
 600 301 600 301 460 276 c 1,98,-1
 433 276 l 2,99,100
 392 275 392 275 395 295 c 0,101,102
 395 301 395 301 411 305 c 1,103,-1
 423 305 l 1,104,105
 555 322 555 322 568 386 c 1,106,-1
 569 1076 l 2,107,108
 569 1115 569 1115 537 1127 c 1,109,110
 498 1153 498 1153 454 1153 c 2,111,-1
 427 1153 l 2,112,113
 414 1153 414 1153 409 1162 c 1,114,115
 415 1182 415 1182 452 1182 c 2,116,-1
 464 1182 l 1,117,-1
 565 1174 l 1,118,-1
 705 1174 l 1,119,-1
 922 1188 l 1,48,49
684 1149 m 1,120,-1
 682 1149 l 1,121,-1
 682 745 l 1,122,-1
 682 624 l 2,123,124
 682 616 682 616 845 613 c 0,125,126
 1025 613 1025 613 1088 754 c 1,127,128
 1122 813 1122 813 1122 881 c 2,129,-1
 1122 900 l 2,130,131
 1122 1006 1122 1006 1025 1107 c 1,132,133
 959 1156 959 1156 891 1156 c 2,134,-1
 871 1156 l 1,135,-1
 684 1149 l 1,120,-1
EndSplineSet
Validated: 1
EndChar
StartChar: degree
Encoding: 95 176 104
Width: 674
GlyphClass: 1
Flags: W
LayerCount: 2
Fore
SplineSet
339 1372 m 256,0,1
 253 1372 253 1372 191.5 1311 c 128,-1,2
 130 1250 130 1250 130 1163 c 256,3,4
 130 1076 130 1076 191 1016 c 128,-1,5
 252 956 252 956 339 956 c 256,6,7
 426 956 426 956 486 1016 c 128,-1,8
 546 1076 546 1076 546 1163 c 256,9,10
 546 1250 546 1250 485.5 1311 c 128,-1,11
 425 1372 425 1372 339 1372 c 256,0,1
339 1442 m 0,12,13
 454 1442 454 1442 535 1360.5 c 128,-1,14
 616 1279 616 1279 616 1164 c 0,15,16
 616 1050 616 1050 534 968 c 128,-1,17
 452 886 452 886 337 886 c 0,18,19
 220 886 220 886 140 967 c 128,-1,20
 60 1048 60 1048 60 1164 c 256,21,22
 60 1280 60 1280 141.5 1361 c 128,-1,23
 223 1442 223 1442 339 1442 c 0,12,13
EndSplineSet
Validated: 1
EndChar
StartChar: acute
Encoding: 96 180 105
Width: 1024
GlyphClass: 1
Flags: W
LayerCount: 2
Fore
SplineSet
607 1375 m 2,0,1
 642 1410 642 1410 662.5 1422 c 128,-1,2
 683 1434 683 1434 703 1434 c 0,3,4
 736 1434 736 1434 756.5 1414 c 128,-1,5
 777 1394 777 1394 777 1363 c 0,6,7
 777 1341 777 1341 761.5 1321 c 128,-1,8
 746 1301 746 1301 715 1281 c 2,9,-1
 385 1078 l 1,10,-1
 316 1078 l 1,11,-1
 607 1375 l 2,0,1
EndSplineSet
Validated: 1
EndChar
StartChar: paragraph
Encoding: 97 182 106
Width: 1024
GlyphClass: 1
Flags: W
LayerCount: 2
Fore
SplineSet
929 1435 m 1,0,-1
 929 1365 l 1,1,-1
 802 1365 l 1,2,-1
 802 0 l 1,3,-1
 720 0 l 1,4,-1
 720 1365 l 1,5,-1
 554 1365 l 1,6,-1
 554 0 l 1,7,-1
 470 0 l 1,8,-1
 470 738 l 1,9,10
 296 746 296 746 194.5 840.5 c 128,-1,11
 93 935 93 935 93 1086 c 0,12,13
 93 1243 93 1243 200.5 1339 c 128,-1,14
 308 1435 308 1435 486 1435 c 2,15,-1
 929 1435 l 1,0,-1
EndSplineSet
Validated: 1
EndChar
StartChar: periodcentered
Encoding: 98 183 107
AltUni2: 002219.ffffffff.0 002219.ffffffff.0
Width: 508
GlyphClass: 1
Flags: W
LayerCount: 2
Fore
SplineSet
145 740 m 2,0,-1
 227 824 l 2,1,2
 242 838 242 838 256 838 c 0,3,4
 269 838 269 838 287 822 c 2,5,-1
 367 736 l 2,6,7
 379 720 379 720 379 707 c 0,8,9
 379 692 379 692 365 676 c 2,10,-1
 285 588 l 2,11,12
 265 568 265 568 256 568 c 0,13,14
 240 568 240 568 227 582 c 2,15,-1
 139 683 l 2,16,17
 129 696 129 696 129 709 c 0,18,19
 129 724 129 724 145 740 c 2,0,-1
EndSplineSet
Validated: 1
EndChar
StartChar: cedilla
Encoding: 99 184 108
Width: 1024
GlyphClass: 1
Flags: W
LayerCount: 2
Fore
SplineSet
360 -290 m 1,0,1
 445 -342 445 -342 512 -342 c 0,2,3
 578 -342 578 -342 606.5 -320.5 c 128,-1,4
 635 -299 635 -299 635 -254 c 256,5,6
 635 -209 635 -209 586 -190 c 0,7,8
 546 -174 546 -174 484 -174 c 0,9,10
 468 -174 468 -174 450 -176 c 1,11,-1
 498 0 l 1,12,-1
 561 0 l 1,13,-1
 524 -104 l 1,14,15
 556 -100 556 -100 586 -99 c 0,16,17
 672 -99 672 -99 720 -139.5 c 128,-1,18
 768 -180 768 -180 768 -253 c 0,19,20
 768 -329 768 -329 709.5 -373.5 c 128,-1,21
 651 -418 651 -418 549 -418 c 0,22,23
 440 -418 440 -418 360 -386 c 1,24,-1
 360 -290 l 1,0,1
EndSplineSet
Validated: 1
EndChar
StartChar: uni00B9
Encoding: 100 185 109
Width: 514
GlyphClass: 1
Flags: W
LayerCount: 2
Fore
SplineSet
328 223 m 2,0,1
 328 50 328 50 428 50 c 2,2,-1
 474 50 l 1,3,-1
 474 0 l 1,4,-1
 32 0 l 1,5,-1
 32 50 l 1,6,-1
 78 50 l 2,7,8
 178 50 178 50 178 223 c 2,9,-1
 178 655 l 2,10,11
 178 732 178 732 67 732 c 2,12,-1
 19 732 l 1,13,-1
 19 776 l 1,14,15
 241 845 241 845 280 958 c 1,16,-1
 328 958 l 1,17,-1
 328 223 l 2,0,1
EndSplineSet
Validated: 1
EndChar
StartChar: guillemotright
Encoding: 101 187 110
Width: 944
GlyphClass: 1
Flags: W
LayerCount: 2
Fore
SplineSet
115 176 m 1,0,-1
 101 176 l 1,1,-1
 101 213 l 1,2,-1
 306 479 l 1,3,-1
 101 745 l 1,4,-1
 101 782 l 1,5,-1
 115 782 l 1,6,-1
 457 479 l 1,7,-1
 115 176 l 1,0,-1
428 176 m 1,8,-1
 414 176 l 1,9,-1
 414 213 l 1,10,-1
 619 479 l 1,11,-1
 414 745 l 1,12,-1
 414 782 l 1,13,-1
 428 782 l 1,14,-1
 770 479 l 1,15,-1
 428 176 l 1,8,-1
EndSplineSet
Validated: 1
EndChar
StartChar: multiply
Encoding: 102 215 111
Width: 1014
GlyphClass: 1
Flags: W
LayerCount: 2
Fore
SplineSet
507 618 m 1,0,-1
 260 371 l 1,1,-1
 161 470 l 1,2,-1
 408 717 l 1,3,-1
 161 965 l 1,4,-1
 260 1063 l 1,5,-1
 507 816 l 1,6,-1
 755 1063 l 1,7,-1
 853 964 l 1,8,-1
 606 717 l 1,9,-1
 853 470 l 1,10,-1
 754 371 l 1,11,-1
 507 618 l 1,0,-1
EndSplineSet
Validated: 1
EndChar
StartChar: divide
Encoding: 103 247 112
Width: 1014
GlyphClass: 1
Flags: W
LayerCount: 2
Fore
SplineSet
87 647 m 1,0,-1
 87 787 l 1,1,-1
 926 787 l 1,2,-1
 927 786 l 1,3,-1
 927 647 l 1,4,-1
 87 647 l 1,0,-1
398 408 m 2,5,-1
 480 492 l 2,6,7
 495 506 495 506 509 506 c 0,8,9
 522 506 522 506 540 490 c 2,10,-1
 620 404 l 2,11,12
 632 388 632 388 632 375 c 0,13,14
 632 360 632 360 618 344 c 2,15,-1
 538 256 l 2,16,17
 518 236 518 236 509 236 c 0,18,19
 493 236 493 236 480 250 c 2,20,-1
 392 351 l 2,21,22
 382 364 382 364 382 377 c 0,23,24
 382 392 382 392 398 408 c 2,5,-1
398 1101 m 2,25,-1
 480 1185 l 2,26,27
 495 1199 495 1199 509 1199 c 0,28,29
 522 1199 522 1199 540 1183 c 2,30,-1
 620 1097 l 2,31,32
 632 1081 632 1081 632 1068 c 0,33,34
 632 1053 632 1053 618 1037 c 2,35,-1
 538 949 l 2,36,37
 518 929 518 929 509 929 c 0,38,39
 493 929 493 929 480 943 c 2,40,-1
 392 1044 l 2,41,42
 382 1057 382 1057 382 1070 c 0,43,44
 382 1085 382 1085 398 1101 c 2,25,-1
EndSplineSet
Validated: 1
EndChar
StartChar: IJ
Encoding: 156 306 152
Width: 1630
Flags: W
LayerCount: 2
Fore
SplineSet
1136.06152344 511.178710938 m 2,0,-1
 1108.58496094 1614.36328125 l 2,1,2
 1108.58496094 1671.1640625 1108.58496094 1671.1640625 995.942382812 1681.95703125 c 1,3,4
 913.65625 1681.95703125 913.65625 1681.95703125 913.646484375 1711.34472656 c 2,5,-1
 913.646484375 1716.24316406 l 2,6,7
 913.646484375 1749.55078125 913.646484375 1749.55078125 965.576171875 1749.55078125 c 1,8,-1
 1026.30761719 1744.65234375 l 1,9,-1
 1087.04003906 1736.80664062 l 1,10,-1
 1146.79589844 1730.93261719 l 1,11,-1
 1205.57617188 1729.97558594 l 1,12,-1
 1244.76269531 1731.92773438 l 1,13,-1
 1281.00292969 1736.82617188 l 1,14,-1
 1356.43066406 1748.57421875 l 1,15,16
 1519.05175781 1786.77880859 1519.05175781 1786.77880859 1546.49023438 1747.61816406 c 0,17,18
 1574.89381725 1709.39966472 1574.89381725 1709.39966472 1481.8359375 1696.65136719 c 1,19,20
 1313.35839844 1659.42675781 1313.35839844 1659.42675781 1313.33984375 1594.76953125 c 2,21,-1
 1313.33984375 501.381835938 l 2,22,23
 1313.33984375 457.246435518 1313.33984375 457.246435518 1297.89412063 404.372872308 c 128,-1,24
 1282.44839752 351.499309097 1282.44839752 351.499309097 1248.22600437 292.586315192 c 128,-1,25
 1214.00361122 233.673321288 1214.00361122 233.673321288 1165.96415188 181.049622308 c 128,-1,26
 1117.92469255 128.425923328 1117.92469255 128.425923328 1045.88369187 83.6279089424 c 128,-1,27
 973.842691185 38.8298945572 973.842691185 38.8298945572 889.61328125 15.3486328125 c 0,28,29
 826.715133126 -2.18572750751 826.715133126 -2.18572750751 771.997583201 -9.0420826211 c 128,-1,30
 717.280033275 -15.8984377347 717.280033275 -15.8984377347 651.250789195 -9.24828196223 c 128,-1,31
 585.221545115 -2.59812618978 585.221545115 -2.59812618978 520.840820312 21.8154296875 c 1,32,33
 418.792858596 47.8417133841 418.792858596 47.8417133841 356.016278889 113.203865484 c 128,-1,34
 293.239699182 178.566017585 293.239699182 178.566017585 263.333007812 267.276367188 c 0,35,36
 178.550025891 518.76907689 178.550025891 518.76907689 335.8515625 720.978515625 c 0,37,38
 434.596668099 847.926269501 434.596668099 847.926269501 574.526800461 868.202319041 c 0,39,40
 681.937132172 883.766209177 681.937132172 883.766209177 753.398863432 831.182754175 c 0,41,42
 822.900977277 780.041238129 822.900977277 780.041238129 805.982491069 699.283748483 c 0,43,44
 787.562831944 611.360667607 787.562831944 611.360667607 667.216796875 525.015625 c 1,45,46
 677.402418429 545.971980608 677.402418429 545.971980608 683.43645285 572.232107475 c 128,-1,47
 689.47048727 598.492234342 689.47048727 598.492234342 689.989256062 625.250579639 c 128,-1,48
 690.508024854 652.008924936 690.508024854 652.008924936 686.443405332 678.3622783 c 128,-1,49
 682.378785809 704.715631664 682.378785809 704.715631664 671.015498668 724.960941115 c 128,-1,50
 659.652211526 745.206250565 659.652211526 745.206250565 643.36384161 759.397638168 c 128,-1,51
 627.075471694 773.58902577 627.075471694 773.58902577 601.705032168 775.066107117 c 128,-1,52
 576.334592643 776.543188463 576.334592643 776.543188463 545.697375882 766.317418046 c 128,-1,53
 515.060159122 756.091647629 515.060159122 756.091647629 473.557470761 726.545308613 c 128,-1,54
 432.054782401 696.998969596 432.054782401 696.998969596 384.853515625 650.041015625 c 0,55,56
 352.083960079 617.448531924 352.083960079 617.448531924 341.070831987 544.486894266 c 128,-1,57
 330.057703896 471.525256608 330.057703896 471.525256608 335.683074263 405.178144796 c 128,-1,58
 341.308444629 338.831032984 341.308444629 338.831032984 354.27734375 289.122070312 c 0,59,60
 366.403943288 242.684027267 366.403943288 242.684027267 413.961072655 203.548390006 c 128,-1,61
 461.518202022 164.412752745 461.518202022 164.412752745 525.219669533 141.283656869 c 128,-1,62
 588.921137044 118.154560993 588.921137044 118.154560993 656.814510155 105.358061881 c 128,-1,63
 724.707883265 92.5615627685 724.707883265 92.5615627685 783.723497658 94.5161412441 c 128,-1,64
 842.739112051 96.4707197198 842.739112051 96.4707197198 874.708007812 111.788085938 c 0,65,66
 997.775117122 170.751256453 997.775117122 170.751256453 1068.61478738 273.20855778 c 128,-1,67
 1139.45445763 375.665859107 1139.45445763 375.665859107 1136.06152344 511.178710938 c 2,0,-1
406.724609375 1001.41113281 m 1,68,69
 354.383202561 966.66943425 354.383202561 966.66943425 310.729235227 912.000082735 c 128,-1,70
 267.075267893 857.330731221 267.075267893 857.330731221 219.840820312 778.918945312 c 1,71,-1
 219.840820312 1609.42871094 l 2,72,73
 219.840820312 1690.09619141 219.840820312 1690.09619141 55.3056640625 1704.47167969 c 1,74,-1
 23.37109375 1704.47167969 l 2,75,76
 3.39453125 1704.47167969 3.39453125 1704.47167969 3.39453125 1723.64257812 c 1,77,78
 15.3617741039 1749.99804688 15.3617741039 1749.99804688 36.15234375 1749.99804688 c 2,79,-1
 61.6962890625 1749.99804688 l 1,80,-1
 310.096679688 1726.8359375 l 1,81,-1
 319.6640625 1726.8359375 l 1,82,-1
 596.802734375 1765.98632812 l 1,83,-1
 635.952148438 1765.98632812 l 1,84,85
 664.69140625 1754.80067873 664.69140625 1754.80067873 664.69140625 1736.43359375 c 2,86,-1
 664.69140625 1733.23828125 l 2,87,88
 664.69140625 1723.65660503 664.69140625 1723.65660503 629.560546875 1714.06933594 c 1,89,-1
 590.412109375 1714.06933594 l 1,90,91
 515.314446892 1700.48650281 515.314446892 1700.48650281 465.026367188 1665.35058594 c 1,92,93
 409.878042806 1618.1901196 409.878042806 1618.1901196 406.724609375 1583.8828125 c 2,94,-1
 406.724609375 1001.41113281 l 1,68,69
EndSplineSet
Ligature2: "'liga' Standard Ligatures in Latin lookup 0-1" i j
Ligature2: "'liga' Standard Ligatures in Latin lookup 0-1" I J
EndChar
StartChar: circumflex
Encoding: 104 710 113
Width: 1024
GlyphClass: 1
Flags: W
LayerCount: 2
Fore
SplineSet
221 1079 m 1,0,-1
 453 1434 l 1,1,-1
 571 1434 l 1,2,-1
 803 1079 l 1,3,-1
 745 1079 l 1,4,-1
 512 1295 l 1,5,-1
 279 1079 l 1,6,-1
 221 1079 l 1,0,-1
EndSplineSet
Validated: 1
EndChar
StartChar: caron
Encoding: 105 711 114
Width: 1024
GlyphClass: 1
Flags: W
LayerCount: 2
Fore
SplineSet
221 1434 m 1,0,-1
 279 1434 l 1,1,-1
 512 1220 l 1,2,-1
 745 1434 l 1,3,-1
 803 1434 l 1,4,-1
 571 1078 l 1,5,-1
 453 1078 l 1,6,-1
 221 1434 l 1,0,-1
EndSplineSet
Validated: 1
EndChar
StartChar: uni02C9
Encoding: 106 713 115
Width: 1024
GlyphClass: 1
Flags: W
LayerCount: 2
Fore
SplineSet
254 1195 m 1,0,-1
 254 1320 l 1,1,-1
 770 1320 l 1,2,-1
 770 1195 l 1,3,-1
 254 1195 l 1,0,-1
EndSplineSet
Validated: 1
EndChar
StartChar: breve
Encoding: 107 728 116
Width: 1024
GlyphClass: 1
Flags: W
LayerCount: 2
Fore
SplineSet
219 1349 m 1,0,-1
 270 1349 l 1,1,2
 287 1276 287 1276 345 1242 c 128,-1,3
 403 1208 403 1208 512 1208 c 256,4,5
 621 1208 621 1208 678 1241.5 c 128,-1,6
 735 1275 735 1275 752 1349 c 1,7,-1
 803 1349 l 1,8,9
 783 1216 783 1216 709 1147.5 c 128,-1,10
 635 1079 635 1079 512 1079 c 0,11,12
 390 1079 390 1079 315 1148 c 128,-1,13
 240 1217 240 1217 219 1349 c 1,0,-1
EndSplineSet
Validated: 1
EndChar
StartChar: dotaccent
Encoding: 108 729 117
Width: 1024
GlyphClass: 1
Flags: W
LayerCount: 2
Fore
SplineSet
422 1289 m 2,0,-1
 491 1361 l 2,1,2
 497 1367 497 1367 504 1370 c 128,-1,3
 511 1373 511 1373 518 1373 c 0,4,5
 524 1373 524 1373 530.5 1370 c 128,-1,6
 537 1367 537 1367 543 1361 c 2,7,-1
 614 1285 l 2,8,9
 619 1281 619 1281 621 1275 c 128,-1,10
 623 1269 623 1269 623 1261 c 0,11,12
 622 1252 622 1252 620 1246 c 128,-1,13
 618 1240 618 1240 612 1234 c 2,14,-1
 541 1158 l 2,15,16
 529 1147 529 1147 525 1144.5 c 128,-1,17
 521 1142 521 1142 518 1142 c 0,18,19
 508 1142 508 1142 501.5 1144.5 c 128,-1,20
 495 1147 495 1147 491 1153 c 2,21,-1
 416 1240 l 2,22,23
 412 1244 412 1244 410 1249.5 c 128,-1,24
 408 1255 408 1255 408 1263 c 0,25,26
 408 1269 408 1269 411 1275.5 c 128,-1,27
 414 1282 414 1282 422 1289 c 2,0,-1
EndSplineSet
Validated: 1
EndChar
StartChar: ring
Encoding: 109 730 118
Width: 1024
GlyphClass: 1
Flags: W
LayerCount: 2
Fore
SplineSet
411 1257 m 0,0,1
 411 1215 411 1215 440 1186 c 128,-1,2
 469 1157 469 1157 511 1157 c 256,3,4
 553 1157 553 1157 582 1186 c 128,-1,5
 611 1215 611 1215 611 1257 c 0,6,7
 611 1297 611 1297 581.5 1326.5 c 128,-1,8
 552 1356 552 1356 511 1356 c 256,9,10
 470 1356 470 1356 440.5 1326.5 c 128,-1,11
 411 1297 411 1297 411 1257 c 0,0,1
335 1257 m 256,12,13
 335 1332 335 1332 386 1383 c 128,-1,14
 437 1434 437 1434 511 1434 c 0,15,16
 587 1434 587 1434 638.5 1382.5 c 128,-1,17
 690 1331 690 1331 690 1257 c 0,18,19
 690 1182 690 1182 638.5 1130.5 c 128,-1,20
 587 1079 587 1079 511 1079 c 0,21,22
 437 1079 437 1079 386 1130.5 c 128,-1,23
 335 1182 335 1182 335 1257 c 256,12,13
EndSplineSet
Validated: 1
EndChar
StartChar: ogonek
Encoding: 110 731 119
Width: 1024
GlyphClass: 1
Flags: W
LayerCount: 2
Fore
SplineSet
640 0 m 1,0,1
 569 -62 569 -62 529.5 -119.5 c 128,-1,2
 490 -177 490 -177 490 -232 c 0,3,4
 490 -279 490 -279 517 -307 c 128,-1,5
 544 -335 544 -335 590 -335 c 0,6,7
 630 -335 630 -335 659.5 -319.5 c 128,-1,8
 689 -304 689 -304 709 -271 c 1,9,-1
 737 -287 l 1,10,11
 701 -350 701 -350 646.5 -384 c 128,-1,12
 592 -418 592 -418 527 -418 c 0,13,14
 457 -418 457 -418 413 -382.5 c 128,-1,15
 369 -347 369 -347 369 -292 c 0,16,17
 369 -216 369 -216 429.5 -135.5 c 128,-1,18
 490 -55 490 -55 591 0 c 1,19,-1
 640 0 l 1,0,1
EndSplineSet
Validated: 1
EndChar
StartChar: tilde
Encoding: 111 732 120
Width: 1024
GlyphClass: 1
Flags: W
LayerCount: 2
Fore
SplineSet
808 1382 m 1,0,1
 788 1279 788 1279 739.5 1228 c 128,-1,2
 691 1177 691 1177 613 1177 c 2,3,-1
 609 1177 l 2,4,5
 559 1177 559 1177 496 1200 c 0,6,7
 430 1224 430 1224 382 1224 c 0,8,9
 343 1224 343 1224 321.5 1203.5 c 128,-1,10
 300 1183 300 1183 288 1132 c 1,11,-1
 234 1132 l 1,12,13
 253 1238 253 1238 302 1290.5 c 128,-1,14
 351 1343 351 1343 431 1343 c 0,15,16
 477 1342 477 1342 544 1319 c 0,17,18
 608 1296 608 1296 656 1296 c 2,19,-1
 660 1296 l 2,20,21
 696 1296 696 1296 718 1316 c 128,-1,22
 740 1336 740 1336 754 1382 c 1,23,-1
 808 1382 l 1,0,1
EndSplineSet
Validated: 1
EndChar
StartChar: hungarumlaut
Encoding: 112 733 121
Width: 1024
GlyphClass: 1
Flags: W
LayerCount: 2
Fore
SplineSet
217 1079 m 1,0,-1
 361 1352 l 2,1,2
 385 1396 385 1396 406.5 1415 c 128,-1,3
 428 1434 428 1434 453 1434 c 0,4,5
 481 1434 481 1434 501 1414 c 128,-1,6
 521 1394 521 1394 521 1367 c 0,7,8
 521 1351 521 1351 510.5 1332 c 128,-1,9
 500 1313 500 1313 480 1291 c 2,10,-1
 275 1079 l 1,11,-1
 217 1079 l 1,0,-1
502 1079 m 1,12,-1
 646 1352 l 2,13,14
 670 1396 670 1396 691.5 1415 c 128,-1,15
 713 1434 713 1434 738 1434 c 0,16,17
 766 1434 766 1434 786 1414 c 128,-1,18
 806 1394 806 1394 806 1367 c 0,19,20
 806 1351 806 1351 795.5 1332 c 128,-1,21
 785 1313 785 1313 765 1291 c 2,22,-1
 560 1079 l 1,23,-1
 502 1079 l 1,12,-1
EndSplineSet
Validated: 1
EndChar
StartChar: endash
Encoding: 114 8211 122
Width: 1108
GlyphClass: 1
Flags: W
LayerCount: 2
Fore
SplineSet
56 419 m 1,0,-1
 56 539 l 1,1,-1
 1052 539 l 1,2,-1
 1052 419 l 1,3,-1
 56 419 l 1,0,-1
EndSplineSet
Validated: 1
EndChar
StartChar: emdash
Encoding: 115 8212 123
Width: 2048
GlyphClass: 1
Flags: W
LayerCount: 2
Fore
SplineSet
0 419 m 1,0,-1
 0 539 l 1,1,-1
 2048 539 l 1,2,-1
 2048 419 l 1,3,-1
 0 419 l 1,0,-1
EndSplineSet
Validated: 1
EndChar
StartChar: dagger
Encoding: 122 8224 130
Width: 1014
GlyphClass: 1
Flags: W
LayerCount: 2
Fore
SplineSet
486 1022 m 1,0,1
 478 1119 478 1119 432 1200 c 0,2,3
 375 1301 375 1301 375 1329 c 0,4,5
 375 1378 375 1378 411 1407.5 c 128,-1,6
 447 1437 447 1437 507 1437 c 0,7,8
 564 1437 564 1437 601.5 1409.5 c 128,-1,9
 639 1382 639 1382 639 1338 c 0,10,11
 639 1306 639 1306 584 1201 c 0,12,13
 538 1116 538 1116 529 1022 c 1,14,15
 625 1030 625 1030 706 1076 c 0,16,17
 807 1133 807 1133 835 1133 c 0,18,19
 884 1133 884 1133 914 1097 c 128,-1,20
 944 1061 944 1061 944 1001 c 0,21,22
 944 944 944 944 916.5 906.5 c 128,-1,23
 889 869 889 869 844 869 c 0,24,25
 812 869 812 869 708 924 c 0,26,27
 623 970 623 970 529 981 c 1,28,29
 537 805 537 805 639 704 c 1,30,31
 533 244 533 244 527 -270 c 1,32,-1
 489 -270 l 1,33,34
 483 244 483 244 375 704 c 1,35,36
 477 805 477 805 486 981 c 1,37,38
 390 971 390 971 308 926 c 0,39,40
 207 869 207 869 179 869 c 0,41,42
 130 869 130 869 100.5 905 c 128,-1,43
 71 941 71 941 71 1001 c 0,44,45
 71 1058 71 1058 98.5 1095.5 c 128,-1,46
 126 1133 126 1133 170 1133 c 0,47,48
 202 1133 202 1133 307 1077 c 0,49,50
 392 1031 392 1031 486 1022 c 1,0,1
EndSplineSet
Validated: 1
EndChar
StartChar: daggerdbl
Encoding: 123 8225 131
Width: 1014
GlyphClass: 1
Flags: W
LayerCount: 2
Fore
SplineSet
528 186 m 1,0,1
 622 197 622 197 707 243 c 0,2,3
 811 298 811 298 843 298 c 0,4,5
 888 298 888 298 915.5 260.5 c 128,-1,6
 943 223 943 223 943 166 c 0,7,8
 943 106 943 106 913 70 c 128,-1,9
 883 34 883 34 834 34 c 0,10,11
 806 34 806 34 705 91 c 0,12,13
 624 137 624 137 528 145 c 1,14,15
 537 51 537 51 583 -34 c 0,16,17
 638 -139 638 -139 638 -171 c 0,18,19
 638 -215 638 -215 600.5 -242.5 c 128,-1,20
 563 -270 563 -270 506 -270 c 0,21,22
 446 -270 446 -270 410 -240.5 c 128,-1,23
 374 -211 374 -211 374 -162 c 0,24,25
 374 -134 374 -134 431 -33 c 0,26,27
 477 48 477 48 485 145 c 1,28,29
 391 136 391 136 306 90 c 0,30,31
 201 34 201 34 169 34 c 0,32,33
 125 34 125 34 97.5 71.5 c 128,-1,34
 70 109 70 109 70 166 c 0,35,36
 70 226 70 226 99.5 262 c 128,-1,37
 129 298 129 298 178 298 c 0,38,39
 206 298 206 298 307 241 c 0,40,41
 389 196 389 196 485 186 c 1,42,43
 476 412 476 412 374 584 c 1,44,45
 476 755 476 755 485 981 c 1,46,47
 389 971 389 971 307 926 c 0,48,49
 206 869 206 869 178 869 c 0,50,51
 129 869 129 869 99.5 905 c 128,-1,52
 70 941 70 941 70 1001 c 0,53,54
 70 1058 70 1058 97.5 1095.5 c 128,-1,55
 125 1133 125 1133 169 1133 c 0,56,57
 201 1133 201 1133 306 1077 c 0,58,59
 391 1031 391 1031 485 1022 c 1,60,61
 477 1119 477 1119 431 1200 c 0,62,63
 374 1301 374 1301 374 1329 c 0,64,65
 374 1378 374 1378 410 1407.5 c 128,-1,66
 446 1437 446 1437 506 1437 c 0,67,68
 563 1437 563 1437 600.5 1409.5 c 128,-1,69
 638 1382 638 1382 638 1338 c 0,70,71
 638 1306 638 1306 583 1201 c 0,72,73
 537 1116 537 1116 528 1022 c 1,74,75
 624 1030 624 1030 705 1076 c 0,76,77
 806 1133 806 1133 834 1133 c 0,78,79
 883 1133 883 1133 913 1097 c 128,-1,80
 943 1061 943 1061 943 1001 c 0,81,82
 943 944 943 944 915.5 906.5 c 128,-1,83
 888 869 888 869 843 869 c 0,84,85
 811 869 811 869 707 924 c 0,86,87
 622 970 622 970 528 981 c 1,88,89
 536 755 536 755 638 584 c 1,90,91
 536 412 536 412 528 186 c 1,0,1
EndSplineSet
Validated: 1
EndChar
StartChar: bullet
Encoding: 124 8226 132
Width: 1024
GlyphClass: 1
Flags: W
LayerCount: 2
Fore
SplineSet
216 718 m 256,0,1
 216 841 216 841 303 927 c 128,-1,2
 390 1013 390 1013 513 1013 c 0,3,4
 635 1013 635 1013 721.5 926.5 c 128,-1,5
 808 840 808 840 808 718 c 256,6,7
 808 596 808 596 720.5 508.5 c 128,-1,8
 633 421 633 421 511 421 c 0,9,10
 388 421 388 421 302 508 c 128,-1,11
 216 595 216 595 216 718 c 256,0,1
EndSplineSet
Validated: 1
EndChar
StartChar: guilsinglleft
Encoding: 126 8249 134
Width: 631
GlyphClass: 1
Flags: W
LayerCount: 2
Fore
SplineSet
174 479 m 1,0,-1
 516 782 l 1,1,-1
 530 782 l 1,2,-1
 530 745 l 1,3,-1
 325 479 l 1,4,-1
 530 213 l 1,5,-1
 530 176 l 1,6,-1
 516 176 l 1,7,-1
 174 479 l 1,0,-1
EndSplineSet
Validated: 1
EndChar
StartChar: guilsinglright
Encoding: 127 8250 135
Width: 631
GlyphClass: 1
Flags: W
LayerCount: 2
Fore
SplineSet
115 176 m 1,0,-1
 101 176 l 1,1,-1
 101 213 l 1,2,-1
 306 479 l 1,3,-1
 101 745 l 1,4,-1
 101 782 l 1,5,-1
 115 782 l 1,6,-1
 457 479 l 1,7,-1
 115 176 l 1,0,-1
EndSplineSet
Validated: 1
EndChar
StartChar: fraction
Encoding: 128 8260 136
AltUni2: 002215.ffffffff.0 002215.ffffffff.0
Width: 342
GlyphClass: 1
Flags: W
LayerCount: 2
Fore
SplineSet
-342 -29 m 1,0,-1
 598 1432 l 1,1,-1
 682 1432 l 1,2,-1
 -256 -29 l 1,3,-1
 -342 -29 l 1,0,-1
EndSplineSet
Validated: 1
EndChar
StartChar: franc
Encoding: 129 8355 137
Width: 1014
GlyphClass: 1
Flags: W
LayerCount: 2
Fore
SplineSet
247 357 m 1,0,-1
 53 357 l 1,1,-1
 53 417 l 1,2,-1
 247 417 l 1,3,-1
 247 1149 l 2,4,5
 247 1384 247 1384 144 1384 c 2,6,-1
 48 1384 l 1,7,-1
 48 1434 l 1,8,-1
 963 1434 l 1,9,-1
 1066 1203 l 1,10,-1
 1017 1203 l 1,11,12
 958 1385 958 1385 827 1385 c 2,13,-1
 511 1384 l 2,14,15
 409 1384 409 1384 409 1149 c 2,16,-1
 409 797 l 1,17,-1
 770 797 l 2,18,19
 870 797 870 797 870 860 c 2,20,-1
 870 918 l 1,21,-1
 920 918 l 1,22,-1
 920 576 l 1,23,-1
 870 576 l 1,24,-1
 870 636 l 2,25,26
 870 698 870 698 770 698 c 2,27,-1
 409 698 l 1,28,-1
 409 417 l 1,29,-1
 603 417 l 1,30,-1
 603 357 l 1,31,-1
 409 357 l 1,32,-1
 409 285 l 2,33,34
 409 50 409 50 511 50 c 2,35,-1
 608 50 l 1,36,-1
 608 0 l 1,37,-1
 48 0 l 1,38,-1
 48 50 l 1,39,-1
 144 50 l 2,40,41
 247 50 247 50 247 285 c 2,42,-1
 247 357 l 1,0,-1
EndSplineSet
Validated: 1
EndChar
StartChar: lira
Encoding: 130 8356 138
Width: 1014
GlyphClass: 1
Flags: W
LayerCount: 2
Fore
SplineSet
748 1347 m 1,0,1
 676 1378 676 1378 588 1378 c 2,2,-1
 586 1378 l 2,3,4
 486 1378 486 1378 396 1277 c 0,5,6
 312 1184 312 1184 312 1036 c 0,7,8
 312 1021 312 1021 313 1006 c 0,9,10
 313 900 313 900 346 793 c 1,11,-1
 726 793 l 1,12,-1
 726 733 l 1,13,-1
 366 733 l 1,14,15
 378 703 378 703 392 673 c 1,16,-1
 744 673 l 1,17,-1
 744 613 l 1,18,-1
 423 613 l 1,19,20
 458 550 458 550 458 475 c 0,21,22
 458 314 458 314 296 100 c 1,23,-1
 698 100 l 2,24,25
 828 100 828 100 887 232 c 1,26,-1
 936 231 l 1,27,-1
 833 0 l 1,28,-1
 114 0 l 1,29,-1
 115 50 l 1,30,31
 302 288 302 288 302 468 c 0,32,33
 302 545 302 545 268 611 c 1,34,-1
 266 613 l 1,35,-1
 94 613 l 1,36,-1
 94 673 l 1,37,-1
 237 673 l 1,38,39
 223 704 223 704 211 733 c 1,40,-1
 76 733 l 1,41,-1
 76 793 l 1,42,-1
 189 793 l 1,43,44
 153 900 153 900 153 986 c 0,45,46
 153 1212 153 1212 276.5 1333 c 128,-1,47
 400 1454 400 1454 587 1454 c 0,48,49
 662 1454 662 1454 772.5 1440 c 128,-1,50
 883 1426 883 1426 883 1406 c 2,51,-1
 883 1245 l 1,52,-1
 825 1245 l 1,53,54
 820 1306 820 1306 748 1347 c 1,0,1
EndSplineSet
Validated: 1
EndChar
StartChar: peseta
Encoding: 131 8359 139
Width: 2028
GlyphClass: 1
Flags: W
LayerCount: 2
Fore
SplineSet
409 1384 m 1,0,-1
 409 722 l 2,1,2
 412 713 412 713 416 705 c 0,3,4
 457 603 457 603 524 552 c 0,5,6
 581 508 581 508 640 508 c 0,7,8
 650 508 650 508 659 509 c 0,9,10
 727 517 727 517 786 584 c 128,-1,11
 845 651 845 651 873 761 c 0,12,13
 895 848 895 848 895 940 c 0,14,15
 895 964 895 964 894 987 c 0,16,17
 887 1103 887 1103 844.5 1205.5 c 128,-1,18
 802 1308 802 1308 736 1350 c 0,19,20
 680 1385 680 1385 624 1385 c 0,21,22
 614 1385 614 1385 603 1384 c 2,23,-1
 409 1384 l 1,0,-1
1496 908 m 1,24,-1
 1317 908 l 1,25,-1
 1317 223 l 2,26,27
 1317 142 1317 142 1351 104 c 0,28,29
 1379 73 1379 73 1432 67 c 1,30,-1
 1361 259 l 1,31,-1
 1410 260 l 1,32,33
 1465 130 1465 130 1524 86 c 0,34,35
 1581 42 1581 42 1651 42 c 2,36,-1
 1658 42 l 2,37,38
 1750 42 1750 42 1809 94 c 0,39,40
 1868 147 1868 147 1868 230 c 0,41,42
 1868 332 1868 332 1609 456 c 0,43,44
 1508 508 1508 508 1465 568 c 128,-1,45
 1422 628 1422 628 1422 713 c 0,46,47
 1422 834 1422 834 1495 907 c 2,48,-1
 1496 908 l 1,24,-1
1039 910 m 1,49,50
 1032 809 1032 809 991 716 c 0,51,52
 941 602 941 602 850 538.5 c 128,-1,53
 759 475 759 475 660 475 c 0,54,55
 560 475 560 475 469 539 c 0,56,57
 436 561 436 561 409 590 c 1,58,-1
 409 285 l 2,59,60
 409 50 409 50 511 50 c 2,61,-1
 608 50 l 1,62,-1
 608 0 l 1,63,-1
 48 0 l 1,64,-1
 48 50 l 1,65,-1
 144 50 l 2,66,67
 247 50 247 50 247 285 c 2,68,-1
 247 1149 l 2,69,70
 247 1384 247 1384 144 1384 c 2,71,-1
 48 1384 l 1,72,-1
 48 1434 l 1,73,-1
 666 1434 l 2,74,75
 758 1432 758 1432 847 1372 c 0,76,77
 938 1310 938 1310 990 1195 c 0,78,79
 1040 1082 1040 1082 1041 958 c 1,80,-1
 1051 958 l 2,81,82
 1267 958 1267 958 1267 1313 c 1,83,-1
 1317 1313 l 1,84,-1
 1317 958 l 1,85,-1
 1576 958 l 1,86,87
 1618 977 1618 977 1686 978 c 2,88,-1
 1688 978 l 2,89,90
 1742 978 1742 978 1821.5 964.5 c 128,-1,91
 1901 951 1901 951 1901 931 c 2,92,-1
 1901 772 l 1,93,-1
 1859 772 l 1,94,95
 1855 838 1855 838 1793.5 880 c 128,-1,96
 1732 922 1732 922 1660 922 c 0,97,98
 1596 922 1596 922 1557.5 885.5 c 128,-1,99
 1519 849 1519 849 1519 789 c 0,100,101
 1519 681 1519 681 1754 569 c 0,102,103
 1876 514 1876 514 1921.5 451.5 c 128,-1,104
 1967 389 1967 389 1967 298 c 0,105,106
 1967 158 1967 158 1884 67 c 1,107,108
 1782 -17 1782 -17 1656 -19 c 0,109,110
 1598 -19 1598 -19 1551 -8 c 0,111,112
 1523 -2 1523 -2 1495 -2 c 0,113,114
 1477 -2 1477 -2 1459 -5 c 0,115,116
 1431 -10 1431 -10 1400 -10 c 0,117,118
 1276 -10 1276 -10 1226.5 47 c 128,-1,119
 1177 104 1177 104 1169 223 c 1,120,-1
 1168 223 l 1,121,-1
 1168 910 l 1,122,-1
 1039 910 l 1,49,50
EndSplineSet
Validated: 1
EndChar
StartChar: Euro
Encoding: 132 8364 140
Width: 2017
GlyphClass: 1
Flags: W
LayerCount: 2
Fore
SplineSet
1898.15625 1802.703125 m 0,0,1
 1915.5 1802 1915.5 1802 1918 1772 c 0,2,3
 1918 1700 1918 1700 1706 1500 c 1,4,5
 1616 1393.99951172 1616 1393.99951172 1578 1248 c 1,6,7
 1549.99951172 1174.99951172 1549.99951172 1174.99951172 1482 916 c 1,8,-1
 1466 900 l 1,9,-1
 1462 900 l 1,10,11
 1442.00048828 910.000488281 1442.00048828 910.000488281 1442 932 c 2,12,-1
 1500 1300 l 1,13,-1
 1502 1372 l 2,14,15
 1502 1505.00048828 1502 1505.00048828 1430 1564 c 1,16,17
 1376 1622.99951172 1376 1622.99951172 1250 1672 c 0,18,19
 1203.99951172 1688.00048828 1203.99951172 1688.00048828 1138 1688 c 2,20,-1
 1118 1688 l 1,21,-1
 1090 1688 l 2,22,23
 702.000976562 1688 702.000976562 1688 522 1332 c 0,24,25
 472.981501437 1233.47416038 472.981501437 1233.47416038 447.892578125 1122.03710938 c 1,26,27
 575.293541087 1108.52296926 575.293541087 1108.52296926 915 1028 c 1,28,-1
 1023 1016 l 1,29,-1
 1035 1016 l 2,30,31
 1153.99951172 1016 1153.99951172 1016 1207 1028 c 1,32,-1
 1211 1024 l 1,33,-1
 1211 1012 l 1,34,35
 1173 984 1173 984 1007 956 c 1,36,-1
 915 944 l 1,37,-1
 859 944 l 2,38,39
 719.000488281 944 719.000488281 944 527 1000 c 1,40,-1
 430.3671875 1018.32617188 l 1,41,42
 422 948.534216961 422 948.534216961 422 880 c 0,43,44
 422 875.214569841 422 875.214569841 422.317961162 866.366580316 c 128,-1,45
 422.635922324 857.51859079 422.635922324 857.51859079 422.677734375 855.8515625 c 0,46,47
 559.566980312 834.102458749 559.566980312 834.102458749 830 770 c 1,48,-1
 938 758 l 1,49,-1
 950 758 l 2,50,51
 1068.99951172 758 1068.99951172 758 1122 770 c 1,52,-1
 1126 766 l 1,53,-1
 1126 754 l 1,54,55
 1088 726 1088 726 922 698 c 1,56,-1
 830 686 l 1,57,-1
 774 686 l 2,58,59
 634.000488281 686 634.000488281 686 442 742 c 1,60,-1
 432.400390625 743.8203125 l 1,61,62
 484.825142083 398.471162141 484.825142083 398.471162141 810 168 c 1,63,64
 952.999511719 79.9995117188 952.999511719 79.9995117188 1154 80 c 0,65,66
 1547.99902344 80 1547.99902344 80 1794 428 c 1,67,-1
 1810 440 l 1,68,-1
 1822 440 l 2,69,70
 1835.00048828 438.999511719 1835.00048828 438.999511719 1838 408 c 1,71,72
 1811 336 1811 336 1642 180 c 1,73,74
 1443.00097656 31.0004882812 1443.00097656 31.0004882812 1210 12 c 0,75,76
 1201 8 1201 8 1086 4 c 1,77,-1
 1054 4 l 1,78,-1
 1022 4 l 2,79,80
 824 4 824 4 574 144 c 1,81,82
 341.999511719 298.999511719 341.999511719 298.999511719 234 568 c 1,83,84
 199.539266416 673.105955065 199.539266416 673.105955065 182.587890625 782.544921875 c 1,85,-1
 94 794 l 1,86,-1
 80 791 l 1,87,-1
 62 786 l 1,88,-1
 6 770 l 1,89,-1
 -6 774 l 1,90,-1
 -6 790 l 2,91,92
 -6 797.000488281 -6 797.000488281 94 842 c 1,93,-1
 178 851.2109375 l 1,94,-1
 178 924 l 2,95,96
 178 986.7166446 178 986.7166446 188.677734375 1050.74804688 c 1,97,-1
 179 1052 l 1,98,-1
 165 1049 l 1,99,-1
 147 1044 l 1,100,-1
 91 1028 l 1,101,-1
 79 1032 l 1,102,-1
 79 1048 l 2,103,104
 79 1055.00048828 79 1055.00048828 179 1100 c 1,105,-1
 199.171875 1102.2109375 l 1,106,107
 280.856809733 1437.93911366 280.856809733 1437.93911366 682 1660 c 0,108,109
 838 1742.99951172 838 1742.99951172 1022 1752 c 1,110,-1
 1026 1752 l 2,111,112
 1171.00048828 1752 1171.00048828 1752 1286 1720 c 0,113,114
 1352 1699 1352 1699 1369 1688.5 c 128,-1,115
 1385.99951172 1678 1385.99951172 1678 1426 1656 c 0,116,117
 1511.00048828 1608 1511.00048828 1608 1574 1608 c 0,118,119
 1781 1608 1781 1608 1872 1793 c 1,120,121
 1887.75 1803.125 1887.75 1803.125 1898.15625 1802.703125 c 0,0,1
EndSplineSet
Validated: 1
EndChar
StartChar: partialdiff
Encoding: 133 8706 141
Width: 1014
GlyphClass: 1
Flags: W
LayerCount: 2
Fore
SplineSet
232 537 m 0,0,1
 232 496 232 496 237 458 c 0,2,3
 251 336 251 336 298.5 228 c 128,-1,4
 346 120 346 120 417 63 c 0,5,6
 481 10 481 10 545 10 c 0,7,8
 551 10 551 10 558 11 c 0,9,10
 628 16 628 16 685.5 81.5 c 128,-1,11
 743 147 743 147 766 261 c 0,12,13
 782 334 782 334 782 410 c 0,14,15
 782 452 782 452 777 495 c 0,16,17
 763 617 763 617 714.5 726.5 c 128,-1,18
 666 836 666 836 595 892 c 0,19,20
 530 942 530 942 467 942 c 2,21,-1
 456 942 l 1,22,23
 388 937 388 937 330 872.5 c 128,-1,24
 272 808 272 808 248 694 c 0,25,26
 232 610 232 610 232 537 c 0,0,1
937 477 m 0,27,28
 937 345 937 345 880.5 226 c 128,-1,29
 824 107 824 107 721.5 41 c 128,-1,30
 619 -25 619 -25 507 -25 c 256,31,32
 395 -25 395 -25 292.5 41 c 128,-1,33
 190 107 190 107 133.5 226 c 128,-1,34
 77 345 77 345 77 477 c 0,35,36
 77 608 77 608 135 728 c 128,-1,37
 193 848 193 848 296 913 c 128,-1,38
 399 978 399 978 507 978 c 0,39,40
 616 978 616 978 719 913 c 0,41,42
 748 895 748 895 773 872 c 1,43,44
 689 1107 689 1107 539.5 1249 c 128,-1,45
 390 1391 390 1391 213 1404 c 1,46,-1
 213 1459 l 1,47,48
 519 1459 519 1459 728 1174 c 128,-1,49
 937 889 937 889 937 477 c 0,27,28
EndSplineSet
Validated: 1
EndChar
StartChar: Delta
Encoding: 134 8710 142
Width: 1081
GlyphClass: 1
Flags: W
LayerCount: 2
Fore
SplineSet
514 1195 m 1,0,-1
 108 123 l 1,1,-1
 909 123 l 1,2,-1
 514 1195 l 1,0,-1
547 1434 m 1,3,-1
 1073 0 l 1,4,-1
 6 0 l 1,5,-1
 547 1434 l 1,3,-1
EndSplineSet
Validated: 1
EndChar
StartChar: product
Encoding: 135 8719 143
Width: 1515
GlyphClass: 1
Flags: W
LayerCount: 2
Fore
SplineSet
511 1384 m 2,0,1
 409 1384 409 1384 409 1149 c 2,2,-1
 409 -132 l 2,3,4
 409 -367 409 -367 511 -367 c 2,5,-1
 608 -367 l 1,6,-1
 608 -418 l 1,7,-1
 48 -418 l 1,8,-1
 48 -367 l 1,9,-1
 144 -367 l 2,10,11
 247 -367 247 -367 247 -132 c 2,12,-1
 247 1149 l 2,13,14
 247 1384 247 1384 144 1384 c 2,15,-1
 48 1384 l 1,16,-1
 48 1434 l 1,17,-1
 1467 1434 l 1,18,-1
 1467 1384 l 1,19,-1
 1370 1384 l 2,20,21
 1268 1384 1268 1384 1268 1149 c 2,22,-1
 1268 -132 l 2,23,24
 1268 -367 1268 -367 1370 -367 c 2,25,-1
 1467 -367 l 1,26,-1
 1467 -417 l 1,27,-1
 907 -417 l 1,28,-1
 907 -367 l 1,29,-1
 1003 -367 l 2,30,31
 1106 -367 1106 -367 1106 -132 c 2,32,-1
 1106 1149 l 2,33,34
 1106 1384 1106 1384 1003 1384 c 2,35,-1
 511 1384 l 2,0,1
EndSplineSet
Validated: 1
EndChar
StartChar: summation
Encoding: 136 8721 144
Width: 1206
GlyphClass: 1
Flags: W
LayerCount: 2
Fore
SplineSet
1059 548 m 1,0,-1
 271 -366 l 1,1,-1
 906 -366 l 2,2,3
 1036 -366 1036 -366 1095 -184 c 1,4,-1
 1144 -184 l 1,5,-1
 1041 -416 l 1,6,-1
 120 -416 l 1,7,-1
 120 -366 l 1,8,9
 182 -366 182 -366 226 -313 c 2,10,-1
 889 468 l 1,11,-1
 226 1327 l 2,12,13
 182 1384 182 1384 120 1384 c 1,14,-1
 120 1434 l 1,15,-1
 1041 1434 l 1,16,-1
 1144 1202 l 1,17,-1
 1095 1202 l 1,18,19
 1036 1384 1036 1384 906 1384 c 2,20,-1
 421 1384 l 1,21,-1
 1059 548 l 1,0,-1
EndSplineSet
Validated: 1
EndChar
StartChar: minus
Encoding: 137 8722 145
Width: 1014
GlyphClass: 1
Flags: W
LayerCount: 2
Fore
SplineSet
87 647 m 1,0,-1
 87 787 l 1,1,-1
 926 787 l 1,2,-1
 927 786 l 1,3,-1
 927 647 l 1,4,-1
 87 647 l 1,0,-1
EndSplineSet
Validated: 1
EndChar
StartChar: radical
Encoding: 140 8730 146
Width: 1014
GlyphClass: 1
Flags: W
LayerCount: 2
Fore
SplineSet
181 0 m 1,0,-1
 17 359 l 1,1,-1
 91 394 l 1,2,-1
 176 209 l 1,3,-1
 904 1679 l 1,4,-1
 1054 1679 l 1,5,-1
 1054 1619 l 1,6,-1
 982 1619 l 1,7,-1
 181 0 l 1,0,-1
EndSplineSet
Validated: 1
EndChar
StartChar: infinity
Encoding: 141 8734 147
Width: 1014
GlyphClass: 1
Flags: W
LayerCount: 2
Fore
SplineSet
439 755 m 1,0,1
 424 858 424 858 365 888 c 0,2,3
 319 910 319 910 281 910 c 0,4,5
 269 910 269 910 258 908 c 0,6,7
 209 898 209 898 165.5 863.5 c 128,-1,8
 122 829 122 829 100 779 c 0,9,10
 80 733 80 733 80 689 c 2,11,-1
 80 681 l 2,12,13
 82 633 82 633 107.5 592 c 128,-1,14
 133 551 133 551 179 534 c 0,15,16
 208 523 208 523 240 523 c 0,17,18
 256 523 256 523 273 526 c 0,19,20
 320 536 320 536 363.5 569.5 c 128,-1,21
 407 603 407 603 439 755 c 1,0,1
466 687 m 1,22,23
 478 591 478 591 560 534 c 0,24,25
 629 486 629 486 683 486 c 0,26,27
 694 486 694 486 704 488 c 0,28,29
 766 500 766 500 821.5 540 c 128,-1,30
 877 580 877 580 906 641 c 0,31,32
 932 695 932 695 932 749 c 2,33,-1
 932 760 l 2,34,35
 930 820 930 820 896.5 868.5 c 128,-1,36
 863 917 863 917 805 937 c 0,37,38
 768 950 768 950 729 950 c 0,39,40
 707 950 707 950 685 946 c 0,41,42
 618 937 618 937 558 884 c 128,-1,43
 498 831 498 831 466 687 c 1,22,23
450 827 m 1,44,45
 459 862 459 862 471 896 c 0,46,47
 505 984 505 984 566 1033 c 128,-1,48
 627 1082 627 1082 694 1082 c 256,49,50
 761 1082 761 1082 822 1034 c 128,-1,51
 883 986 883 986 917 899 c 128,-1,52
 951 812 951 812 951 717 c 256,53,54
 951 622 951 622 917 535 c 128,-1,55
 883 448 883 448 822 400 c 128,-1,56
 761 352 761 352 694 352 c 256,57,58
 627 352 627 352 566 401 c 128,-1,59
 505 450 505 450 471 537 c 0,60,61
 459 572 459 572 450 607 c 1,62,63
 445 586 445 586 438 566 c 0,64,65
 411 493 411 493 364 453 c 128,-1,66
 317 413 317 413 265 413 c 256,67,68
 213 413 213 413 165 454 c 128,-1,69
 117 495 117 495 91.5 567.5 c 128,-1,70
 66 640 66 640 66 717 c 0,71,72
 66 793 66 793 91.5 866 c 128,-1,73
 117 939 117 939 165 980 c 128,-1,74
 213 1021 213 1021 265 1021 c 256,75,76
 317 1021 317 1021 364 981 c 128,-1,77
 411 941 411 941 438 869 c 0,78,79
 445 848 445 848 450 827 c 1,44,45
EndSplineSet
Validated: 1
EndChar
StartChar: integral
Encoding: 142 8747 148
Width: 665
GlyphClass: 1
Flags: W
LayerCount: 2
Fore
SplineSet
-12 -281 m 0,0,1
 -72 -281 -72 -281 -72 -252 c 2,2,-1
 -72 -93 l 1,3,-1
 -36 -93 l 1,4,5
 -35 -136 -35 -136 -1.5 -157.5 c 128,-1,6
 32 -179 32 -179 62 -179 c 2,7,-1
 63 -179 l 2,8,9
 145 -179 145 -179 178 -17 c 0,10,11
 210 145 210 145 218 299 c 1,12,-1
 288 1033 l 1,13,-1
 296 1095 l 2,14,15
 323 1333 323 1333 431 1524.5 c 128,-1,16
 539 1716 539 1716 665 1716 c 0,17,18
 725 1716 725 1716 725 1687 c 2,19,-1
 725 1528 l 1,20,-1
 689 1528 l 1,21,22
 688 1571 688 1571 654 1592.5 c 128,-1,23
 620 1614 620 1614 591 1614 c 0,24,25
 520 1614 520 1614 475 1458.5 c 128,-1,26
 430 1303 430 1303 426 1095 c 1,27,-1
 353 328 l 2,28,29
 333 97 333 97 222.5 -92 c 128,-1,30
 112 -281 112 -281 -12 -281 c 0,0,1
EndSplineSet
Validated: 1
EndChar
StartChar: approxequal
Encoding: 143 8776 149
Width: 1014
GlyphClass: 1
Flags: W
LayerCount: 2
Fore
SplineSet
923 1053 m 1,0,-1
 923 897 l 1,1,2
 860 825 860 825 801 799.5 c 128,-1,3
 742 774 742 774 685 774 c 0,4,5
 625 774 625 774 507.5 822.5 c 128,-1,6
 390 871 390 871 331 871 c 0,7,8
 280 871 280 871 223.5 843 c 128,-1,9
 167 815 167 815 94 731 c 1,10,-1
 94 887 l 1,11,12
 158 960 158 960 217 986 c 128,-1,13
 276 1012 276 1012 331 1012 c 0,14,15
 395 1012 395 1012 512.5 962.5 c 128,-1,16
 630 913 630 913 685 913 c 0,17,18
 737 913 737 913 793.5 941 c 128,-1,19
 850 969 850 969 923 1053 c 1,0,-1
923 705 m 1,20,-1
 923 549 l 1,21,22
 860 477 860 477 801 451.5 c 128,-1,23
 742 426 742 426 685 426 c 0,24,25
 625 426 625 426 507.5 474.5 c 128,-1,26
 390 523 390 523 331 523 c 0,27,28
 280 523 280 523 223.5 495 c 128,-1,29
 167 467 167 467 94 383 c 1,30,-1
 94 539 l 1,31,32
 158 612 158 612 217 638 c 128,-1,33
 276 664 276 664 331 664 c 0,34,35
 395 664 395 664 512.5 614.5 c 128,-1,36
 630 565 630 565 685 565 c 0,37,38
 737 565 737 565 793.5 593 c 128,-1,39
 850 621 850 621 923 705 c 1,20,-1
EndSplineSet
Validated: 1
EndChar
StartChar: lessequal
Encoding: 144 8804 150
Width: 1014
GlyphClass: 1
Flags: W
LayerCount: 2
Fore
SplineSet
927 1074 m 1,0,-1
 302 715 l 1,1,-1
 927 360 l 1,2,-1
 927 193 l 1,3,-1
 87 674 l 1,4,-1
 87 757 l 1,5,-1
 927 1241 l 1,6,-1
 927 1074 l 1,0,-1
87 1 m 1,7,-1
 87 141 l 1,8,-1
 926 141 l 1,9,-1
 927 140 l 1,10,-1
 927 1 l 1,11,-1
 87 1 l 1,7,-1
EndSplineSet
Validated: 1
EndChar
StartChar: A.002
Encoding: 154 -1 91
Width: 1839
GlyphClass: 1
Flags: W
LayerCount: 2
Fore
SplineSet
872 1776 m 1,0,1
 896 1768 896 1768 896 1744 c 0,2,3
 896 1733 896 1733 840 1676 c 1,4,5
 824 1652 824 1652 824 1632 c 2,6,-1
 824 1604 l 1,7,-1
 1188 788 l 1,8,9
 1227 690 1227 690 1248 676 c 1,10,-1
 1316 676 l 2,11,12
 1404 676 1404 676 1520 752 c 1,13,-1
 1572 800 l 1,14,-1
 1580 800 l 1,15,-1
 1580 788 l 1,16,17
 1560 749 1560 749 1496 692 c 1,18,19
 1366 596 1366 596 1292 596 c 1,20,-1
 1277 595 l 1,21,-1
 1284 576 l 1,22,23
 1450 183 1450 183 1496 136 c 1,24,25
 1555 84 1555 84 1640 84 c 1,26,-1
 1728 72 l 1,27,-1
 1740 56 l 1,28,29
 1740 6 1740 6 1620 4 c 2,30,-1
 1616 4 l 1,31,-1
 1392 44 l 1,32,-1
 1308 44 l 1,33,-1
 1090 12 l 1,34,-1
 1020 8 l 1,35,-1
 1012 8 l 2,36,37
 964 8 964 8 964 36 c 2,38,-1
 964 40 l 2,39,40
 961 69 961 69 1108 80 c 1,41,42
 1200 104 1200 104 1200 156 c 0,43,44
 1200 196 1200 196 1088 428 c 1,45,46
 1026 586 1026 586 1008 588 c 2,47,-1
 688 632 l 1,48,-1
 644 632 l 2,49,50
 512 634 512 634 440 604 c 1,51,-1
 427 604 l 1,52,-1
 424 612 l 1,53,54
 579 724 579 724 768 724 c 1,55,-1
 944 716 l 1,56,-1
 958 717 l 1,57,-1
 952 732 l 1,58,-1
 664 1376 l 1,59,-1
 650 1403 l 1,60,61
 631 1387 631 1387 544 1164 c 1,62,-1
 57 83 l 1,63,-1
 6 214 l 1,64,-1
 564 1468 l 1,65,-1
 564 1488 l 2,66,67
 564 1500 564 1500 527 1505 c 1,68,-1
 520 1520 l 1,69,70
 520 1543 520 1543 600 1552 c 1,71,72
 659 1576 659 1576 768 1720 c 1,73,74
 828 1776 828 1776 872 1776 c 1,0,1
EndSplineSet
Validated: 33
EndChar
StartChar: A.003
Encoding: 150 -1 7
Width: 2114
GlyphClass: 1
Flags: W
LayerCount: 2
Fore
SplineSet
1152 1772 m 1,0,1
 1176 1764 1176 1764 1176 1740 c 0,2,3
 1176 1729 1176 1729 1120 1672 c 1,4,5
 1104 1648 1104 1648 1104 1628 c 2,6,-1
 1104 1600 l 1,7,-1
 1468 784 l 1,8,9
 1507 686 1507 686 1528 672 c 1,10,-1
 1596 672 l 2,11,12
 1684 672 1684 672 1800 748 c 1,13,-1
 1852 796 l 1,14,-1
 1860 796 l 1,15,-1
 1860 784 l 1,16,17
 1840 745 1840 745 1776 688 c 1,18,19
 1646 592 1646 592 1572 592 c 1,20,-1
 1557 591 l 1,21,-1
 1564 572 l 1,22,23
 1730 179 1730 179 1776 132 c 1,24,25
 1835 80 1835 80 1920 80 c 1,26,-1
 2008 68 l 1,27,-1
 2020 52 l 1,28,29
 2020 2 2020 2 1900 0 c 2,30,-1
 1896 0 l 1,31,-1
 1672 40 l 1,32,-1
 1588 40 l 1,33,-1
 1370 8 l 1,34,-1
 1300 4 l 1,35,-1
 1292 4 l 2,36,37
 1244 4 1244 4 1244 32 c 2,38,-1
 1244 36 l 2,39,40
 1241 65 1241 65 1388 76 c 1,41,42
 1480 100 1480 100 1480 152 c 0,43,44
 1480 192 1480 192 1368 424 c 1,45,46
 1306 582 1306 582 1288 584 c 2,47,-1
 968 628 l 1,48,-1
 924 628 l 2,49,50
 792 630 792 630 720 600 c 1,51,-1
 707 600 l 1,52,-1
 704 608 l 1,53,54
 859 720 859 720 1048 720 c 1,55,-1
 1224 712 l 1,56,-1
 1238 713 l 1,57,-1
 1232 728 l 1,58,-1
 944 1372 l 1,59,-1
 930 1399 l 1,60,61
 911 1383 911 1383 824 1160 c 1,62,-1
 544 512 l 1,63,-1
 435 247 l 1,64,-1
 435 239 l 2,65,66
 435 75 435 75 615 75 c 2,67,-1
 647 75 l 1,68,69
 675 71 675 71 675 47 c 0,70,71
 676 8 676 8 583 7 c 1,72,-1
 447 35 l 1,73,-1
 413 37 l 1,74,-1
 375 39 l 1,75,-1
 328 38 l 1,76,-1
 287 35 l 1,77,-1
 127 7 l 2,78,79
 -1 -13 -1 -13 -1 31 c 0,80,81
 -1 68 -1 68 99 71 c 1,82,83
 217 85 217 85 315 223 c 1,84,85
 358 294 358 294 480 608 c 1,86,87
 559 764 559 764 844 1464 c 1,88,-1
 844 1484 l 2,89,90
 844 1496 844 1496 807 1501 c 1,91,-1
 800 1516 l 1,92,93
 800 1539 800 1539 880 1548 c 1,94,95
 939 1572 939 1572 1048 1716 c 1,96,97
 1108 1772 1108 1772 1152 1772 c 1,0,1
EndSplineSet
Validated: 33
EndChar
StartChar: J.002
Encoding: 149 -1 5
Width: 1336
GlyphClass: 1
Flags: W
LayerCount: 2
Fore
SplineSet
1169 1730 m 1,1,2
 997 1692 997 1692 997 1626 c 2,3,-1
 997 131 l 2,4,5
 997 -55 997 -55 856 -225 c 1,6,7
 678 -411 678 -411 547 -428 c 1,8,9
 384 -442 384 -442 307 -408 c 0,10,11
 87 -317 87 -317 17 -174 c 1,12,-1
 4 -126 l 1,13,14
 0 73 0 73 145 141 c 0,15,16
 202 166 202 166 244 166 c 2,17,-1
 260 166 l 2,18,19
 395 166 395 166 438 37 c 1,20,-1
 438 16 l 2,21,22
 441 -131 441 -131 317 -151 c 1,23,-1
 312 -146 l 1,24,-1
 312 -126 l 1,25,26
 333 -105 333 -105 333 -87 c 2,27,-1
 333 -82 l 2,28,29
 333 -47 333 -47 291 -17 c 1,30,-1
 266 -13 l 1,31,-1
 239 -17 l 1,32,33
 166 -67 166 -67 166 -126 c 0,34,35
 166 -211 166 -211 270 -284 c 1,36,37
 372 -346 372 -346 464 -339 c 1,38,39
 591 -319 591 -319 678 -190 c 0,40,41
 788 -25 788 -25 788 141 c 2,42,-1
 788 1646 l 2,43,44
 788 1704 788 1704 673 1715 c 1,45,46
 589 1715 589 1715 589 1745 c 2,47,-1
 589 1750 l 2,48,49
 589 1784 589 1784 642 1784 c 1,50,-1
 704 1779 l 1,51,-1
 766 1771 l 1,52,-1
 827 1765 l 1,53,-1
 887 1764 l 1,54,-1
 927 1766 l 1,55,-1
 964 1771 l 1,56,-1
 1041 1783 l 1,57,58
 1207 1822 1207 1822 1235.5 1782.5 c 128,-1,0
 1264 1743 1264 1743 1169 1730 c 1,1,2
EndSplineSet
Validated: 33
EndChar
StartChar: L.002
Encoding: 152 -1 13
Width: 394
GlyphClass: 1
Flags: W
LayerCount: 2
Fore
SplineSet
716 1849 m 0,0,1
 877 1849 877 1849 926 1722 c 1,2,-1
 930 1690 l 1,3,4
 933 1516 933 1516 790 1518 c 1,5,6
 686 1547 686 1547 686 1614 c 1,7,8
 680 1707 680 1707 796 1722 c 0,9,10
 853 1726 853 1726 890 1681 c 1,11,-1
 890 1686 l 2,12,13
 890 1794 890 1794 756 1818 c 1,14,-1
 686 1818 l 2,15,16
 573 1818 573 1818 480 1707 c 1,17,18
 408 1629 408 1629 377 1441 c 1,19,-1
 377 295 l 1,20,21
 372 137 372 137 215 -67 c 2,22,-1
 206 -79 l 1,23,24
 375 -30 375 -30 585 -30 c 2,25,-1
 675 -30 l 2,26,27
 852 -30 852 -30 1835 -235 c 1,28,29
 2644 -368 2644 -368 3060 -368 c 2,30,-1
 3201 -368 l 2,31,32
 3791 -368 3791 -368 4292 -310 c 1,33,-1
 4296 -316 l 1,34,-1
 4296 -320 l 2,35,36
 4296 -334 4296 -334 4070 -368 c 0,37,38
 3630 -428 3630 -428 3161 -428 c 2,39,-1
 2966 -428 l 2,40,41
 2232 -428 2232 -428 1260 -164 c 1,42,43
 901 -61 901 -61 556 -61 c 0,44,45
 297 -61 297 -61 15 -219 c 1,46,-1
 5 -219 l 1,47,-1
 5 -210 l 1,48,49
 195 23 195 23 215 367 c 1,50,-1
 215 1288 l 2,51,52
 218 1357 218 1357 73 1382 c 1,53,54
 18 1401 18 1401 15 1422 c 2,55,-1
 15 1426 l 2,56,57
 15 1436 15 1436 31 1436 c 1,58,59
 69 1422 69 1422 125 1416 c 1,60,61
 231 1416 231 1416 370 1645 c 1,62,63
 541 1849 541 1849 716 1849 c 0,0,1
EndSplineSet
Validated: 33
EndChar
StartChar: R.002
Encoding: 153 -1 31
Width: 1775
GlyphClass: 1
Flags: W
LayerCount: 2
Fore
SplineSet
848 665 m 1,0,-1
 1060 683 l 1,1,2
 1277 737 1277 737 1368 940 c 1,3,4
 1436 1057 1436 1057 1436 1192 c 2,5,-1
 1436 1228 l 2,6,7
 1436 1438 1436 1438 1244 1636 c 1,8,9
 1114 1732 1114 1732 980 1732 c 2,10,-1
 940 1732 l 1,11,-1
 572 1720 l 1,12,-1
 568 1720 l 1,13,-1
 568 684 l 2,14,15
 568 670 568 670 848 665 c 1,0,-1
1110 614 m 1,16,17
 1199 491 1199 491 1298 364 c 1,18,19
 1311 325 1311 325 1564 54 c 1,20,21
 1839 -225 1839 -225 2072 -419 c 1,22,23
 2072 -438 2072 -438 2061 -438 c 1,24,25
 1876 -343 1876 -343 1438 41 c 1,26,27
 1314 140 1314 140 942 542 c 1,28,-1
 899 598 l 1,29,30
 827 603 827 603 808 604 c 2,31,-1
 572 620 l 1,32,-1
 568 621 l 1,33,-1
 568 228 l 2,34,35
 568 122 568 122 696 84 c 0,36,37
 747 72 747 72 784 72 c 2,38,-1
 832 72 l 2,39,40
 853 72 853 72 868 52 c 1,41,42
 868 26 868 26 804 20 c 1,43,44
 742 20 742 20 500 48 c 1,45,46
 405 48 405 48 128 0 c 1,47,-1
 76 -1 l 2,48,49
 -6 -2 -6 -2 0 36 c 0,50,51
 0 49 0 49 32 56 c 1,52,-1
 56 57 l 1,53,54
 316 90 316 90 342 216 c 1,55,-1
 344 1576 l 2,56,57
 344 1653 344 1653 280 1676 c 1,58,59
 203 1728 203 1728 116 1728 c 2,60,-1
 64 1728 l 2,61,62
 38 1728 38 1728 28 1744 c 1,63,64
 39 1784 39 1784 112 1784 c 2,65,-1
 136 1784 l 1,66,-1
 336 1768 l 1,67,-1
 612 1768 l 1,68,-1
 1040 1796 l 1,69,70
 1526 1796 1526 1796 1656 1332 c 1,71,-1
 1668 1253 l 1,72,-1
 1672 1180 l 1,73,74
 1672 869 1672 869 1404 700 c 1,75,76
 1255 631 1255 631 1110 614 c 1,16,17
EndSplineSet
Validated: 33
EndChar
StartChar: R.003
Encoding: 151 -1 12
Width: 1772
GlyphClass: 1
Flags: W
LayerCount: 2
Fore
SplineSet
1067 1784 m 1,0,1
 1503 1790 1503 1790 1655 1349 c 1,2,-1
 1675 1212 l 1,3,4
 1675 745 1675 745 1101 663 c 1,5,6
 1263 55 1263 55 1675 -207 c 1,7,8
 1886 -354 1886 -354 1971 -354 c 2,9,-1
 2041 -354 l 1,10,11
 2261 -341 2261 -341 2258 -223 c 2,12,-1
 2258 -213 l 2,13,14
 2258 -167 2258 -167 2169 -163 c 1,15,-1
 2148 -175 l 1,16,-1
 2130 -195 l 1,17,-1
 2124 -225 l 1,18,19
 2124 -258 2124 -258 2154 -294 c 1,20,-1
 2144 -304 l 1,21,22
 2021 -297 2021 -297 2015 -157 c 1,23,24
 2019 -38 2019 -38 2159 -30 c 1,25,26
 2351 -30 2351 -30 2377 -193 c 1,27,28
 2394 -447 2394 -447 1991 -432 c 1,29,30
 1457 -432 1457 -432 794 653 c 1,31,-1
 577 653 l 1,32,-1
 577 310 l 2,33,34
 577 153 577 153 864 153 c 1,35,-1
 864 133 l 1,36,37
 857 104 857 104 785 104 c 1,38,-1
 508 123 l 1,39,-1
 458 123 l 1,40,-1
 92 84 l 1,41,42
 13 102 13 102 13 123 c 2,43,-1
 13 143 l 1,44,45
 268 143 268 143 339 280 c 1,46,-1
 349 1643 l 2,47,48
 349 1694 349 1694 132 1721 c 1,49,-1
 122 1731 l 1,50,-1
 122 1761 l 1,51,-1
 151 1770 l 1,52,-1
 478 1761 l 1,53,-1
 1022 1780 l 1,54,-1
 1067 1784 l 1,0,1
579 1701 m 1,55,-1
 580 744 l 1,56,-1
 580 727 l 1,57,-1
 883 721 l 1,58,59
 1265 721 1265 721 1378 1006 c 0,60,61
 1427 1119 1427 1119 1427 1221 c 0,62,63
 1427 1594 1427 1594 1042 1712 c 1,64,-1
 982 1712 l 1,65,-1
 579 1701 l 1,55,-1
EndSplineSet
Validated: 33
EndChar
StartChar: li.001
Encoding: 157 -1 153
Width: 2056
Flags: W
LayerCount: 2
Fore
SplineSet
1642.05859375 80.5654296875 m 1,0,1
 1594.42483865 130.913404421 1594.42483865 130.913404421 1570.80012638 157.510919805 c 128,-1,2
 1547.17541411 184.108435189 1547.17541411 184.108435189 1511.45193356 229.808019404 c 128,-1,3
 1475.72845301 275.507603619 1475.72845301 275.507603619 1453.86320621 319.41320252 c 128,-1,4
 1431.99795941 363.318801421 1431.99795941 363.318801421 1419.09472656 411.241210938 c 1,5,-1
 1419.09472656 1618.94140625 l 2,6,7
 1419.09472656 1720.30712891 1419.09472656 1720.30712891 1212.34863281 1738.37207031 c 1,8,-1
 1172.20410156 1738.37207031 l 2,9,10
 1147.11279297 1738.37207031 1147.11279297 1738.37207031 1147.11328125 1762.45898438 c 1,11,12
 1162.16748047 1795.57910156 1162.16748047 1795.57910156 1188.26171875 1795.578125 c 2,13,-1
 1220.37792969 1795.578125 l 1,14,-1
 1532.50390625 1766.47363281 l 1,15,-1
 1544.546875 1766.47363281 l 1,16,-1
 1892.80371094 1815.65136719 l 1,17,-1
 1941.98144531 1815.65136719 l 1,18,19
 1978.11181641 1801.60058594 1978.11181641 1801.60058594 1978.11132812 1778.51660156 c 2,20,-1
 1978.11132812 1774.50292969 l 2,21,22
 1978.11132812 1762.45898438 1978.11132812 1762.45898438 1933.95214844 1750.41503906 c 1,23,-1
 1884.77441406 1750.41503906 l 1,24,25
 1790.43408203 1733.35400391 1790.43408203 1733.35400391 1727.20605469 1689.19433594 c 1,26,27
 1657.95703125 1629.98095703 1657.95703125 1629.98095703 1653.94238281 1586.82519531 c 2,28,-1
 1642.05859375 80.5654296875 l 1,0,1
832.916992188 1781.06054688 m 0,29,30
 886.046875 1780.40136719 886.046875 1780.40136719 893.073242188 1744.39355469 c 0,31,32
 900.098632812 1700.234375 900.098632812 1700.234375 744.536132812 1704.25195312 c 0,33,34
 689.337890625 1704.25195312 689.337890625 1704.25195312 596 1636 c 1,35,36
 552.844238281 1594.85107422 552.844238281 1594.85107422 551.838867188 1543.66601562 c 2,37,-1
 551.838867188 94.4423828125 l 1,38,39
 643.228342755 84.4085287274 643.228342755 84.4085287274 751.434204102 85.6304931641 c 128,-1,40
 859.640065449 86.8524576007 859.640065449 86.8524576007 914.03125 94.44140625 c 0,41,42
 952.600433015 99.8225151939 952.600433015 99.8225151939 1016.00649928 155.961723766 c 128,-1,43
 1079.41256555 212.100932337 1079.41256555 212.100932337 1081.89941406 253.611328125 c 0,44,45
 1083.93447521 287.574959955 1083.93447521 287.574959955 1070.24605454 324.021736669 c 128,-1,46
 1056.55763387 360.468513382 1056.55763387 360.468513382 1033.17712254 403.61856281 c 128,-1,47
 1009.79661121 446.768612239 1009.79661121 446.768612239 1000.88183594 471.190429688 c 0,48,49
 973.358908266 546.589117781 973.358908266 546.589117781 955.522962552 603.655350176 c 128,-1,50
 937.687016838 660.721582571 937.687016838 660.721582571 923.409107761 728.454642011 c 128,-1,51
 909.131198684 796.187701452 909.131198684 796.187701452 908.127493802 849.092115801 c 128,-1,52
 907.123788919 901.996530151 907.123788919 901.996530151 920.097467136 955.509610761 c 128,-1,53
 933.071145353 1009.02269137 933.071145353 1009.02269137 962.90625 1051.2109375 c 1,54,55
 1002.1378932 939.791137477 1002.1378932 939.791137477 1045.01454202 829.445961675 c 128,-1,56
 1087.89119085 719.100785873 1087.89119085 719.100785873 1146.59570798 586.64280395 c 128,-1,57
 1205.3002251 454.184822028 1205.3002251 454.184822028 1262.06194827 347.086336675 c 128,-1,58
 1318.82367145 239.987851322 1318.82367145 239.987851322 1383.97467673 149.321382075 c 128,-1,59
 1449.125682 58.654912828 1449.125682 58.654912828 1506.74609375 17.6328125 c 0,60,61
 1512.5851603 13.4763104923 1512.5851603 13.4763104923 1499.18232875 9.86037117892 c 0,62,63
 1485.31509301 6.119140625 1485.31509301 6.119140625 1466.7265625 6.119140625 c 2,64,-1
 435.4140625 6.119140625 l 1,65,-1
 254.765625 -5.921875 l 1,66,-1
 166.451171875 -5.921875 l 1,67,68
 21.9296875 6.1220703125 21.9296875 6.1220703125 21.92578125 30.2099609375 c 2,69,-1
 21.92578125 38.2392578125 l 2,70,71
 19.9174804688 56.3051757812 19.9174804688 56.3051757812 59.0615234375 62.322265625 c 1,72,-1
 78.1279296875 62.322265625 l 2,73,74
 290.896484375 62.322265625 290.896484375 62.322265625 293.903320312 218.888671875 c 2,75,-1
 293.903320312 1543.66601562 l 2,76,77
 294.908203125 1674.13671875 294.908203125 1674.13671875 74.1171875 1700.23242188 c 1,78,-1
 29.9560546875 1700.23242188 l 2,79,80
 -2.1591796875 1700.23242188 -2.1591796875 1700.23242188 -2.1650390625 1724.32324219 c 2,81,-1
 -2.1650390625 1728.33398438 l 2,82,83
 -2.1650390625 1764.46435547 -2.1650390625 1764.46435547 66.0869140625 1764.46484375 c 1,84,-1
 367.170898438 1736.36425781 l 1,85,-1
 415.34375 1736.36425781 l 1,86,-1
 804.75 1780.52539062 l 1,87,-1
 816.791015625 1780.52539062 l 2,88,89
 825.278283128 1781.15785527 825.278283128 1781.15785527 832.916992188 1781.06054688 c 0,29,30
EndSplineSet
Ligature2: "'liga' Standard Ligatures in Latin lookup 0-1" l i
Ligature2: "'liga' Standard Ligatures in Latin lookup 0-1" L I
EndChar
